GeoramaExtraExtended-MediumItalic.ufo
<glyph name="exclam" format="2">
  <advance width="352.95"/>
  <unicode hex="0021"/>
  <outline>
    <contour>
      <point x="119.18" y="261.85" type="line"/>
      <point x="228.34" y="261.85" type="line"/>
      <point x="312.37" y="740.0" type="line"/>
      <point x="187.29999999999998" y="740.0" type="line"/>
    </contour>
    <contour>
      <point x="66.59" y="39.67" type="curve" smooth="yes"/>
      <point x="66.02000000000001" y="9.17"/>
      <point x="84.64" y="-4.3"/>
      <point x="131.62" y="-4.3" type="curve" smooth="yes"/>
      <point x="185.30999999999997" y="-4.3"/>
      <point x="215.54999999999998" y="11.749999999999996"/>
      <point x="217.26" y="69.58" type="curve" smooth="yes"/>
      <point x="217.83" y="100.08"/>
      <point x="199.20999999999998" y="113.55"/>
      <point x="152.66" y="113.55" type="curve" smooth="yes"/>
      <point x="96.82" y="113.55"/>
      <point x="68.30000000000001" y="95.35"/>
    </contour>
  </outline>
</glyph>
<glyph name="numbersign" format="2">
  <advance width="1040.8799999999999"/>
  <unicode hex="0023"/>
  <outline>
    <contour>
      <point x="211.01999999999998" y="451.06" type="line"/>
      <point x="342.74" y="451.06" type="line"/>
      <point x="260.40000000000003" y="243.69" type="line"/>
      <point x="135.67" y="243.69" type="line"/>
      <point x="122.92000000000002" y="164.34" type="line"/>
      <point x="231.47000000000003" y="164.34" type="line"/>
      <point x="167.37" y="0.0" type="line"/>
      <point x="299.6" y="0.0" type="line"/>
      <point x="363.13000000000005" y="164.34" type="line"/>
      <point x="558.83" y="164.34" type="line"/>
      <point x="495.30000000000007" y="0.0" type="line"/>
      <point x="627.53" y="0.0" type="line"/>
      <point x="691.06" y="164.34" type="line"/>
      <point x="840.26" y="164.34" type="line"/>
      <point x="852.5799999999999" y="243.69" type="line"/>
      <point x="721.42" y="243.69" type="line"/>
      <point x="802.3299999999999" y="451.06" type="line"/>
      <point x="927.9300000000001" y="451.06" type="line"/>
      <point x="941.25" y="529.5500000000001" type="line"/>
      <point x="831.83" y="529.5500000000001" type="line"/>
      <point x="899.06" y="700.0" type="line"/>
      <point x="766.8299999999999" y="700.0" type="line"/>
      <point x="699.6" y="529.5500000000001" type="line"/>
      <point x="503.9" y="529.5500000000001" type="line"/>
      <point x="571.1300000000001" y="700.0" type="line"/>
      <point x="438.9" y="700.0" type="line"/>
      <point x="371.67" y="529.5500000000001" type="line"/>
      <point x="223.91000000000003" y="529.5500000000001" type="line"/>
    </contour>
    <contour>
      <point x="474.96999999999997" y="451.06" type="line"/>
      <point x="670.67" y="451.06" type="line"/>
      <point x="588.33" y="243.69" type="line"/>
      <point x="392.63" y="243.69" type="line"/>
    </contour>
  </outline>
</glyph>
<glyph name="dollar" format="2">
  <advance width="1040.8799999999999"/>
  <unicode hex="0024"/>
  <outline>
    <contour>
      <point x="929.08" y="663.5799999999999" type="line"/>
      <point x="876.61" y="678.3"/>
      <point x="783.22" y="705.4200000000001"/>
      <point x="655.56" y="709.5699999999999" type="curve"/>
      <point x="671.56" y="805.0" type="line"/>
      <point x="581.32" y="805.0" type="line"/>
      <point x="565.89" y="708.71" type="line"/>
      <point x="392.67" y="704.2700000000001"/>
      <point x="179.78" y="662.36"/>
      <point x="179.78" y="475.2" type="curve" smooth="yes"/>
      <point x="179.78" y="219.60000000000002"/>
      <point x="772.8199999999999" y="349.20000000000005"/>
      <point x="772.8199999999999" y="199.73000000000002" type="curve" smooth="yes"/>
      <point x="772.8199999999999" y="97.80000000000001"/>
      <point x="608.0200000000001" y="83.39"/>
      <point x="504.79" y="83.39" type="curve" smooth="yes"/>
      <point x="359.53000000000003" y="83.39"/>
      <point x="191.01" y="125.35000000000001"/>
      <point x="118.48" y="151.96" type="curve"/>
      <point x="79.52" y="54.13000000000001" type="line"/>
      <point x="158.98999999999998" y="30.260000000000005"/>
      <point x="299.66" y="-6.71"/>
      <point x="449.75" y="-9.57" type="curve"/>
      <point x="434.75" y="-105.0" type="line"/>
      <point x="524.56" y="-105.0" type="line"/>
      <point x="539.56" y="-7.420000000000001" type="line"/>
      <point x="704.74" y="2.6100000000000003"/>
      <point x="917.52" y="35.199999999999996"/>
      <point x="917.52" y="224.66" type="curve" smooth="yes"/>
      <point x="917.52" y="475.83"/>
      <point x="321.76" y="345.65"/>
      <point x="321.76" y="498.9800000000001" type="curve" smooth="yes"/>
      <point x="321.76" y="602.48"/>
      <point x="485.28" y="614.89"/>
      <point x="578.07" y="614.89" type="curve" smooth="yes"/>
      <point x="710.46" y="614.89"/>
      <point x="814.35" y="594.06"/>
      <point x="892.6999999999999" y="567.04" type="curve"/>
    </contour>
  </outline>
</glyph>
<glyph name="ampersand" format="2">
  <advance width="1076.9199999999998"/>
  <unicode hex="0026"/>
  <outline>
    <contour>
      <point x="432.36" y="-10.0" type="curve" smooth="yes"/>
      <point x="666.6400000000001" y="-10.0"/>
      <point x="847.6399999999999" y="68.64000000000001"/>
      <point x="928.08" y="298.78000000000003" type="curve"/>
      <point x="822.36" y="303.2" type="line"/>
      <point x="770.0" y="133.94"/>
      <point x="604.6000000000001" y="77.8"/>
      <point x="444.40000000000003" y="77.8" type="curve" smooth="yes"/>
      <point x="280.82" y="77.8"/>
      <point x="192.88" y="129.44"/>
      <point x="192.88" y="198.66" type="curve" smooth="yes"/>
      <point x="192.88" y="300.5"/>
      <point x="325.48" y="320.76"/>
      <point x="453.88000000000005" y="320.76" type="curve" smooth="yes"/>
      <point x="498.58" y="320.76" type="line"/>
      <point x="512.34" y="386.34" type="line"/>
      <point x="496.16" y="388.06" type="line" smooth="yes"/>
      <point x="379.86" y="398.38"/>
      <point x="301.42" y="434.02000000000004"/>
      <point x="301.42" y="508.91999999999996" type="curve" smooth="yes"/>
      <point x="301.42" y="567.5799999999999"/>
      <point x="360.52000000000004" y="627.92"/>
      <point x="477.94" y="627.92" type="curve" smooth="yes"/>
      <point x="550.5800000000002" y="627.92"/>
      <point x="626.1999999999999" y="598.24"/>
      <point x="676.3399999999999" y="554.4200000000001" type="curve"/>
      <point x="748.68" y="616.58" type="line"/>
      <point x="681.2" y="676.0200000000001"/>
      <point x="575.3599999999999" y="710.0"/>
      <point x="463.17999999999995" y="710.0" type="curve" smooth="yes"/>
      <point x="271.56" y="710.0"/>
      <point x="165.32" y="623.74"/>
      <point x="165.32" y="528.6999999999999" type="curve" smooth="yes"/>
      <point x="165.32" y="448.62"/>
      <point x="233.66000000000003" y="381.9"/>
      <point x="333.02000000000004" y="369.74" type="curve"/>
      <point x="167.66" y="364.02"/>
      <point x="54.2" y="312.74"/>
      <point x="54.2" y="192.64" type="curve" smooth="yes"/>
      <point x="54.2" y="72.14000000000001"/>
      <point x="176.98000000000002" y="-10.0"/>
    </contour>
    <contour>
      <point x="637.8600000000001" y="221.88" type="line"/>
      <point x="645.16" y="275.4"/>
      <point x="685.9800000000001" y="290.61999999999995"/>
      <point x="728.38" y="290.61999999999995" type="curve" smooth="yes"/>
      <point x="815.9" y="290.61999999999995"/>
      <point x="871.84" y="262.58"/>
      <point x="952.62" y="262.58" type="curve" smooth="yes"/>
      <point x="1039.6399999999999" y="262.58"/>
      <point x="1097.6599999999999" y="332.04"/>
      <point x="1097.6599999999999" y="428.4" type="curve"/>
      <point x="1019.3200000000002" y="428.4" type="line"/>
      <point x="1019.3199999999999" y="373.0"/>
      <point x="983.0600000000001" y="345.22"/>
      <point x="922.66" y="345.22" type="curve" smooth="yes"/>
      <point x="844.44" y="345.22"/>
      <point x="802.4200000000001" y="378.42"/>
      <point x="719.9200000000001" y="378.42" type="curve" smooth="yes"/>
      <point x="641.0" y="378.42"/>
      <point x="576.7" y="328.54"/>
      <point x="569.4" y="244.5" type="curve"/>
    </contour>
  </outline>
</glyph>
<glyph name="quotesingle" format="2">
  <advance width="227.87"/>
  <unicode hex="0027"/>
  <outline>
    <contour>
      <point x="88.22000000000001" y="427.0" type="line"/>
      <point x="186.79" y="427.0" type="line"/>
      <point x="236.37" y="700.0" type="line"/>
      <point x="125.5" y="700.0" type="line"/>
    </contour>
  </outline>
</glyph>
<glyph name="parenleft" format="2">
  <advance width="477.2"/>
  <unicode hex="0028"/>
  <outline>
    <contour>
      <point x="110.17999999999999" y="140.20000000000002" type="curve" smooth="yes"/>
      <point x="110.17999999999999" y="-37.980000000000004"/>
      <point x="179.94" y="-191.87"/>
      <point x="359.49" y="-220.0" type="curve"/>
      <point x="372.38" y="-140.94" type="line"/>
      <point x="264.98999999999995" y="-112.78999999999999"/>
      <point x="214.32" y="-9.59"/>
      <point x="214.32" y="133.87" type="curve" smooth="yes"/>
      <point x="214.32" y="378.28000000000003"/>
      <point x="315.2" y="632.93"/>
      <point x="498.74" y="667.5" type="curve"/>
      <point x="511.63" y="750.0" type="line"/>
      <point x="226.26999999999998" y="720.08"/>
      <point x="110.17999999999999" y="403.45"/>
    </contour>
  </outline>
</glyph>
<glyph name="parenright" format="2">
  <advance width="477.2"/>
  <unicode hex="0029"/>
  <outline>
    <contour>
      <point x="363.59" y="388.66" type="curve" smooth="yes"/>
      <point x="363.59" y="572.4100000000001"/>
      <point x="292.69" y="721.87"/>
      <point x="112.57000000000001" y="750.0" type="curve"/>
      <point x="99.68" y="667.65" type="line"/>
      <point x="212.77" y="638.36"/>
      <point x="259.45" y="531.17"/>
      <point x="259.45" y="392.84000000000003" type="curve" smooth="yes"/>
      <point x="259.45" y="162.67999999999998"/>
      <point x="162.56" y="-98.37"/>
      <point x="-26.11" y="-136.36" type="curve"/>
      <point x="-39.0" y="-220.0" type="line"/>
      <point x="225.27" y="-190.63"/>
      <point x="363.59" y="101.77999999999997"/>
    </contour>
  </outline>
</glyph>
<glyph name="asterisk" format="2">
  <advance width="472.9000000000001"/>
  <unicode hex="002A"/>
  <outline>
    <contour>
      <point x="139.92000000000002" y="298.53" type="line"/>
      <point x="261.84999999999997" y="438.41" type="line"/>
      <point x="337.82" y="298.53" type="line"/>
      <point x="388.66" y="331.46999999999997" type="line"/>
      <point x="324.44" y="482.65999999999997" type="line"/>
      <point x="483.17999999999995" y="543.22" type="line"/>
      <point x="475.02" y="598.21" type="line"/>
      <point x="316.27" y="554.2700000000001" type="line"/>
      <point x="338.22999999999996" y="730.0" type="line"/>
      <point x="280.24" y="730.0" type="line"/>
      <point x="246.24" y="554.27" type="line"/>
      <point x="99.76" y="598.2099999999999" type="line"/>
      <point x="75.27" y="543.22" type="line"/>
      <point x="214.3" y="482.65999999999997" type="line"/>
      <point x="100.4" y="332.61" type="line"/>
    </contour>
  </outline>
</glyph>
<glyph name="plus" format="2">
  <advance width="610.9000000000001"/>
  <unicode hex="002B"/>
  <outline>
    <contour>
      <point x="219.44" y="78.44999999999999" type="line"/>
      <point x="329.03" y="78.44999999999999" type="line"/>
      <point x="355.87" y="252.48" type="line"/>
      <point x="545.03" y="252.48" type="line"/>
      <point x="561.36" y="350.89" type="line"/>
      <point x="372.19999999999993" y="350.89" type="line"/>
      <point x="400.04" y="524.49" type="line"/>
      <point x="291.31" y="524.49" type="line"/>
      <point x="262.61" y="350.89" type="line"/>
      <point x="74.74" y="350.89" type="line"/>
      <point x="58.41" y="252.48" type="line"/>
      <point x="247.14000000000001" y="252.48" type="line"/>
    </contour>
  </outline>
</glyph>
<glyph name="comma" format="2">
  <advance width="282.08"/>
  <unicode hex="002C"/>
  <outline>
    <contour>
      <point x="51.830000000000005" y="63.69" type="line"/>
      <point x="53.68000000000001" y="46.25"/>
      <point x="53.1" y="27.81"/>
      <point x="51.379999999999995" y="9.8" type="curve" smooth="yes"/>
      <point x="45.36" y="-57.79"/>
      <point x="6.960000000000001" y="-135.64000000000001"/>
      <point x="-59.739999999999995" y="-180.42" type="curve"/>
      <point x="33.98" y="-200.0" type="line"/>
      <point x="117.98" y="-151.5"/>
      <point x="176.01" y="-57.36"/>
      <point x="176.01" y="29.27" type="curve" smooth="yes"/>
      <point x="176.01" y="43.69"/>
      <point x="173.87" y="57.54"/>
      <point x="169.73" y="69.25" type="curve"/>
    </contour>
  </outline>
</glyph>
<glyph name="hyphen" format="2">
  <advance width="465.96000000000004"/>
  <unicode hex="002D"/>
  <outline>
    <contour>
      <point x="62.23" y="237.37" type="line"/>
      <point x="391.28" y="237.37" type="line"/>
      <point x="407.61" y="337.64000000000004" type="line"/>
      <point x="78.56" y="337.64000000000004" type="line"/>
    </contour>
  </outline>
</glyph>
<glyph name="period" format="2">
  <advance width="287.67"/>
  <unicode hex="002E"/>
  <outline>
    <contour>
      <point x="33.089999999999996" y="39.669999999999995" type="curve" smooth="yes"/>
      <point x="32.52" y="9.169999999999998"/>
      <point x="51.14" y="-4.3"/>
      <point x="98.12" y="-4.3" type="curve" smooth="yes"/>
      <point x="151.81" y="-4.3"/>
      <point x="182.05" y="11.749999999999996"/>
      <point x="183.76" y="69.58" type="curve" smooth="yes"/>
      <point x="184.32999999999998" y="100.08"/>
      <point x="165.71" y="113.55"/>
      <point x="119.16" y="113.55" type="curve" smooth="yes"/>
      <point x="63.31999999999999" y="113.55"/>
      <point x="34.800000000000004" y="95.35"/>
    </contour>
  </outline>
</glyph>
<glyph name="slash" format="2">
  <advance width="508.39"/>
  <unicode hex="002F"/>
  <outline>
    <contour>
      <point x="-67.0" y="-210.0" type="line"/>
      <point x="38.85" y="-210.0" type="line"/>
      <point x="572.39" y="740.0" type="line"/>
      <point x="466.11" y="740.0" type="line"/>
    </contour>
  </outline>
</glyph>
<glyph name="zero" format="2">
  <advance width="1040.8799999999999"/>
  <unicode hex="0030"/>
  <outline>
    <contour>
      <point x="517.4599999999999" y="-10.0" type="curve" smooth="yes"/>
      <point x="791.6999999999999" y="-10.0"/>
      <point x="983.46" y="115.68000000000002"/>
      <point x="983.46" y="377.0" type="curve" smooth="yes"/>
      <point x="983.46" y="594.7199999999999"/>
      <point x="817.0" y="710.0"/>
      <point x="546.42" y="710.0" type="curve" smooth="yes"/>
      <point x="271.17999999999995" y="710.0"/>
      <point x="81.42" y="587.1800000000001"/>
      <point x="81.42" y="325.86" type="curve" smooth="yes"/>
      <point x="81.42" y="108.14000000000001"/>
      <point x="248.87999999999997" y="-10.0"/>
    </contour>
    <contour>
      <point x="520.04" y="80.38" type="curve" smooth="yes"/>
      <point x="340.58" y="80.38"/>
      <point x="224.26000000000002" y="164.58"/>
      <point x="224.26000000000002" y="329.3" type="curve" smooth="yes"/>
      <point x="224.26" y="517.1199999999999"/>
      <point x="338.66" y="619.62"/>
      <point x="544.7" y="619.62" type="curve" smooth="yes"/>
      <point x="724.4399999999999" y="619.62"/>
      <point x="840.62" y="536.5600000000001"/>
      <point x="840.62" y="371.84" type="curve" smooth="yes"/>
      <point x="840.6199999999999" y="185.01999999999998"/>
      <point x="725.08" y="80.38"/>
    </contour>
  </outline>
</glyph>
<glyph name="one" format="2">
  <advance width="1040.8799999999999"/>
  <unicode hex="0031"/>
  <outline>
    <contour>
      <point x="126.96000000000001" y="0.0" type="line"/>
      <point x="901.5300000000001" y="0.0" type="line"/>
      <point x="917.4300000000001" y="96.82999999999998" type="line"/>
      <point x="624.79" y="96.82999999999998" type="line"/>
      <point x="722.75" y="705.7" type="line"/>
      <point x="654.99" y="705.7" type="line"/>
      <point x="186.34" y="517.0600000000001" type="line"/>
      <point x="205.82" y="419.51000000000005" type="line"/>
      <point x="562.2900000000001" y="566.75" type="line"/>
      <point x="488.53999999999996" y="96.82999999999998" type="line"/>
      <point x="142.85999999999999" y="96.82999999999998" type="line"/>
    </contour>
  </outline>
</glyph>
<glyph name="two" format="2">
  <advance width="1040.8799999999999"/>
  <unicode hex="0032"/>
  <outline>
    <contour>
      <point x="104.38" y="73.75999999999999" type="curve"/>
      <point x="95.78" y="0.0" type="line"/>
      <point x="895.6" y="0.0" type="line"/>
      <point x="911.08" y="97.25999999999999" type="line"/>
      <point x="353.62" y="97.25999999999999" type="line"/>
      <point x="752.86" y="286.24"/>
      <point x="843.7199999999999" y="372.21999999999997"/>
      <point x="843.7199999999999" y="500.28000000000003" type="curve" smooth="yes"/>
      <point x="843.7199999999999" y="626.06"/>
      <point x="725.78" y="710.0"/>
      <point x="523.8000000000001" y="710.0" type="curve" smooth="yes"/>
      <point x="403.14" y="710.0"/>
      <point x="273.23999999999995" y="678.6999999999999"/>
      <point x="184.78" y="634.68" type="curve"/>
      <point x="204.4" y="536.7" type="line"/>
      <point x="293.3" y="573.5600000000001"/>
      <point x="387.65999999999997" y="603.5600000000001"/>
      <point x="507.17999999999995" y="603.5600000000001" type="curve" smooth="yes"/>
      <point x="631.0799999999999" y="603.5600000000001"/>
      <point x="700.88" y="559.5999999999999"/>
      <point x="700.88" y="481.65999999999997" type="curve" smooth="yes"/>
      <point x="700.8800000000001" y="354.56"/>
      <point x="488.78" y="256.26"/>
    </contour>
  </outline>
</glyph>
<glyph name="three" format="2">
  <advance width="1040.8799999999999"/>
  <unicode hex="0033"/>
  <outline>
    <contour>
      <point x="39.699999999999996" y="68.08000000000001" type="line"/>
      <point x="156.12" y="14.399999999999999"/>
      <point x="293.98" y="-10.0"/>
      <point x="459.34" y="-10.0" type="curve" smooth="yes"/>
      <point x="701.48" y="-10.0"/>
      <point x="914.18" y="53.199999999999996"/>
      <point x="914.18" y="226.76000000000002" type="curve" smooth="yes"/>
      <point x="914.18" y="306.72"/>
      <point x="850.8399999999999" y="353.84"/>
      <point x="734.48" y="371.0" type="curve"/>
      <point x="831.46" y="386.72"/>
      <point x="915.4" y="449.59999999999997"/>
      <point x="915.4" y="548.0" type="curve" smooth="yes"/>
      <point x="915.4" y="650.42"/>
      <point x="796.12" y="710.0"/>
      <point x="548.8800000000001" y="710.0" type="curve" smooth="yes"/>
      <point x="422.62000000000006" y="710.0"/>
      <point x="273.29999999999995" y="688.6999999999999"/>
      <point x="176.04000000000002" y="659.4" type="curve"/>
      <point x="194.8" y="563.14" type="line"/>
      <point x="291.64" y="590.5799999999999"/>
      <point x="419.04" y="608.58"/>
      <point x="513.2" y="608.58" type="curve" smooth="yes"/>
      <point x="678.5000000000001" y="608.58"/>
      <point x="772.4200000000001" y="577.94"/>
      <point x="772.4200000000001" y="514.1800000000001" type="curve" smooth="yes"/>
      <point x="772.4200000000001" y="443.18"/>
      <point x="693.18" y="406.52000000000004"/>
      <point x="562.3399999999999" y="406.52000000000004" type="curve" smooth="yes"/>
      <point x="310.38" y="406.52000000000004" type="line"/>
      <point x="295.34" y="314.28000000000003" type="line"/>
      <point x="538.76" y="314.28000000000003" type="line" smooth="yes"/>
      <point x="700.62" y="314.28000000000003"/>
      <point x="771.92" y="280.47999999999996"/>
      <point x="771.92" y="215.74" type="curve" smooth="yes"/>
      <point x="771.92" y="133.16"/>
      <point x="670.1999999999999" y="90.56"/>
      <point x="473.0799999999999" y="90.56" type="curve" smooth="yes"/>
      <point x="312.46" y="90.56"/>
      <point x="179.44" y="114.82"/>
      <point x="79.22" y="160.9" type="curve"/>
    </contour>
  </outline>
</glyph>
<glyph name="four" format="2">
  <advance width="1040.8799999999999"/>
  <unicode hex="0034"/>
  <outline>
    <contour>
      <point x="52.760000000000005" y="155.26000000000002" type="line"/>
      <point x="635.4599999999999" y="155.26000000000002" type="line"/>
      <point x="610.06" y="-4.42" type="line"/>
      <point x="746.74" y="-4.42" type="line"/>
      <point x="772.1400000000001" y="155.26000000000002" type="line"/>
      <point x="948.3199999999999" y="155.26000000000002" type="line"/>
      <point x="962.5" y="243.06" type="line"/>
      <point x="786.32" y="243.06" type="line"/>
      <point x="859.46" y="696.4399999999999" type="line"/>
      <point x="779.8000000000001" y="702.1399999999999" type="line"/>
      <point x="62.22" y="225.44" type="line"/>
    </contour>
    <contour>
      <point x="223.64" y="243.06" type="line"/>
      <point x="699.14" y="551.88" type="line"/>
      <point x="649.64" y="243.06" type="line"/>
    </contour>
  </outline>
</glyph>
<glyph name="five" format="2">
  <advance width="1040.8799999999999"/>
  <unicode hex="0035"/>
  <outline>
    <contour>
      <point x="75.28" y="68.08" type="line"/>
      <point x="175.29999999999998" y="15.820000000000002"/>
      <point x="296.76000000000005" y="-10.0"/>
      <point x="459.54" y="-10.0" type="curve" smooth="yes"/>
      <point x="786.88" y="-10.0"/>
      <point x="917.0400000000001" y="89.13999999999999"/>
      <point x="917.0400000000001" y="250.77999999999997" type="curve" smooth="yes"/>
      <point x="917.0400000000001" y="369.48"/>
      <point x="837.6600000000001" y="425.9"/>
      <point x="633.2" y="425.90000000000003" type="curve" smooth="yes"/>
      <point x="302.62" y="425.9" type="line"/>
      <point x="359.08000000000004" y="599.3" type="line"/>
      <point x="909.7200000000001" y="599.3" type="line"/>
      <point x="927.48" y="700.0" type="line"/>
      <point x="284.15999999999997" y="700.0" type="line"/>
      <point x="168.68000000000004" y="346.37999999999994" type="line"/>
      <point x="176.54" y="338.09999999999997" type="line"/>
      <point x="568.1800000000001" y="338.09999999999997" type="line" smooth="yes"/>
      <point x="726.0600000000001" y="338.09999999999997"/>
      <point x="786.8199999999999" y="313.32"/>
      <point x="786.8199999999999" y="237.04000000000002" type="curve" smooth="yes"/>
      <point x="786.8199999999999" y="139.73999999999998"/>
      <point x="670.38" y="88.12"/>
      <point x="471.28" y="88.12" type="curve" smooth="yes"/>
      <point x="318.52000000000004" y="88.12"/>
      <point x="198.2" y="116.66000000000001"/>
      <point x="114.66" y="158.32000000000002" type="curve"/>
    </contour>
  </outline>
</glyph>
<glyph name="six" format="2">
  <advance width="1040.8799999999999"/>
  <unicode hex="0036"/>
  <note>
14
</note>
  <outline>
    <contour>
      <point x="499.0" y="-10.0" type="curve" smooth="yes"/>
      <point x="757.88" y="-10.0"/>
      <point x="960.8800000000001" y="49.48"/>
      <point x="960.8800000000001" y="238.88" type="curve" smooth="yes"/>
      <point x="960.8800000000001" y="369.28000000000003"/>
      <point x="845.6" y="448.88"/>
      <point x="621.4599999999999" y="448.88" type="curve" smooth="yes"/>
      <point x="485.26" y="448.88"/>
      <point x="327.53999999999996" y="419.21999999999997"/>
      <point x="220.73999999999998" y="366.98" type="curve"/>
      <point x="214.57999999999998" y="278.2" type="line"/>
      <point x="303.2" y="325.12"/>
      <point x="445.02" y="356.78000000000003"/>
      <point x="567.86" y="356.78000000000003" type="curve" smooth="yes"/>
      <point x="747.04" y="356.78000000000003"/>
      <point x="822.2" y="314.0"/>
      <point x="822.2" y="234.0" type="curve" smooth="yes"/>
      <point x="822.2" y="138.02"/>
      <point x="719.36" y="85.54"/>
      <point x="524.62" y="85.54" type="curve" smooth="yes"/>
      <point x="324.98" y="85.54"/>
      <point x="226.17999999999998" y="145.18"/>
      <point x="226.17999999999998" y="291.76" type="curve" smooth="yes"/>
      <point x="226.17999999999998" y="406.38"/>
      <point x="277.16" y="493.72"/>
      <point x="366.96000000000004" y="548.38" type="curve" smooth="yes"/>
      <point x="437.20000000000005" y="590.62"/>
      <point x="531.56" y="611.88"/>
      <point x="642.62" y="611.88" type="curve" smooth="yes"/>
      <point x="758.6" y="611.88"/>
      <point x="849.98" y="599.6"/>
      <point x="949.8" y="572.76" type="curve"/>
      <point x="984.32" y="666.72" type="line"/>
      <point x="894.52" y="693.14"/>
      <point x="775.52" y="710.0"/>
      <point x="646.62" y="710.0" type="curve" smooth="yes"/>
      <point x="314.76" y="710.0"/>
      <point x="92.52000000000001" y="558.3199999999999"/>
      <point x="92.52000000000001" y="284.76" type="curve" smooth="yes"/>
      <point x="92.52000000000001" y="80.86"/>
      <point x="237.44" y="-10.0"/>
    </contour>
  </outline>
</glyph>
<glyph name="seven" format="2">
  <advance width="1040.8799999999999"/>
  <unicode hex="0037"/>
  <note>
9
</note>
  <outline>
    <contour>
      <point x="284.26" y="0.0" type="curve"/>
      <point x="426.8" y="0.0" type="line"/>
      <point x="451.94" y="137.76000000000002"/>
      <point x="530.2" y="225.64000000000001"/>
      <point x="711.5600000000001" y="394.86" type="curve" smooth="yes"/>
      <point x="947.76" y="614.92" type="line"/>
      <point x="961.9399999999999" y="700.0" type="line"/>
      <point x="171.18" y="700.0" type="line"/>
      <point x="155.28" y="595.72" type="line"/>
      <point x="778.86" y="595.72" type="line"/>
      <point x="563.12" y="398.84" type="line" smooth="yes"/>
      <point x="388.06" y="238.64000000000001"/>
      <point x="308.82" y="151.2"/>
    </contour>
  </outline>
</glyph>
<glyph name="eight" format="2">
  <advance width="1040.8799999999999"/>
  <unicode hex="0038"/>
  <outline>
    <contour>
      <point x="484.18" y="-10.0" type="curve" smooth="yes"/>
      <point x="738.0600000000001" y="-10.0"/>
      <point x="957.22" y="27.419999999999995"/>
      <point x="957.22" y="220.6" type="curve" smooth="yes"/>
      <point x="957.22" y="487.26"/>
      <point x="286.6" y="338.64"/>
      <point x="286.6" y="510.09999999999997" type="curve" smooth="yes"/>
      <point x="286.6" y="593.3599999999999"/>
      <point x="394.94" y="621.3399999999999"/>
      <point x="562.6800000000001" y="621.3399999999999" type="curve" smooth="yes"/>
      <point x="743.46" y="621.3399999999999"/>
      <point x="821.1" y="585.96"/>
      <point x="821.1" y="519.34" type="curve" smooth="yes"/>
      <point x="821.1" y="451.74"/>
      <point x="775.62" y="418.91999999999996"/>
      <point x="671.5799999999999" y="383.38" type="curve"/>
      <point x="775.12" y="357.88" type="line"/>
      <point x="874.06" y="389.86"/>
      <point x="943.3" y="443.29999999999995"/>
      <point x="943.3" y="537.54" type="curve" smooth="yes"/>
      <point x="943.3" y="646.98"/>
      <point x="831.14" y="710.0"/>
      <point x="570.42" y="710.0" type="curve" smooth="yes"/>
      <point x="347.68" y="710.0"/>
      <point x="159.24" y="666.98"/>
      <point x="159.24" y="496.91999999999996" type="curve" smooth="yes"/>
      <point x="159.24" y="222.48"/>
      <point x="812.6600000000001" y="384.56"/>
      <point x="812.6600000000001" y="202.4" type="curve" smooth="yes"/>
      <point x="812.6600000000001" y="95.74000000000001"/>
      <point x="670.58" y="72.63999999999999"/>
      <point x="493.78" y="72.63999999999999" type="curve" smooth="yes"/>
      <point x="284.12" y="72.63999999999999"/>
      <point x="200.07999999999998" y="114.88"/>
      <point x="200.07999999999998" y="194.76" type="curve" smooth="yes"/>
      <point x="200.07999999999998" y="272.06"/>
      <point x="261.24" y="318.0"/>
      <point x="373.71999999999997" y="344.4" type="curve"/>
      <point x="267.34" y="381.35999999999996" type="line"/>
      <point x="147.22" y="355.53999999999996"/>
      <point x="63.26" y="289.96"/>
      <point x="63.26" y="183.74" type="curve" smooth="yes"/>
      <point x="63.26" y="57.019999999999996"/>
      <point x="187.42000000000002" y="-10.0"/>
    </contour>
  </outline>
</glyph>
<glyph name="nine" format="2">
  <advance width="1040.8799999999999"/>
  <unicode hex="0039"/>
  <outline>
    <contour>
      <point x="576.3" y="710.0" type="curve" smooth="yes"/>
      <point x="275.28000000000003" y="710.0"/>
      <point x="115.82" y="621.28"/>
      <point x="115.82" y="455.1" type="curve" smooth="yes"/>
      <point x="115.82" y="324.7"/>
      <point x="231.1" y="251.12"/>
      <point x="455.24" y="251.12" type="curve" smooth="yes"/>
      <point x="591.44" y="251.12"/>
      <point x="749.16" y="280.78"/>
      <point x="855.96" y="333.02" type="curve"/>
      <point x="862.12" y="421.8" type="line"/>
      <point x="773.5" y="374.88"/>
      <point x="631.68" y="343.22"/>
      <point x="508.84000000000003" y="343.22" type="curve" smooth="yes"/>
      <point x="329.65999999999997" y="343.22"/>
      <point x="254.5" y="386.0"/>
      <point x="254.5" y="466.0" type="curve" smooth="yes"/>
      <point x="254.5" y="561.98"/>
      <point x="355.94" y="614.4599999999999"/>
      <point x="550.68" y="614.4599999999999" type="curve" smooth="yes"/>
      <point x="750.32" y="614.4599999999999"/>
      <point x="850.52" y="554.82"/>
      <point x="850.52" y="408.24" type="curve" smooth="yes"/>
      <point x="850.52" y="293.62"/>
      <point x="799.54" y="206.28"/>
      <point x="709.7399999999999" y="151.62" type="curve" smooth="yes"/>
      <point x="639.5" y="109.38"/>
      <point x="545.14" y="88.12"/>
      <point x="434.08" y="88.12" type="curve" smooth="yes"/>
      <point x="318.09999999999997" y="88.12"/>
      <point x="226.71999999999997" y="100.4"/>
      <point x="126.89999999999999" y="127.24" type="curve"/>
      <point x="92.38" y="33.28" type="line"/>
      <point x="182.18" y="6.86"/>
      <point x="301.17999999999995" y="-10.0"/>
      <point x="430.08" y="-10.0" type="curve" smooth="yes"/>
      <point x="761.9399999999999" y="-10.0"/>
      <point x="984.1800000000001" y="141.68000000000004"/>
      <point x="984.1800000000001" y="415.24" type="curve" smooth="yes"/>
      <point x="984.1800000000001" y="612.26"/>
      <point x="847.3199999999999" y="710.0"/>
    </contour>
  </outline>
</glyph>
<glyph name="less" format="2">
  <advance width="611.47"/>
  <unicode hex="003C"/>
  <outline>
    <contour>
      <point x="512.46" y="48.36" type="line"/>
      <point x="528.79" y="151.92" type="line"/>
      <point x="176.59" y="301.46999999999997" type="line"/>
      <point x="577.1700000000001" y="450.59" type="line"/>
      <point x="593.5" y="555.5799999999999" type="line"/>
      <point x="74.74000000000001" y="357.04999999999995" type="line"/>
      <point x="57.980000000000004" y="251.05000000000004" type="line"/>
    </contour>
  </outline>
</glyph>
<glyph name="equal" format="2">
  <advance width="611.33"/>
  <unicode hex="003D"/>
  <outline>
    <contour>
      <point x="543.64" y="239.14000000000001" type="line"/>
      <point x="57.02" y="239.14000000000001" type="line"/>
      <point x="40.69" y="140.73000000000002" type="line"/>
      <point x="527.31" y="140.73000000000002" type="line"/>
    </contour>
    <contour>
      <point x="579.51" y="464.35" type="line"/>
      <point x="92.46000000000001" y="464.35" type="line"/>
      <point x="76.56" y="365.94" type="line"/>
      <point x="563.1800000000001" y="365.94" type="line"/>
    </contour>
  </outline>
</glyph>
<glyph name="greater" format="2">
  <advance width="611.47"/>
  <unicode hex="003E"/>
  <outline>
    <contour>
      <point x="545.46" y="251.04999999999998" type="line"/>
      <point x="561.36" y="350.6" type="line"/>
      <point x="107.74" y="551.2800000000001" type="line"/>
      <point x="90.55" y="451.15999999999997" type="line"/>
      <point x="443.17999999999995" y="301.46999999999997" type="line"/>
      <point x="43.03" y="152.49" type="line"/>
      <point x="26.27" y="48.36" type="line"/>
    </contour>
  </outline>
</glyph>
<glyph name="question" format="2">
  <advance width="672.75"/>
  <unicode hex="003F"/>
  <outline>
    <contour>
      <point x="251.58999999999997" y="260.57" type="line"/>
      <point x="360.32000000000005" y="260.57" type="line"/>
      <point x="370.89000000000004" y="316.68" type="line"/>
      <point x="559.6200000000001" y="363.42"/>
      <point x="681.65" y="421.51"/>
      <point x="681.65" y="569.8199999999999" type="curve" smooth="yes"/>
      <point x="681.65" y="699.67"/>
      <point x="546.64" y="750.0"/>
      <point x="411.43" y="750.0" type="curve" smooth="yes"/>
      <point x="304.01000000000005" y="750.0"/>
      <point x="170.70000000000002" y="720.57"/>
      <point x="74.86" y="668.29" type="curve"/>
      <point x="91.32" y="577.18" type="line"/>
      <point x="185.58999999999997" y="621.02"/>
      <point x="287.38" y="648.29"/>
      <point x="386.93" y="648.29" type="curve" smooth="yes"/>
      <point x="471.11" y="648.29"/>
      <point x="549.71" y="634.5"/>
      <point x="549.71" y="547.62" type="curve" smooth="yes"/>
      <point x="549.71" y="476.15999999999997"/>
      <point x="504.0899999999999" y="425.14"/>
      <point x="267.6" y="382.99" type="curve"/>
    </contour>
    <contour>
      <point x="202.26999999999998" y="38.39" type="curve" smooth="yes"/>
      <point x="202.7" y="8.74"/>
      <point x="220.89000000000001" y="-4.3"/>
      <point x="267.3" y="-4.3" type="curve" smooth="yes"/>
      <point x="320.28" y="-4.3"/>
      <point x="354.65999999999997" y="11.75"/>
      <point x="353.37" y="70.29" type="curve" smooth="yes"/>
      <point x="352.94" y="100.08"/>
      <point x="334.32" y="113.12"/>
      <point x="288.77" y="113.12" type="curve" smooth="yes"/>
      <point x="234.07000000000002" y="113.12"/>
      <point x="200.98000000000002" y="95.78"/>
    </contour>
  </outline>
</glyph>
<glyph name="at" format="2">
  <advance width="1063.8"/>
  <unicode hex="0040"/>
  <outline>
    <contour>
      <point x="446.23999999999995" y="-120.44" type="curve" smooth="yes"/>
      <point x="537.04" y="-120.44"/>
      <point x="620.5" y="-102.62"/>
      <point x="706.7399999999999" y="-68.82000000000001" type="curve"/>
      <point x="697.02" y="-6.379999999999999" type="line"/>
      <point x="612.5" y="-36.6"/>
      <point x="524.2800000000001" y="-50.56"/>
      <point x="453.5400000000001" y="-50.56" type="curve" smooth="yes"/>
      <point x="253.34" y="-50.56"/>
      <point x="132.39999999999998" y="57.379999999999995"/>
      <point x="132.39999999999998" y="227.84000000000003" type="curve" smooth="yes"/>
      <point x="132.39999999999998" y="470.14000000000004"/>
      <point x="332.64" y="656.76"/>
      <point x="602.3399999999999" y="656.76" type="curve" smooth="yes"/>
      <point x="821.44" y="656.76"/>
      <point x="944.24" y="552.5600000000001"/>
      <point x="944.24" y="376.74" type="curve" smooth="yes"/>
      <point x="944.24" y="246.14000000000001"/>
      <point x="879.4799999999999" y="141.24"/>
      <point x="811.14" y="141.24" type="curve" smooth="yes"/>
      <point x="762.8" y="141.24"/>
      <point x="750.62" y="182.83999999999997"/>
      <point x="765.32" y="252.89999999999998" type="curve" smooth="yes"/>
      <point x="817.48" y="496.49999999999994" type="line"/>
      <point x="749.1999999999999" y="519.66"/>
      <point x="662.9399999999999" y="534.5400000000001"/>
      <point x="603.18" y="534.5400000000001" type="curve" smooth="yes"/>
      <point x="401.02" y="534.5400000000001"/>
      <point x="254.02000000000004" y="407.09999999999997"/>
      <point x="254.02000000000004" y="240.24" type="curve" smooth="yes"/>
      <point x="254.02000000000004" y="127.78"/>
      <point x="318.18" y="69.34"/>
      <point x="430.32000000000005" y="69.34" type="curve" smooth="yes"/>
      <point x="519.74" y="69.34"/>
      <point x="608.24" y="117.76"/>
      <point x="654.62" y="180.12" type="curve"/>
      <point x="659.8199999999999" y="96.74000000000001"/>
      <point x="716.46" y="62.040000000000006"/>
      <point x="787.6200000000001" y="62.040000000000006" type="curve" smooth="yes"/>
      <point x="925.1599999999999" y="62.040000000000006"/>
      <point x="1020.8600000000001" y="205.04000000000002"/>
      <point x="1020.8600000000001" y="379.9" type="curve" smooth="yes"/>
      <point x="1020.8600000000001" y="592.5"/>
      <point x="865.4200000000001" y="725.78"/>
      <point x="616.6800000000001" y="725.78" type="curve" smooth="yes"/>
      <point x="290.65999999999997" y="725.78"/>
      <point x="55.059999999999995" y="513.8"/>
      <point x="55.059999999999995" y="221.26" type="curve" smooth="yes"/>
      <point x="55.059999999999995" y="11.280000000000001"/>
      <point x="206.66000000000003" y="-120.44"/>
    </contour>
    <contour>
      <point x="487.78" y="163.29999999999998" type="curve" smooth="yes"/>
      <point x="417.32000000000005" y="163.29999999999998"/>
      <point x="381.38" y="198.4"/>
      <point x="381.38" y="262.02" type="curve" smooth="yes"/>
      <point x="381.38" y="366.72"/>
      <point x="466.64" y="444.15999999999997"/>
      <point x="578.28" y="444.15999999999997" type="curve" smooth="yes"/>
      <point x="622.24" y="444.15999999999997"/>
      <point x="651.3399999999999" y="439.88"/>
      <point x="688.7" y="427.18" type="curve"/>
      <point x="652.0200000000001" y="262.84" type="line" smooth="yes"/>
      <point x="623.9399999999999" y="206.94"/>
      <point x="554.52" y="163.29999999999998"/>
    </contour>
  </outline>
</glyph>
<glyph name="A" format="2">
  <advance width="951.09"/>
  <unicode hex="0041"/>
  <anchor x="432.274" y="0.0" name="bottom"/>
  <anchor x="898.25" y="0.0" name="ogonek"/>
  <anchor x="546.41" y="700.0" name="top"/>
  <outline>
    <contour>
      <point x="-35.160000000000004" y="0.0" type="line"/>
      <point x="123.0" y="0.0" type="line"/>
      <point x="240.12" y="169.97" type="line"/>
      <point x="678.34" y="169.97" type="line"/>
      <point x="742.38" y="0.0" type="line"/>
      <point x="898.25" y="0.0" type="line"/>
      <point x="614.19" y="710.0" type="line"/>
      <point x="475.62" y="710.0" type="line"/>
    </contour>
    <contour>
      <point x="295.4" y="262.5" type="line"/>
      <point x="528.9300000000001" y="593.13" type="line"/>
      <point x="654.86" y="262.5" type="line"/>
    </contour>
  </outline>
</glyph>
<glyph name="B" format="2">
  <advance width="996.4599999999998"/>
  <unicode hex="0042"/>
  <outline>
    <contour>
      <point x="66.62" y="5.000000000000001" type="line"/>
      <point x="276.41999999999996" y="-5.86"/>
      <point x="346.2" y="-10.0"/>
      <point x="485.3999999999999" y="-10.0" type="curve" smooth="yes"/>
      <point x="673.36" y="-10.0"/>
      <point x="939.42" y="-5.579999999999989"/>
      <point x="939.42" y="225.45999999999998" type="curve" smooth="yes"/>
      <point x="939.42" y="310.16"/>
      <point x="869.9000000000001" y="368.86"/>
      <point x="778.84" y="379.02000000000004" type="curve"/>
      <point x="847.16" y="402.48"/>
      <point x="936.56" y="445.12"/>
      <point x="936.56" y="551.84" type="curve" smooth="yes"/>
      <point x="936.56" y="661.52"/>
      <point x="831.42" y="710.0"/>
      <point x="580.1599999999999" y="710.0" type="curve" smooth="yes"/>
      <point x="487.7" y="710.0"/>
      <point x="375.92" y="706.0"/>
      <point x="178.20000000000002" y="695.0" type="curve"/>
    </contour>
    <contour>
      <point x="271.04" y="402.22" type="line"/>
      <point x="301.7" y="600.46" type="line"/>
      <point x="397.48" y="605.74"/>
      <point x="465.9" y="611.16"/>
      <point x="555.38" y="611.16" type="curve" smooth="yes"/>
      <point x="722.26" y="611.16"/>
      <point x="791.8599999999999" y="586.88"/>
      <point x="791.8599999999999" y="514.72" type="curve" smooth="yes"/>
      <point x="791.8599999999999" y="427.56"/>
      <point x="681.2800000000001" y="402.22"/>
      <point x="614.7199999999999" y="402.22" type="curve" smooth="yes"/>
    </contour>
    <contour>
      <point x="256.0" y="318.86" type="line"/>
      <point x="599.92" y="318.86" type="line" smooth="yes"/>
      <point x="695.06" y="318.86"/>
      <point x="792.28" y="299.88"/>
      <point x="792.28" y="221.6" type="curve" smooth="yes"/>
      <point x="792.28" y="95.52"/>
      <point x="643.68" y="86.4"/>
      <point x="489.67999999999995" y="86.4" type="curve" smooth="yes"/>
      <point x="394.72" y="86.4"/>
      <point x="319.18" y="91.82000000000001"/>
      <point x="221.06" y="96.24000000000001" type="curve"/>
    </contour>
  </outline>
</glyph>
<glyph name="C" format="2">
  <advance width="997.6999999999999"/>
  <unicode hex="0043"/>
  <anchor x="537.1" y="0.0" name="bottom"/>
  <anchor x="631.38" y="700.0" name="top"/>
  <outline>
    <contour>
      <point x="568.58" y="-10.0" type="curve" smooth="yes"/>
      <point x="695.4" y="-10.0"/>
      <point x="806.2399999999999" y="5.28"/>
      <point x="913.3000000000001" y="35.839999999999996" type="curve"/>
      <point x="899.5600000000001" y="135.39999999999998" type="line"/>
      <point x="805.54" y="111.13999999999999"/>
      <point x="705.1599999999999" y="94.14"/>
      <point x="587.0600000000001" y="94.14" type="curve" smooth="yes"/>
      <point x="354.52" y="94.14"/>
      <point x="219.36" y="166.02"/>
      <point x="219.36" y="321.18" type="curve" smooth="yes"/>
      <point x="219.36" y="502.72"/>
      <point x="365.34000000000003" y="605.86"/>
      <point x="617.94" y="605.86" type="curve" smooth="yes"/>
      <point x="734.0600000000001" y="605.86"/>
      <point x="844.26" y="586.84"/>
      <point x="942.92" y="560.0" type="curve"/>
      <point x="973.0" y="658.84" type="line"/>
      <point x="847.26" y="697.8599999999999"/>
      <point x="736.2" y="710.0"/>
      <point x="609.04" y="710.0" type="curve" smooth="yes"/>
      <point x="272.36" y="710.0"/>
      <point x="73.94000000000001" y="561.3"/>
      <point x="73.94000000000001" y="309.14" type="curve" smooth="yes"/>
      <point x="73.94000000000001" y="92.82"/>
      <point x="248.64000000000001" y="-10.0"/>
    </contour>
  </outline>
</glyph>
<glyph name="D" format="2">
  <advance width="1077.3000000000002"/>
  <unicode hex="0044"/>
  <anchor x="475.04" y="0.0" name="bottom"/>
  <anchor x="534.48" y="350.0" name="center"/>
  <anchor x="550.52" y="700.0" name="top"/>
  <outline>
    <contour>
      <point x="464.22" y="-10.0" type="curve" smooth="yes"/>
      <point x="796.3" y="-10.0"/>
      <point x="1025.22" y="107.18"/>
      <point x="1025.22" y="377.3" type="curve" smooth="yes"/>
      <point x="1025.22" y="636.04"/>
      <point x="812.6799999999998" y="710.0"/>
      <point x="527.4799999999999" y="710.0" type="curve" smooth="yes"/>
      <point x="413.48" y="710.0"/>
      <point x="303.14000000000004" y="707.0"/>
      <point x="178.20000000000002" y="700.0" type="curve"/>
      <point x="65.48" y="0.0" type="line"/>
      <point x="195.78" y="-8.14"/>
      <point x="295.7" y="-10.0"/>
    </contour>
    <contour>
      <point x="472.7" y="84.67999999999999" type="curve" smooth="yes"/>
      <point x="370.34000000000003" y="84.67999999999999"/>
      <point x="306.14" y="86.67999999999999"/>
      <point x="219.92000000000002" y="91.96000000000001" type="curve"/>
      <point x="302.56" y="608.62" type="line"/>
      <point x="353.1" y="612.9"/>
      <point x="443.12" y="616.18"/>
      <point x="533.5" y="616.18" type="curve" smooth="yes"/>
      <point x="711.8000000000001" y="616.18"/>
      <point x="881.38" y="566.4399999999999"/>
      <point x="881.38" y="370.14" type="curve" smooth="yes"/>
      <point x="881.38" y="172.33999999999997"/>
      <point x="713.18" y="84.67999999999999"/>
    </contour>
  </outline>
</glyph>
<glyph name="E" format="2">
  <advance width="927.68"/>
  <unicode hex="0045"/>
  <anchor x="449.02" y="0.0" name="bottom"/>
  <anchor x="832.42" y="0.0" name="ogonek"/>
  <anchor x="545.1599999999999" y="700.0" name="top"/>
  <anchor x="104.1" y="700.0" name="topleft"/>
  <outline>
    <contour>
      <point x="65.48000000000002" y="0.0" type="line"/>
      <point x="832.42" y="0.0" type="line"/>
      <point x="850.9" y="110.16" type="line"/>
      <point x="219.06000000000003" y="110.16" type="line"/>
      <point x="251.12" y="312.94" type="line"/>
      <point x="825.0999999999999" y="312.94" type="line"/>
      <point x="842.72" y="419.65999999999997" type="line"/>
      <point x="267.74" y="419.65999999999997" type="line"/>
      <point x="294.82" y="589.8400000000001" type="line"/>
      <point x="899.6600000000001" y="589.8400000000001" type="line"/>
      <point x="918.14" y="700.0" type="line"/>
      <point x="178.20000000000002" y="700.0" type="line"/>
    </contour>
  </outline>
</glyph>
<glyph name="F" format="2">
  <advance width="882.2399999999999"/>
  <unicode hex="0046"/>
  <outline>
    <contour>
      <point x="65.48" y="0.0" type="line"/>
      <point x="204.88" y="0.0" type="line"/>
      <point x="245.28000000000003" y="244.66" type="line"/>
      <point x="774.52" y="244.66" type="line"/>
      <point x="791.14" y="354.82000000000005" type="line"/>
      <point x="262.76" y="354.82000000000005" type="line"/>
      <point x="299.12" y="589.84" type="line"/>
      <point x="896.22" y="589.84" type="line"/>
      <point x="914.6999999999999" y="700.0" type="line"/>
      <point x="178.20000000000002" y="700.0" type="line"/>
    </contour>
  </outline>
</glyph>
<glyph name="G" format="2">
  <advance width="1020.87"/>
  <unicode hex="0047"/>
  <anchor x="508.44" y="0.0" name="bottom"/>
  <anchor x="629.8299999999999" y="700.0" name="top"/>
  <outline>
    <contour>
      <point x="525.1" y="-10.0" type="curve" smooth="yes"/>
      <point x="696.9" y="-10.0"/>
      <point x="823.48" y="21.58"/>
      <point x="907.64" y="54.58" type="curve"/>
      <point x="957.6700000000001" y="360.17" type="line"/>
      <point x="562.34" y="360.17" type="line"/>
      <point x="547.73" y="270.22" type="line"/>
      <point x="819.57" y="270.22" type="line"/>
      <point x="796.47" y="125.63" type="line"/>
      <point x="739.83" y="101.95"/>
      <point x="656.65" y="85.53999999999999"/>
      <point x="554.9" y="85.53999999999999" type="curve" smooth="yes"/>
      <point x="358.02000000000004" y="85.53999999999999"/>
      <point x="215.35" y="158.75"/>
      <point x="215.35" y="316.02" type="curve" smooth="yes"/>
      <point x="215.35" y="506.13999999999993"/>
      <point x="371.48" y="607.15"/>
      <point x="628.99" y="607.15" type="curve" smooth="yes"/>
      <point x="744.41" y="607.15"/>
      <point x="829.9899999999999" y="594.1500000000001"/>
      <point x="933.1" y="567.6" type="curve"/>
      <point x="973.93" y="665.01" type="line"/>
      <point x="866.4499999999999" y="696.01"/>
      <point x="752.87" y="710.0"/>
      <point x="624.8199999999999" y="710.0" type="curve" smooth="yes"/>
      <point x="275.92" y="710.0"/>
      <point x="72.94" y="568.73"/>
      <point x="72.94" y="302.85" type="curve" smooth="yes"/>
      <point x="72.94" y="96.15"/>
      <point x="259.45000000000005" y="-10.0"/>
    </contour>
  </outline>
</glyph>
<glyph name="H" format="2">
  <advance width="1095.39"/>
  <unicode hex="0048"/>
  <anchor x="504.42400000000004" y="0.0" name="bottom"/>
  <anchor x="559.859" y="350.0" name="center"/>
  <anchor x="615.293" y="700.0" name="top"/>
  <anchor x="87.313" y="700.0" name="topleft"/>
  <outline>
    <contour>
      <point x="65.05" y="0.0" type="line"/>
      <point x="204.88" y="0.0" type="line"/>
      <point x="245.72" y="258.32" type="line"/>
      <point x="846.36" y="258.32" type="line"/>
      <point x="804.66" y="0.0" type="line"/>
      <point x="940.6199999999999" y="0.0" type="line"/>
      <point x="1053.34" y="700.0" type="line"/>
      <point x="917.81" y="700.0" type="line"/>
      <point x="863.98" y="368.47999999999996" type="line"/>
      <point x="263.34" y="368.47999999999996" type="line"/>
      <point x="317.6" y="700.0" type="line"/>
      <point x="177.77" y="700.0" type="line"/>
    </contour>
  </outline>
</glyph>
<glyph name="I" format="2">
  <advance width="359.65000000000003"/>
  <unicode hex="0049"/>
  <anchor x="136.36308" y="0.0" name="bottom"/>
  <anchor x="204.88000000000002" y="0.0" name="ogonek"/>
  <anchor x="247.28841" y="700.0" name="top"/>
  <anchor x="104.1" y="700.0" name="topleft"/>
  <outline>
    <contour>
      <point x="65.05" y="0.0" type="line"/>
      <point x="204.88" y="0.0" type="line"/>
      <point x="317.6" y="700.0" type="line"/>
      <point x="177.77" y="700.0" type="line"/>
    </contour>
  </outline>
</glyph>
<glyph name="J" format="2">
  <advance width="788.9"/>
  <unicode hex="004A"/>
  <anchor x="347.52000000000004" y="0.0" name="bottom"/>
  <anchor x="462.82" y="700.0" name="top"/>
  <outline>
    <contour>
      <point x="-10.59" y="39.71" type="line"/>
      <point x="80.24" y="12.12"/>
      <point x="182.19" y="-10.0"/>
      <point x="315.86" y="-10.0" type="curve" smooth="yes"/>
      <point x="527.87" y="-10.0"/>
      <point x="659.4" y="78.17"/>
      <point x="694.69" y="288.33" type="curve" smooth="yes"/>
      <point x="761.69" y="700.0" type="line"/>
      <point x="164.54999999999998" y="700.0" type="line"/>
      <point x="146.07000000000002" y="588.98" type="line"/>
      <point x="603.38" y="588.98" type="line"/>
      <point x="557.73" y="302.52000000000004" type="line" smooth="yes"/>
      <point x="534.61" y="154.95000000000002"/>
      <point x="436.45" y="97.15"/>
      <point x="305.53000000000003" y="97.15" type="curve" smooth="yes"/>
      <point x="194.35" y="97.15"/>
      <point x="113.47" y="121.13000000000001"/>
      <point x="25.799999999999997" y="146.14000000000001" type="curve"/>
    </contour>
  </outline>
</glyph>
<glyph name="K" format="2">
  <advance width="986.7799999999999"/>
  <unicode hex="004B"/>
  <anchor x="462.47999999999996" y="0.0" name="bottom"/>
  <anchor x="556.64" y="700.0" name="top"/>
  <outline>
    <contour>
      <point x="65.48" y="0.0" type="line"/>
      <point x="204.88" y="0.0" type="line"/>
      <point x="317.6" y="700.0" type="line"/>
      <point x="179.06" y="700.0" type="line"/>
    </contour>
    <contour>
      <point x="889.68" y="-10.0" type="curve" smooth="yes"/>
      <point x="896.12" y="-10.0"/>
      <point x="916.88" y="-9.14"/>
      <point x="924.46" y="-7.28" type="curve"/>
      <point x="940.94" y="103.6" type="line"/>
      <point x="933.5" y="103.6"/>
      <point x="926.9200000000001" y="103.6"/>
      <point x="920.34" y="103.6" type="curve" smooth="yes"/>
      <point x="855.36" y="103.6"/>
      <point x="806.5" y="128.58"/>
      <point x="710.68" y="187.1" type="curve" smooth="yes"/>
      <point x="255.12" y="465.44" type="line"/>
      <point x="237.5" y="343.96" type="line"/>
      <point x="617.28" y="100.62" type="line" smooth="yes"/>
      <point x="732.36" y="26.400000000000002"/>
      <point x="812.56" y="-10.0"/>
    </contour>
    <contour>
      <point x="451.06" y="304.91999999999996" type="line"/>
      <point x="615.48" y="353.32"/>
      <point x="869.16" y="483.74000000000007"/>
      <point x="999.3399999999999" y="635.22" type="curve"/>
      <point x="912.38" y="714.3000000000001" type="line"/>
      <point x="753.0" y="550.08"/>
      <point x="518.38" y="431.26"/>
      <point x="354.65999999999997" y="371.24" type="curve"/>
    </contour>
  </outline>
</glyph>
<glyph name="L" format="2">
  <advance width="844.7299999999999"/>
  <unicode hex="004C"/>
  <anchor x="420.59000000000003" y="0.0" name="bottom"/>
  <anchor x="434.529" y="350.0" name="center"/>
  <anchor x="247.4" y="700.0" name="top"/>
  <anchor x="599.2499999999999" y="700.0" name="topright"/>
  <outline>
    <contour>
      <point x="65.05000000000001" y="0.0" type="line"/>
      <point x="775.5600000000001" y="0.0" type="line"/>
      <point x="794.4699999999999" y="107.58" type="line"/>
      <point x="222.93" y="107.58" type="line"/>
      <point x="317.59999999999997" y="700.0" type="line"/>
      <point x="177.77" y="700.0" type="line"/>
    </contour>
  </outline>
</glyph>
<glyph name="M" format="2">
  <advance width="1219.57"/>
  <unicode hex="004D"/>
  <outline>
    <contour>
      <point x="65.05" y="0.0" type="line"/>
      <point x="197.84999999999997" y="0.0" type="line"/>
      <point x="282.49" y="539.26" type="line"/>
      <point x="567.22" y="205.70999999999998" type="line"/>
      <point x="627.68" y="205.70999999999998" type="line"/>
      <point x="1022.51" y="544.71" type="line"/>
      <point x="934.8599999999999" y="0.0" type="line"/>
      <point x="1064.8000000000002" y="0.0" type="line"/>
      <point x="1177.5200000000002" y="700.0" type="line"/>
      <point x="1034.11" y="700.0" type="line"/>
      <point x="613.07" y="325.18" type="line"/>
      <point x="312.29999999999995" y="700.0" type="line"/>
      <point x="177.77" y="700.0" type="line"/>
    </contour>
  </outline>
</glyph>
<glyph name="N" format="2">
  <advance width="1064.28"/>
  <unicode hex="004E"/>
  <anchor x="482.56092" y="0.0" name="bottom"/>
  <anchor x="600.91459" y="700.0" name="top"/>
  <outline>
    <contour>
      <point x="65.05" y="0.0" type="line"/>
      <point x="192.98000000000002" y="0.0" type="line"/>
      <point x="278.19" y="534.36" type="line"/>
      <point x="787.17" y="-5.7" type="line"/>
      <point x="907.94" y="-5.7" type="line"/>
      <point x="1022.23" y="700.0" type="line"/>
      <point x="894.3" y="700.0" type="line"/>
      <point x="807.37" y="156.47" type="line"/>
      <point x="300.11" y="705.7" type="line"/>
      <point x="179.34" y="705.7" type="line"/>
    </contour>
  </outline>
</glyph>
<glyph name="O" format="2">
  <advance width="1118.78"/>
  <unicode hex="004F"/>
  <note>
8
</note>
  <anchor x="515.02216" y="0.0" name="bottom"/>
  <anchor x="570.9430600000001" y="350.0" name="center"/>
  <anchor x="627.88" y="-0.8600000000000001" name="ogonek"/>
  <anchor x="610.9799999999999" y="700.0" name="top"/>
  <anchor x="91.84" y="700.0" name="topleft"/>
  <anchor x="925.26" y="667.62" name="topright"/>
  <outline>
    <contour>
      <point x="554.8000000000001" y="-10.0" type="curve" smooth="yes"/>
      <point x="880.6800000000001" y="-10.0"/>
      <point x="1067.12" y="132.11999999999998"/>
      <point x="1067.12" y="386.82000000000005" type="curve" smooth="yes"/>
      <point x="1067.12" y="596.12"/>
      <point x="915.7" y="710.86"/>
      <point x="587.12" y="710.86" type="curve" smooth="yes"/>
      <point x="261.24" y="710.86"/>
      <point x="74.8" y="568.74"/>
      <point x="74.8" y="314.04" type="curve" smooth="yes"/>
      <point x="74.8" y="104.74000000000001"/>
      <point x="226.22" y="-10.0"/>
    </contour>
    <contour>
      <point x="560.82" y="85.53999999999999" type="curve" smooth="yes"/>
      <point x="323.21999999999997" y="85.53999999999999"/>
      <point x="215.92000000000002" y="168.20000000000002"/>
      <point x="215.92000000000002" y="321.2" type="curve" smooth="yes"/>
      <point x="215.92000000000002" y="512.3000000000001"/>
      <point x="348.36" y="615.3199999999999"/>
      <point x="581.1" y="615.3199999999999" type="curve" smooth="yes"/>
      <point x="818.6999999999999" y="615.3199999999999"/>
      <point x="926.0" y="532.6600000000001"/>
      <point x="926.0" y="379.65999999999997" type="curve" smooth="yes"/>
      <point x="926.0" y="188.55999999999997"/>
      <point x="793.5600000000001" y="85.53999999999999"/>
    </contour>
  </outline>
</glyph>
<glyph name="P" format="2">
  <advance width="1009.7099999999998"/>
  <unicode hex="0050"/>
  <outline>
    <contour>
      <point x="65.05000000000001" y="0.0" type="line"/>
      <point x="204.45" y="0.0" type="line"/>
      <point x="239.72" y="214.31" type="line"/>
      <point x="357.66" y="210.31"/>
      <point x="416.15999999999997" y="208.74"/>
      <point x="504.31999999999994" y="208.74" type="curve" smooth="yes"/>
      <point x="864.61" y="208.74"/>
      <point x="993.48" y="287.44"/>
      <point x="994.62" y="488.51" type="curve" smooth="yes"/>
      <point x="995.19" y="656.99"/>
      <point x="871.3" y="710.0"/>
      <point x="559.62" y="710.0" type="curve" smooth="yes"/>
      <point x="502.9" y="710.0"/>
      <point x="408.93" y="707.57"/>
      <point x="178.20000000000002" y="700.0" type="curve"/>
    </contour>
    <contour>
      <point x="302.13" y="603.6" type="line"/>
      <point x="441.90000000000003" y="609.31"/>
      <point x="495.65000000000003" y="611.02"/>
      <point x="566.94" y="611.02" type="curve" smooth="yes"/>
      <point x="777.15" y="611.02"/>
      <point x="849.63" y="580.19"/>
      <point x="849.63" y="478.78000000000003" type="curve" smooth="yes"/>
      <point x="849.63" y="360.5"/>
      <point x="767.33" y="309.44"/>
      <point x="501.15000000000003" y="309.44" type="curve" smooth="yes"/>
      <point x="420.99" y="309.44"/>
      <point x="363.8" y="311.58000000000004"/>
      <point x="256.48" y="315.01" type="curve"/>
    </contour>
  </outline>
</glyph>
<glyph name="Q" format="2">
  <advance width="1115.34"/>
  <unicode hex="0051"/>
  <note>
14
</note>
  <outline>
    <contour>
      <point x="788.43" y="-216.56" type="curve" smooth="yes"/>
      <point x="844.26" y="-216.56"/>
      <point x="891.69" y="-204.43"/>
      <point x="938.85" y="-183.16" type="curve"/>
      <point x="934.2900000000001" y="-84.46000000000001" type="line"/>
      <point x="900.34" y="-102.57"/>
      <point x="867.38" y="-110.27"/>
      <point x="829.14" y="-110.27" type="curve" smooth="yes"/>
      <point x="746.5500000000001" y="-110.27"/>
      <point x="672.76" y="-55.51999999999999"/>
      <point x="641.9200000000001" y="18.65" type="curve"/>
      <point x="511.8400000000001" y="1.1599999999999993" type="line"/>
      <point x="560.4200000000001" y="-144.56"/>
      <point x="663.97" y="-216.56"/>
    </contour>
    <component base="O"/>
  </outline>
</glyph>
<glyph name="R" format="2">
  <advance width="1052.8799999999999"/>
  <unicode hex="0052"/>
  <anchor x="508.34" y="0.0" name="bottom"/>
  <anchor x="543.24" y="700.0" name="top"/>
  <outline>
    <contour>
      <point x="65.62" y="0.0" type="line"/>
      <point x="205.88" y="0.0" type="line"/>
      <point x="248.14" y="258.68" type="line"/>
      <point x="365.20000000000005" y="255.68"/>
      <point x="471.16" y="254.54"/>
      <point x="603.46" y="254.54" type="curve"/>
      <point x="652.0400000000001" y="256.26" type="line"/>
      <point x="861.16" y="257.12"/>
      <point x="980.48" y="358.08"/>
      <point x="980.48" y="508.65999999999997" type="curve" smooth="yes"/>
      <point x="980.48" y="643.78"/>
      <point x="885.1400000000001" y="710.0"/>
      <point x="552.8399999999999" y="710.0" type="curve" smooth="yes"/>
      <point x="457.08" y="710.0"/>
      <point x="347.80000000000007" y="708.0"/>
      <point x="178.34" y="701.14" type="curve"/>
    </contour>
    <contour>
      <point x="968.58" y="-10.0" type="curve" smooth="yes"/>
      <point x="975.02" y="-10.0"/>
      <point x="993.9199999999998" y="-10.0"/>
      <point x="1000.6399999999999" y="-9.0" type="curve"/>
      <point x="1015.8400000000001" y="102.02" type="line"/>
      <point x="1010.12" y="101.02"/>
      <point x="998.82" y="101.02"/>
      <point x="993.2400000000001" y="101.02" type="curve" smooth="yes"/>
      <point x="911.2800000000001" y="101.02"/>
      <point x="778.86" y="202.14"/>
      <point x="668.8" y="302.54" type="curve"/>
      <point x="514.94" y="272.44" type="line"/>
      <point x="672.74" y="137.07999999999998"/>
      <point x="826.04" y="-10.0"/>
    </contour>
    <contour>
      <point x="590.28" y="349.21999999999997" type="curve" smooth="yes"/>
      <point x="448.16" y="349.21999999999997"/>
      <point x="354.24" y="351.36"/>
      <point x="263.18" y="356.08" type="curve"/>
      <point x="302.7" y="609.9" type="line"/>
      <point x="412.96" y="615.04"/>
      <point x="444.62" y="616.18"/>
      <point x="546.4000000000001" y="616.18" type="curve" smooth="yes"/>
      <point x="775.4" y="616.18"/>
      <point x="833.2" y="585.78"/>
      <point x="833.2" y="496.48" type="curve" smooth="yes"/>
      <point x="833.2" y="391.0"/>
      <point x="739.22" y="349.21999999999997"/>
    </contour>
  </outline>
</glyph>
<glyph name="S" format="2">
  <advance width="938.84"/>
  <unicode hex="0053"/>
  <anchor x="448.0" y="0.0" name="bottom"/>
  <anchor x="537.2" y="700.0" name="top"/>
  <outline>
    <contour>
      <point x="892.2" y="665.3" type="line"/>
      <point x="767.18" y="696.8600000000001"/>
      <point x="673.4" y="710.0"/>
      <point x="554.22" y="710.0" type="curve" smooth="yes"/>
      <point x="249.68000000000004" y="710.0"/>
      <point x="103.34" y="633.7199999999999"/>
      <point x="103.34" y="492.94" type="curve" smooth="yes"/>
      <point x="103.34" y="212.28000000000003"/>
      <point x="733.36" y="357.52"/>
      <point x="733.36" y="194.20000000000002" type="curve" smooth="yes"/>
      <point x="733.36" y="130.18"/>
      <point x="651.58" y="87.26"/>
      <point x="471.56" y="87.26" type="curve" smooth="yes"/>
      <point x="326.64" y="87.26"/>
      <point x="167.66" y="118.12000000000002"/>
      <point x="42.03999999999999" y="158.84" type="curve"/>
      <point x="0.5000000000000033" y="57.14000000000001" type="line"/>
      <point x="134.06" y="16.580000000000002"/>
      <point x="289.52" y="-10.0"/>
      <point x="440.32" y="-10.0" type="curve" smooth="yes"/>
      <point x="756.7199999999999" y="-10.0"/>
      <point x="881.3599999999999" y="73.04"/>
      <point x="881.3599999999999" y="216.98" type="curve" smooth="yes"/>
      <point x="881.3599999999999" y="478.56"/>
      <point x="250.48000000000002" y="346.08"/>
      <point x="250.48000000000002" y="505.53999999999996" type="curve" smooth="yes"/>
      <point x="250.48000000000002" y="580.86"/>
      <point x="345.62" y="611.8799999999999"/>
      <point x="516.6800000000001" y="611.8799999999999" type="curve" smooth="yes"/>
      <point x="644.62" y="611.8799999999999"/>
      <point x="752.94" y="595.74"/>
      <point x="853.24" y="563.6" type="curve"/>
    </contour>
  </outline>
</glyph>
<glyph name="T" format="2">
  <advance width="872.8999999999999"/>
  <unicode hex="0054"/>
  <anchor x="392.45" y="0.0" name="bottom"/>
  <anchor x="448.38103" y="350.0" name="center"/>
  <anchor x="503.62841" y="700.0" name="top"/>
  <outline>
    <contour>
      <point x="906.54" y="598.8699999999999" type="line"/>
      <point x="925.02" y="700.0" type="line"/>
      <point x="84.89" y="700.0" type="line"/>
      <point x="65.98" y="598.8699999999999" type="line"/>
      <point x="417.06" y="598.8699999999999" type="line"/>
      <point x="322.39" y="0.0" type="line"/>
      <point x="462.21999999999997" y="0.0" type="line"/>
      <point x="556.46" y="598.8699999999999" type="line"/>
    </contour>
  </outline>
</glyph>
<glyph name="U" format="2">
  <advance width="1066.4199999999998"/>
  <unicode hex="0055"/>
  <anchor x="489.90092" y="0.0" name="bottom"/>
  <anchor x="589.6800000000001" y="0.0" name="ogonek"/>
  <anchor x="598.56459" y="700.0" name="top"/>
  <anchor x="1038.35" y="700.0" name="topright"/>
  <outline>
    <contour>
      <point x="486.41999999999996" y="-10.0" type="curve" smooth="yes"/>
      <point x="781.33" y="-10.0"/>
      <point x="940.49" y="87.57000000000001"/>
      <point x="972.7800000000001" y="286.3" type="curve" smooth="yes"/>
      <point x="1039.21" y="700.0" type="line"/>
      <point x="902.3900000000001" y="700.0" type="line"/>
      <point x="837.54" y="300.06" type="line" smooth="yes"/>
      <point x="815.85" y="163.21"/>
      <point x="703.5400000000001" y="94.14"/>
      <point x="504.47" y="94.14" type="curve" smooth="yes"/>
      <point x="312.52" y="94.14"/>
      <point x="213.76999999999998" y="167.06"/>
      <point x="235.32" y="301.77" type="curve" smooth="yes"/>
      <point x="299.89" y="700.0" type="line"/>
      <point x="163.07" y="700.0" type="line"/>
      <point x="97.21" y="292.0" type="line" smooth="yes"/>
      <point x="93.21000000000001" y="263.0"/>
      <point x="92.21000000000001" y="248.14"/>
      <point x="92.21000000000001" y="234.28000000000003" type="curve" smooth="yes"/>
      <point x="92.21000000000001" y="73.13000000000001"/>
      <point x="227.07" y="-10.0"/>
    </contour>
  </outline>
</glyph>
<glyph name="V" format="2">
  <advance width="907.5199999999999"/>
  <unicode hex="0056"/>
  <outline>
    <contour>
      <point x="470.56" y="0.0" type="line"/>
      <point x="876.9" y="508.54"/>
      <point x="943.52" y="610.5"/>
      <point x="953.8399999999999" y="678.14" type="curve" smooth="yes"/>
      <point x="954.7" y="686.0"/>
      <point x="954.5600000000001" y="694.14"/>
      <point x="954.28" y="700.0" type="curve"/>
      <point x="801.84" y="700.0" type="line"/>
      <point x="803.1199999999999" y="693.58"/>
      <point x="803.9799999999999" y="687.16"/>
      <point x="803.9799999999999" y="678.86" type="curve" smooth="yes"/>
      <point x="803.98" y="598.16"/>
      <point x="717.1200000000001" y="483.23999999999995"/>
      <point x="420.56" y="122.34" type="curve"/>
      <point x="217.7" y="706.6999999999999" type="line"/>
      <point x="69.97999999999999" y="701.14" type="line"/>
      <point x="331.02" y="0.0" type="line"/>
    </contour>
  </outline>
</glyph>
<glyph name="W" format="2">
  <advance width="1268.46"/>
  <unicode hex="0057"/>
  <anchor x="581.4399999999999" y="0.0" name="bottom"/>
  <anchor x="700.1800000000001" y="700.0" name="top"/>
  <outline>
    <contour>
      <point x="956.6800000000001" y="0.0" type="line"/>
      <point x="1226.8600000000001" y="418.6"/>
      <point x="1311.62" y="611.34"/>
      <point x="1311.62" y="684.4200000000001" type="curve" smooth="yes"/>
      <point x="1311.62" y="689.14"/>
      <point x="1310.7600000000002" y="696.72"/>
      <point x="1309.62" y="700.0" type="curve"/>
      <point x="1179.54" y="700.0" type="line"/>
      <point x="1179.6799999999998" y="694.2800000000001"/>
      <point x="1179.8200000000002" y="688.8399999999999"/>
      <point x="1178.96" y="679.98" type="curve" smooth="yes"/>
      <point x="1172.0800000000002" y="588.82"/>
      <point x="1117.8" y="471.98"/>
      <point x="892.0600000000002" y="110.0" type="curve"/>
      <point x="778.88" y="657.44" type="line"/>
      <point x="618.8399999999999" y="657.44" type="line"/>
      <point x="527.8199999999999" y="475.68"/>
      <point x="432.49999999999994" y="301.94"/>
      <point x="326.86" y="109.86" type="curve"/>
      <point x="212.1" y="700.0" type="line"/>
      <point x="71.56" y="700.0" type="line"/>
      <point x="227.14" y="0.0" type="line"/>
      <point x="373.42" y="0.0" type="line"/>
      <point x="476.48" y="171.29999999999998"/>
      <point x="582.98" y="347.04"/>
      <point x="680.02" y="522.6400000000001" type="curve"/>
      <point x="799.36" y="0.0" type="line"/>
    </contour>
  </outline>
</glyph>
<glyph name="X" format="2">
  <advance width="912.2"/>
  <unicode hex="0058"/>
  <outline>
    <contour>
      <point x="699.6800000000001" y="-4.56" type="line"/>
      <point x="864.9" y="3.2800000000000002" type="line"/>
      <point x="552.98" y="349.2" type="line"/>
      <point x="753.04" y="484.53999999999996"/>
      <point x="886.14" y="577.4599999999999"/>
      <point x="934.0999999999999" y="701.0" type="curve"/>
      <point x="771.0400000000001" y="705.7" type="line"/>
      <point x="731.9799999999999" y="596.1999999999999"/>
      <point x="638.4000000000001" y="533.64"/>
      <point x="493.4" y="434.58" type="curve"/>
      <point x="263.44" y="704.56" type="line"/>
      <point x="101.24" y="696.58" type="line"/>
      <point x="386.53999999999996" y="382.58" type="line"/>
      <point x="176.48000000000002" y="248.26000000000002"/>
      <point x="36.06" y="134.01999999999998"/>
      <point x="4.080000000000003" y="0.0" type="curve"/>
      <point x="166.12" y="0.0" type="line"/>
      <point x="196.5" y="119.98000000000002"/>
      <point x="294.84" y="201.44"/>
      <point x="444.4" y="295.47999999999996" type="curve"/>
    </contour>
  </outline>
</glyph>
<glyph name="Y" format="2">
  <advance width="865.88"/>
  <unicode hex="0059"/>
  <anchor x="383.8" y="0.0" name="bottom"/>
  <anchor x="507.08" y="700.0" name="top"/>
  <anchor x="75.86" y="700.0" name="topleft"/>
  <outline>
    <contour>
      <point x="333.74" y="0.0" type="line"/>
      <point x="471.42" y="0.0" type="line"/>
      <point x="517.26" y="268.18" type="line"/>
      <point x="798.14" y="507.62"/>
      <point x="869.54" y="581.1800000000001"/>
      <point x="905.3599999999999" y="665.16" type="curve" smooth="yes"/>
      <point x="910.64" y="676.44"/>
      <point x="914.92" y="687.72"/>
      <point x="919.0600000000001" y="700.0" type="curve"/>
      <point x="770.4799999999999" y="705.56" type="line"/>
      <point x="766.1999999999999" y="692.14"/>
      <point x="761.78" y="680.72"/>
      <point x="756.3600000000001" y="668.3" type="curve" smooth="yes"/>
      <point x="719.2399999999999" y="579.8399999999999"/>
      <point x="663.28" y="526.9"/>
      <point x="454.94" y="359.71999999999997" type="curve"/>
      <point x="213.58" y="705.6999999999999" type="line"/>
      <point x="63.56" y="698.72" type="line"/>
      <point x="377.71999999999997" y="268.18" type="line"/>
    </contour>
  </outline>
</glyph>
<glyph name="Z" format="2">
  <advance width="903.44"/>
  <unicode hex="005A"/>
  <anchor x="412.92" y="0.0" name="bottom"/>
  <anchor x="461.08000000000004" y="350.0" name="center"/>
  <anchor x="511.64" y="700.0" name="top"/>
  <outline>
    <contour>
      <point x="-5.579999999999999" y="0.0" type="line"/>
      <point x="830.56" y="0.0" type="line"/>
      <point x="846.46" y="98.11999999999999" type="line"/>
      <point x="208.86" y="98.11999999999999" type="line"/>
      <point x="891.98" y="612.76" type="line"/>
      <point x="906.0200000000001" y="700.0" type="line"/>
      <point x="139.11999999999998" y="700.0" type="line"/>
      <point x="123.22000000000001" y="601.88" type="line"/>
      <point x="697.74" y="601.88" type="line"/>
      <point x="8.46" y="87.24000000000001" type="line"/>
    </contour>
  </outline>
</glyph>
<glyph name="bracketleft" format="2">
  <advance width="477.2"/>
  <unicode hex="005B"/>
  <outline>
    <contour>
      <point x="167.6" y="-131.79999999999998" type="line"/>
      <point x="293.68" y="662.37" type="line"/>
      <point x="509.15000000000003" y="662.37" type="line"/>
      <point x="521.61" y="740.0" type="line"/>
      <point x="206.3" y="740.0" type="line"/>
      <point x="55.73" y="-210.0" type="line"/>
      <point x="370.61" y="-210.0" type="line"/>
      <point x="383.07" y="-131.79999999999998" type="line"/>
    </contour>
  </outline>
</glyph>
<glyph name="backslash" format="2">
  <advance width="478.12"/>
  <unicode hex="005C"/>
  <outline>
    <contour>
      <point x="184.63" y="740.0" type="line"/>
      <point x="89.38" y="740.0" type="line"/>
      <point x="318.34000000000003" y="-210.0" type="line"/>
      <point x="413.59000000000003" y="-210.0" type="line"/>
    </contour>
  </outline>
</glyph>
<glyph name="bracketright" format="2">
  <advance width="477.2"/>
  <unicode hex="005D"/>
  <outline>
    <contour>
      <point x="-34.379999999999995" y="-131.79999999999998" type="line"/>
      <point x="-46.41" y="-210.0" type="line"/>
      <point x="267.9" y="-210.0" type="line"/>
      <point x="418.9" y="740.0" type="line"/>
      <point x="103.59" y="740.0" type="line"/>
      <point x="91.13000000000001" y="661.8000000000001" type="line"/>
      <point x="306.59999999999997" y="661.8000000000001" type="line"/>
      <point x="180.51999999999998" y="-131.79999999999998" type="line"/>
    </contour>
  </outline>
</glyph>
<glyph name="asciicircum" format="2">
  <advance width="608.6099999999999"/>
  <unicode hex="005E"/>
  <outline>
    <contour>
      <point x="46.53" y="244.17999999999998" type="line"/>
      <point x="152.67000000000002" y="244.17999999999998" type="line"/>
      <point x="351.96" y="587.8199999999999" type="line"/>
      <point x="446.76" y="244.17999999999998" type="line"/>
      <point x="551.76" y="244.17999999999998" type="line"/>
      <point x="426.31" y="705.7" type="line"/>
      <point x="319.73" y="705.7" type="line"/>
    </contour>
  </outline>
</glyph>
<glyph name="underscore" format="2">
  <advance width="996.76"/>
  <unicode hex="005F"/>
  <outline>
    <contour>
      <point x="-48.449999999999996" y="-167.82" type="line"/>
      <point x="904.8900000000001" y="-167.82" type="line"/>
      <point x="918.21" y="-85.32" type="line"/>
      <point x="-35.13" y="-85.32" type="line"/>
    </contour>
  </outline>
</glyph>
<glyph name="a" format="2">
  <advance width="836.01"/>
  <unicode hex="0061"/>
  <note>
15
</note>
  <anchor x="364.72092000000004" y="0.0" name="bottom"/>
  <anchor x="786.6" y="1.7199999999999998" name="ogonek"/>
  <anchor x="458.21" y="538.6" name="top"/>
  <outline>
    <contour>
      <point x="707.7600000000001" y="-10.0" type="curve" smooth="yes"/>
      <point x="735.2299999999999" y="-10.0"/>
      <point x="766.86" y="-5.85"/>
      <point x="787.17" y="0.009999999999999787" type="curve"/>
      <point x="786.03" y="90.11" type="line"/>
      <point x="777.75" y="87.4"/>
      <point x="766.61" y="85.83"/>
      <point x="756.48" y="85.83" type="curve" smooth="yes"/>
      <point x="726.66" y="85.83"/>
      <point x="713.54" y="103.52000000000001"/>
      <point x="713.54" y="137.89" type="curve" smooth="yes"/>
      <point x="713.54" y="147.04"/>
      <point x="738.5" y="303.36"/>
      <point x="771.23" y="505.03" type="curve"/>
      <point x="704.78" y="530.45"/>
      <point x="579.21" y="548.6"/>
      <point x="467.82" y="548.6" type="curve" smooth="yes"/>
      <point x="209.23000000000002" y="548.6"/>
      <point x="42.39" y="432.94"/>
      <point x="42.39" y="218.59" type="curve" smooth="yes"/>
      <point x="42.39" y="65.55"/>
      <point x="148.98999999999998" y="-10.0"/>
      <point x="307.39" y="-10.0" type="curve" smooth="yes"/>
      <point x="404.38" y="-10.0"/>
      <point x="509.47" y="23.56"/>
      <point x="584.31" y="73.11" type="curve"/>
      <point x="600.65" y="22.28"/>
      <point x="652.16" y="-10.0"/>
    </contour>
    <contour>
      <point x="580.16" y="150.73" type="line"/>
      <point x="518.08" y="112.78999999999999"/>
      <point x="431.46000000000004" y="85.11"/>
      <point x="357.53999999999996" y="85.11" type="curve" smooth="yes"/>
      <point x="245.84" y="85.11"/>
      <point x="175.91" y="140.04000000000002"/>
      <point x="175.91" y="238.36" type="curve" smooth="yes"/>
      <point x="175.91" y="370.78"/>
      <point x="293.76" y="459.65"/>
      <point x="463.7" y="459.65" type="curve" smooth="yes"/>
      <point x="526.34" y="459.65"/>
      <point x="583.14" y="450.95"/>
      <point x="625.25" y="432.83" type="curve"/>
    </contour>
  </outline>
</glyph>
<glyph name="b" format="2">
  <advance width="827.4200000000001"/>
  <unicode hex="0062"/>
  <note>
12
</note>
  <outline>
    <contour>
      <point x="303.0" y="740.0" type="line"/>
      <point x="169.62" y="740.0" type="line"/>
      <point x="55.61999999999999" y="21.86" type="line"/>
      <point x="135.8" y="6.720000000000001"/>
      <point x="240.32000000000002" y="-10.0"/>
      <point x="354.40000000000003" y="-10.0" type="curve" smooth="yes"/>
      <point x="587.4699999999999" y="-10.0"/>
      <point x="784.7499999999999" y="89.94999999999999"/>
      <point x="784.75" y="330.3" type="curve" smooth="yes"/>
      <point x="784.75" y="458.73"/>
      <point x="708.62" y="548.6"/>
      <point x="553.91" y="548.6" type="curve" smooth="yes"/>
      <point x="445.82" y="548.6"/>
      <point x="353.71000000000004" y="507.79"/>
      <point x="255.3" y="445.10999999999996" type="curve"/>
    </contour>
    <contour>
      <point x="489.14000000000004" y="449.61999999999995" type="curve" smooth="yes"/>
      <point x="594.28" y="449.61999999999995"/>
      <point x="650.94" y="395.42"/>
      <point x="650.94" y="304.51" type="curve" smooth="yes"/>
      <point x="650.94" y="154.98000000000002"/>
      <point x="514.4" y="75.65"/>
      <point x="369.73" y="75.65" type="curve" smooth="yes"/>
      <point x="302.66" y="75.65"/>
      <point x="242.85999999999999" y="87.35"/>
      <point x="201.03" y="97.49000000000001" type="curve"/>
      <point x="242.83999999999997" y="361.77000000000004" type="line"/>
      <point x="334.0" y="420.37"/>
      <point x="411.08" y="449.61999999999995"/>
    </contour>
  </outline>
</glyph>
<glyph name="c" format="2">
  <advance width="766.9399999999999"/>
  <unicode hex="0063"/>
  <note>
10
</note>
  <anchor x="408.2" y="0.0" name="bottom"/>
  <anchor x="478.59999999999997" y="538.6" name="top"/>
  <outline>
    <contour>
      <point x="385.85999999999996" y="-10.0" type="curve" smooth="yes"/>
      <point x="498.98" y="-10.0"/>
      <point x="601.62" y="2.9800000000000004"/>
      <point x="689.8199999999999" y="29.279999999999994" type="curve"/>
      <point x="685.68" y="116.08" type="line"/>
      <point x="596.48" y="95.8"/>
      <point x="521.48" y="80.38"/>
      <point x="419.82" y="80.38" type="curve" smooth="yes"/>
      <point x="272.66" y="80.38"/>
      <point x="184.06" y="140.71999999999997"/>
      <point x="184.06" y="250.24" type="curve" smooth="yes"/>
      <point x="184.06" y="379.88"/>
      <point x="292.04" y="458.22"/>
      <point x="470.88" y="458.22" type="curve" smooth="yes"/>
      <point x="546.28" y="458.22"/>
      <point x="631.28" y="448.65999999999997"/>
      <point x="724.6" y="426.23999999999995" type="curve"/>
      <point x="754.68" y="515.04" type="line"/>
      <point x="671.5400000000001" y="537.46"/>
      <point x="571.3399999999999" y="548.6"/>
      <point x="476.46" y="548.6" type="curve" smooth="yes"/>
      <point x="203.5" y="548.6"/>
      <point x="48.1" y="437.74"/>
      <point x="48.1" y="239.34" type="curve" smooth="yes"/>
      <point x="48.1" y="81.27999999999999"/>
      <point x="162.78" y="-10.0"/>
    </contour>
  </outline>
</glyph>
<glyph name="d" format="2">
  <advance width="843.14"/>
  <unicode hex="0064"/>
  <note>
17
</note>
  <anchor x="371.41999999999996" y="0.0" name="bottom"/>
  <anchor x="418.21999999999997" y="275.0" name="center"/>
  <anchor x="490.18" y="740.0" name="top"/>
  <anchor x="887.24" y="740.0" name="topright"/>
  <outline>
    <contour>
      <point x="709.9" y="-10.0" type="curve" smooth="yes"/>
      <point x="734.52" y="-10.0"/>
      <point x="765.5799999999999" y="-6.279999999999999"/>
      <point x="786.6" y="0.4399999999999998" type="curve"/>
      <point x="784.18" y="90.54" type="line"/>
      <point x="775.9" y="87.4"/>
      <point x="764.76" y="86.26"/>
      <point x="754.2" y="86.26" type="curve" smooth="yes"/>
      <point x="726.38" y="86.26"/>
      <point x="711.26" y="102.66"/>
      <point x="711.26" y="132.76" type="curve" smooth="yes"/>
      <point x="711.26" y="143.06"/>
      <point x="805.9399999999999" y="740.0"/>
      <point x="805.94" y="740.0" type="curve"/>
      <point x="674.2799999999999" y="740.0" type="line"/>
      <point x="640.0" y="528.6199999999999" type="line"/>
      <point x="593.7399999999999" y="538.04"/>
      <point x="533.18" y="548.6"/>
      <point x="455.8" y="548.6" type="curve" smooth="yes"/>
      <point x="225.82" y="548.6"/>
      <point x="42.82" y="441.52"/>
      <point x="42.82" y="217.29999999999998" type="curve" smooth="yes"/>
      <point x="42.82" y="63.42000000000001"/>
      <point x="155.84" y="-10.0"/>
      <point x="303.4" y="-10.0" type="curve" smooth="yes"/>
      <point x="400.96" y="-10.0"/>
      <point x="512.1800000000001" y="23.560000000000002"/>
      <point x="581.46" y="66.84" type="curve"/>
      <point x="598.8" y="19.86"/>
      <point x="651.02" y="-10.0"/>
    </contour>
    <contour>
      <point x="352.84000000000003" y="85.54000000000002" type="curve" smooth="yes"/>
      <point x="251.4" y="85.54000000000002"/>
      <point x="176.34" y="137.62"/>
      <point x="176.34" y="239.5" type="curve" smooth="yes"/>
      <point x="176.34" y="373.06"/>
      <point x="299.46" y="460.08"/>
      <point x="460.28" y="460.08" type="curve" smooth="yes"/>
      <point x="530.9000000000001" y="460.08"/>
      <point x="584.2800000000001" y="449.24"/>
      <point x="625.8199999999999" y="439.09999999999997" type="curve"/>
      <point x="579.02" y="144.45999999999998" type="line"/>
      <point x="515.8" y="110.94"/>
      <point x="428.03999999999996" y="85.54000000000002"/>
    </contour>
  </outline>
</glyph>
<glyph name="e" format="2">
  <advance width="785.66"/>
  <unicode hex="0065"/>
  <note>
14 points
</note>
  <anchor x="371.84000000000003" y="0.0" name="bottom"/>
  <anchor x="605.8000000000001" y="13.86" name="ogonek"/>
  <anchor x="464.12" y="538.6" name="top"/>
  <outline>
    <contour>
      <point x="160.56" y="314.68" type="curve"/>
      <point x="166.01999999999998" y="234.04" type="line"/>
      <point x="226.12" y="226.78"/>
      <point x="303.34000000000003" y="221.94"/>
      <point x="388.04" y="222.79999999999998" type="curve" smooth="yes"/>
      <point x="626.0" y="224.52000000000004"/>
      <point x="750.98" y="279.12"/>
      <point x="750.98" y="387.98" type="curve" smooth="yes"/>
      <point x="750.98" y="490.58"/>
      <point x="637.8" y="548.6"/>
      <point x="461.59999999999997" y="548.6" type="curve" smooth="yes"/>
      <point x="195.22" y="548.6"/>
      <point x="46.38" y="418.7"/>
      <point x="46.38" y="235.17999999999998" type="curve" smooth="yes"/>
      <point x="46.38" y="83.28"/>
      <point x="175.70000000000002" y="-10.0"/>
      <point x="384.64000000000004" y="-10.0" type="curve" smooth="yes"/>
      <point x="493.94" y="-10.0"/>
      <point x="600.9399999999999" y="7.840000000000001"/>
      <point x="699.24" y="39.24" type="curve"/>
      <point x="687.22" y="126.89999999999999" type="line"/>
      <point x="584.5" y="93.64"/>
      <point x="485.36" y="77.8"/>
      <point x="412.3" y="77.8" type="curve" smooth="yes"/>
      <point x="247.04" y="77.8"/>
      <point x="179.76" y="136.42"/>
      <point x="179.76" y="239.48" type="curve" smooth="yes"/>
      <point x="179.76" y="378.18"/>
      <point x="289.92" y="464.24"/>
      <point x="450.28000000000003" y="464.24" type="curve" smooth="yes"/>
      <point x="552.26" y="464.24"/>
      <point x="611.5799999999999" y="433.72"/>
      <point x="611.5799999999999" y="378.1" type="curve" smooth="yes"/>
      <point x="611.5799999999999" y="324.8"/>
      <point x="516.26" y="302.86"/>
      <point x="346.74" y="302.0" type="curve" smooth="yes"/>
      <point x="278.96" y="301.14"/>
      <point x="213.2" y="304.7"/>
    </contour>
  </outline>
</glyph>
<glyph name="f" format="2">
  <advance width="533.8100000000001"/>
  <unicode hex="0066"/>
  <outline>
    <contour>
      <point x="37.47" y="-220.0" type="curve" smooth="yes"/>
      <point x="141.53" y="-220.0"/>
      <point x="203.75" y="-147.54"/>
      <point x="229.73999999999998" y="15.39" type="curve" smooth="yes"/>
      <point x="289.14" y="396.2" type="line"/>
      <point x="541.13" y="396.2" type="line"/>
      <point x="555.3100000000001" y="484.0" type="line"/>
      <point x="302.89" y="484.0" type="line"/>
      <point x="320.15" y="595.96"/>
      <point x="376.96" y="650.16"/>
      <point x="480.85" y="650.16" type="curve" smooth="yes"/>
      <point x="546.79" y="650.16"/>
      <point x="600.9499999999999" y="638.3100000000001"/>
      <point x="654.6" y="621.9" type="curve"/>
      <point x="684.6800000000001" y="714.29" type="line"/>
      <point x="615.42" y="738.14"/>
      <point x="544.1" y="750.0"/>
      <point x="472.52" y="750.0" type="curve" smooth="yes"/>
      <point x="298.01" y="750.0"/>
      <point x="197.07" y="662.83"/>
      <point x="169.8" y="484.0" type="curve"/>
      <point x="55.269999999999996" y="472.55" type="line"/>
      <point x="42.949999999999996" y="396.2" type="line"/>
      <point x="155.61999999999998" y="396.2" type="line"/>
      <point x="97.66" y="25.749999999999996" type="line" smooth="yes"/>
      <point x="80.69" y="-81.78"/>
      <point x="55.71" y="-122.16"/>
      <point x="1.2099999999999955" y="-122.16" type="curve" smooth="yes"/>
      <point x="-12.5" y="-122.16"/>
      <point x="-27.070000000000007" y="-119.59"/>
      <point x="-42.199999999999996" y="-114.31" type="curve"/>
      <point x="-64.54" y="-202.69" type="line"/>
      <point x="-32.36" y="-214.85"/>
      <point x="-1.4600000000000044" y="-220.0"/>
    </contour>
  </outline>
</glyph>
<glyph name="g" format="2">
  <advance width="828.4200000000001"/>
  <unicode hex="0067"/>
  <note>
16
</note>
  <anchor x="317.24" y="-215.70000000000002" name="bottom"/>
  <anchor x="462.08" y="538.6" name="top"/>
  <outline>
    <contour>
      <point x="11.38" y="-166.56" type="line"/>
      <point x="97.1" y="-197.56"/>
      <point x="208.55999999999997" y="-220.0"/>
      <point x="331.54" y="-220.0" type="curve" smooth="yes"/>
      <point x="551.0600000000001" y="-220.0"/>
      <point x="670.6600000000001" y="-114.39999999999999"/>
      <point x="701.38" y="80.92" type="curve" smooth="yes"/>
      <point x="768.6600000000001" y="506.46" type="line"/>
      <point x="707.94" y="529.16"/>
      <point x="576.76" y="548.6"/>
      <point x="483.3" y="548.6" type="curve" smooth="yes"/>
      <point x="179.16" y="548.6"/>
      <point x="42.82000000000001" y="412.58000000000004"/>
      <point x="42.82000000000001" y="219.76000000000002" type="curve" smooth="yes"/>
      <point x="42.82000000000001" y="81.74000000000001"/>
      <point x="145.1" y="8.06"/>
      <point x="304.93999999999994" y="8.06" type="curve" smooth="yes"/>
      <point x="377.46" y="8.06"/>
      <point x="491.88000000000005" y="38.18"/>
      <point x="569.14" y="86.16" type="curve"/>
      <point x="566.2800000000001" y="69.58" type="line" smooth="yes"/>
      <point x="545.58" y="-69.3"/>
      <point x="461.66" y="-128.9"/>
      <point x="312.2" y="-128.9" type="curve" smooth="yes"/>
      <point x="221.18" y="-128.9"/>
      <point x="123.62" y="-108.04000000000002"/>
      <point x="42.74" y="-78.62" type="curve"/>
    </contour>
    <contour>
      <point x="624.68" y="437.55999999999995" type="curve"/>
      <point x="581.88" y="166.06" type="line"/>
      <point x="516.6400000000001" y="129.4"/>
      <point x="424.47999999999996" y="101.02"/>
      <point x="361.97999999999996" y="101.02" type="curve" smooth="yes"/>
      <point x="246.39999999999998" y="101.02"/>
      <point x="177.2" y="148.78"/>
      <point x="177.2" y="239.82" type="curve" smooth="yes"/>
      <point x="177.2" y="371.92"/>
      <point x="282.76000000000005" y="463.38"/>
      <point x="465.4" y="463.38" type="curve" smooth="yes"/>
      <point x="543.32" y="463.38"/>
      <point x="589.72" y="448.54"/>
    </contour>
  </outline>
</glyph>
<glyph name="h" format="2">
  <advance width="839.46"/>
  <unicode hex="0068"/>
  <note>
16
</note>
  <anchor x="394.58" y="0.0" name="bottom"/>
  <anchor x="440.88" y="381.18" name="center"/>
  <anchor x="489.41999999999996" y="740.0" name="top"/>
  <outline>
    <contour>
      <point x="721.86" y="129.2" type="curve" smooth="yes"/>
      <point x="721.86" y="174.17999999999998"/>
      <point x="755.84" y="325.5"/>
      <point x="755.84" y="387.88" type="curve" smooth="yes"/>
      <point x="755.84" y="482.0"/>
      <point x="695.7000000000002" y="548.6"/>
      <point x="559.38" y="548.6" type="curve" smooth="yes"/>
      <point x="450.18" y="548.6"/>
      <point x="366.53999999999996" y="513.22"/>
      <point x="258.29999999999995" y="462.37999999999994" type="curve"/>
      <point x="302.14" y="740.0" type="line"/>
      <point x="169.62" y="740.0" type="line"/>
      <point x="51.76" y="0.0" type="line"/>
      <point x="185.14" y="0.0" type="line"/>
      <point x="244.98" y="377.46" type="line"/>
      <point x="334.56" y="419.68"/>
      <point x="408.47999999999996" y="451.34"/>
      <point x="497.03999999999996" y="451.34" type="curve" smooth="yes"/>
      <point x="582.78" y="451.34"/>
      <point x="618.0200000000001" y="412.68"/>
      <point x="618.0200000000001" y="351.90000000000003" type="curve" smooth="yes"/>
      <point x="618.0200000000001" y="285.14"/>
      <point x="585.0400000000001" y="135.48"/>
      <point x="585.0400000000001" y="93.52" type="curve" smooth="yes"/>
      <point x="585.0400000000001" y="23.599999999999998"/>
      <point x="638.26" y="-10.0"/>
      <point x="710.7800000000001" y="-10.0" type="curve" smooth="yes"/>
      <point x="738.4" y="-10.0"/>
      <point x="775.74" y="-7.14"/>
      <point x="799.48" y="-1.0000000000000002" type="curve"/>
      <point x="797.1999999999999" y="91.82" type="line"/>
      <point x="787.64" y="88.53999999999999"/>
      <point x="773.0800000000002" y="86.39999999999999"/>
      <point x="761.38" y="86.39999999999999" type="curve" smooth="yes"/>
      <point x="737.1199999999999" y="86.39999999999999"/>
      <point x="721.86" y="102.10000000000001"/>
    </contour>
  </outline>
</glyph>
<glyph name="i" format="2">
  <advance width="325.05"/>
  <unicode hex="0069"/>
  <note>
Ajuster pts sur points
8
</note>
  <anchor x="118.43092" y="0.0" name="bottom"/>
  <anchor x="185.42999999999998" y="0.0" name="ogonek"/>
  <anchor x="204.33908000000002" y="538.6" name="top"/>
  <outline>
    <contour>
      <point x="52.05" y="0.0" type="line"/>
      <point x="185.42999999999998" y="0.0" type="line"/>
      <point x="270.29" y="538.6" type="line"/>
      <point x="137.77" y="538.6" type="line"/>
    </contour>
    <contour>
      <point x="235.54" y="744.4" type="curve" smooth="yes"/>
      <point x="173.51999999999998" y="744.4"/>
      <point x="144.01000000000002" y="726.77"/>
      <point x="143.44" y="674.97" type="curve" smooth="yes"/>
      <point x="143.44" y="646.04"/>
      <point x="166.21" y="630.42"/>
      <point x="215.07" y="630.42" type="curve" smooth="yes"/>
      <point x="267.9" y="630.42"/>
      <point x="306.74" y="642.03"/>
      <point x="307.88000000000005" y="700.8499999999999" type="curve" smooth="yes"/>
      <point x="307.88" y="728.78"/>
      <point x="286.82" y="744.4"/>
    </contour>
  </outline>
</glyph>
<glyph name="j" format="2">
  <advance width="340.22999999999996"/>
  <unicode hex="006A"/>
  <note>
idem /i
12
</note>
  <outline>
    <contour>
      <point x="251.14999999999998" y="744.4" type="curve" smooth="yes"/>
      <point x="188.7" y="744.4"/>
      <point x="160.76000000000002" y="726.77"/>
      <point x="160.19" y="674.97" type="curve" smooth="yes"/>
      <point x="160.19" y="646.04"/>
      <point x="182.25000000000003" y="630.42"/>
      <point x="231.11" y="630.42" type="curve" smooth="yes"/>
      <point x="282.23" y="630.42"/>
      <point x="321.21" y="642.03"/>
      <point x="322.34999999999997" y="700.8499999999999" type="curve" smooth="yes"/>
      <point x="322.35" y="728.78"/>
      <point x="302.43" y="744.4"/>
    </contour>
    <contour>
      <point x="286.33" y="538.6" type="line"/>
      <point x="153.38" y="538.6" type="line"/>
      <point x="65.83" y="-17.84" type="line" smooth="yes"/>
      <point x="55.269999999999996" y="-85.63"/>
      <point x="34.010000000000005" y="-122.16"/>
      <point x="-16.240000000000002" y="-122.16" type="curve" smooth="yes"/>
      <point x="-28.229999999999997" y="-122.16"/>
      <point x="-46.790000000000006" y="-120.59"/>
      <point x="-65.05" y="-113.46000000000001" type="curve"/>
      <point x="-89.83" y="-207.85999999999999" type="line"/>
      <point x="-58.36" y="-216.57"/>
      <point x="-14.199999999999998" y="-220.0"/>
      <point x="4.110000000000001" y="-220.0" type="curve" smooth="yes"/>
      <point x="125.42000000000002" y="-220.0"/>
      <point x="178.48" y="-143.21"/>
      <point x="199.93" y="-6.93" type="curve" smooth="yes"/>
    </contour>
  </outline>
</glyph>
<glyph name="l" format="2">
  <advance width="408.81"/>
  <unicode hex="006C"/>
  <anchor x="216.18" y="0.0" name="bottom"/>
  <anchor x="202.75257999999997" y="380.75" name="center"/>
  <anchor x="236.38" y="740.0" name="top"/>
  <anchor x="384.44" y="740.0" name="topright"/>
  <outline>
    <contour>
      <point x="169.62" y="740.0" type="line"/>
      <point x="83.21" y="196.69" type="line" smooth="yes"/>
      <point x="79.92" y="174.65999999999997"/>
      <point x="75.92" y="146.37"/>
      <point x="75.92" y="121.08000000000001" type="curve" smooth="yes"/>
      <point x="75.92" y="37.42"/>
      <point x="118.82000000000001" y="-10.0"/>
      <point x="217.17" y="-10.0" type="curve" smooth="yes"/>
      <point x="274.38000000000005" y="-10.0"/>
      <point x="326.88" y="-0.5600000000000003"/>
      <point x="374.52" y="12.459999999999999" type="curve"/>
      <point x="371.67" y="110.15" type="line"/>
      <point x="337.79" y="102.28999999999999"/>
      <point x="312.08" y="96.72"/>
      <point x="282.52000000000004" y="96.72" type="curve" smooth="yes"/>
      <point x="229.45000000000002" y="96.72"/>
      <point x="213.74" y="127.66"/>
      <point x="213.74" y="160.06" type="curve" smooth="yes"/>
      <point x="213.74" y="178.17000000000002"/>
      <point x="216.01999999999998" y="194.42999999999998"/>
      <point x="218.01999999999998" y="204.43" type="curve" smooth="yes"/>
      <point x="303.14" y="740.0" type="line"/>
    </contour>
  </outline>
</glyph>
<glyph name="m" format="2">
  <advance width="1248.4"/>
  <unicode hex="006D"/>
  <note>
24&gt;23 points
un point de trop dans la jointure avec 2e jambage
</note>
  <outline>
    <contour>
      <point x="1119.29" y="-10.0" type="curve" smooth="yes"/>
      <point x="1147.3400000000001" y="-10.0"/>
      <point x="1184.25" y="-7.14"/>
      <point x="1208.42" y="-0.5700000000000003" type="curve"/>
      <point x="1206.1399999999999" y="91.82" type="line"/>
      <point x="1196.15" y="88.53999999999999"/>
      <point x="1181.59" y="86.39999999999999"/>
      <point x="1169.89" y="86.39999999999999" type="curve" smooth="yes"/>
      <point x="1146.06" y="86.39999999999999"/>
      <point x="1131.3700000000001" y="101.10000000000001"/>
      <point x="1131.3700000000001" y="128.63" type="curve" smooth="yes"/>
      <point x="1131.3700000000001" y="173.61"/>
      <point x="1165.35" y="325.5"/>
      <point x="1165.35" y="387.45000000000005" type="curve" smooth="yes"/>
      <point x="1165.35" y="482.0"/>
      <point x="1102.0600000000002" y="548.6"/>
      <point x="966.1700000000001" y="548.6" type="curve" smooth="yes"/>
      <point x="857.0600000000001" y="548.6"/>
      <point x="780.99" y="506.48999999999995"/>
      <point x="686.29" y="450.49" type="curve"/>
      <point x="667.0" y="508.18000000000006"/>
      <point x="618.3" y="548.6"/>
      <point x="519.44" y="548.6" type="curve" smooth="yes"/>
      <point x="428.64" y="548.6"/>
      <point x="344.39000000000004" y="512.0600000000001"/>
      <point x="246.11" y="457.5" type="curve"/>
      <point x="257.82" y="538.6" type="line"/>
      <point x="137.34" y="538.6" type="line"/>
      <point x="52.620000000000005" y="0.0" type="line"/>
      <point x="185.57" y="0.0" type="line"/>
      <point x="245.98" y="381.9" type="line"/>
      <point x="323.14" y="424.82"/>
      <point x="384.46999999999997" y="451.34"/>
      <point x="447.93" y="451.34" type="curve" smooth="yes"/>
      <point x="536.9399999999999" y="451.34"/>
      <point x="565.2099999999999" y="402.7"/>
      <point x="565.2099999999999" y="340.76000000000005" type="curve" smooth="yes"/>
      <point x="565.2099999999999" y="323.61"/>
      <point x="552.89" y="242.82999999999998"/>
      <point x="516.7900000000001" y="0.0" type="curve"/>
      <point x="648.02" y="0.0" type="line"/>
      <point x="682.83" y="232.95"/>
      <point x="690.85" y="289.06"/>
      <point x="697.7299999999999" y="340.75" type="curve" smooth="yes"/>
      <point x="698.16" y="350.31"/>
      <point x="699.31" y="369.76"/>
      <point x="698.6" y="378.46000000000004" type="curve"/>
      <point x="770.78" y="421.11"/>
      <point x="832.82" y="450.05"/>
      <point x="905.69" y="450.05" type="curve" smooth="yes"/>
      <point x="993.0" y="450.05"/>
      <point x="1026.1" y="409.96000000000004"/>
      <point x="1026.1" y="345.9" type="curve" smooth="yes"/>
      <point x="1026.1" y="282.85"/>
      <point x="994.1199999999999" y="136.34"/>
      <point x="994.1199999999999" y="93.52" type="curve" smooth="yes"/>
      <point x="994.1199999999999" y="23.6"/>
      <point x="1047.2" y="-10.0"/>
    </contour>
  </outline>
</glyph>
<glyph name="n" format="2">
  <advance width="840.32"/>
  <unicode hex="006E"/>
  <note>
16
</note>
  <anchor x="394.28999999999996" y="0.0" name="bottom"/>
  <anchor x="451.46" y="538.6" name="top"/>
  <outline>
    <contour>
      <point x="137.34" y="538.6" type="line"/>
      <point x="52.620000000000005" y="0.0" type="line"/>
      <point x="185.14" y="0.0" type="line"/>
      <point x="245.41" y="377.46" type="line"/>
      <point x="334.53999999999996" y="419.67"/>
      <point x="408.05" y="451.34"/>
      <point x="497.47" y="451.34" type="curve" smooth="yes"/>
      <point x="581.78" y="451.34"/>
      <point x="617.88" y="412.97"/>
      <point x="617.88" y="348.05" type="curve" smooth="yes"/>
      <point x="617.88" y="282.84999999999997"/>
      <point x="585.47" y="140.64000000000001"/>
      <point x="585.47" y="93.52" type="curve" smooth="yes"/>
      <point x="585.47" y="23.599999999999998"/>
      <point x="639.12" y="-10.0"/>
      <point x="711.2099999999999" y="-10.0" type="curve" smooth="yes"/>
      <point x="739.26" y="-10.0"/>
      <point x="776.17" y="-7.14"/>
      <point x="800.34" y="-0.5700000000000003" type="curve"/>
      <point x="798.06" y="91.82" type="line"/>
      <point x="788.0699999999999" y="88.53999999999999"/>
      <point x="773.51" y="86.39999999999999"/>
      <point x="761.81" y="86.39999999999999" type="curve" smooth="yes"/>
      <point x="737.98" y="86.39999999999999"/>
      <point x="722.72" y="101.67"/>
      <point x="722.72" y="129.2" type="curve" smooth="yes"/>
      <point x="722.72" y="174.17999999999998"/>
      <point x="756.7" y="325.5"/>
      <point x="756.7" y="387.45" type="curve" smooth="yes"/>
      <point x="756.7" y="488.02"/>
      <point x="686.24" y="548.6"/>
      <point x="558.0899999999999" y="548.6" type="curve" smooth="yes"/>
      <point x="444.59" y="548.6"/>
      <point x="350.46000000000004" y="511.34"/>
      <point x="247.55" y="455.7900000000001" type="curve"/>
      <point x="260.40000000000003" y="538.6" type="line"/>
    </contour>
  </outline>
</glyph>
<glyph name="o" format="2">
  <advance width="837.88"/>
  <unicode hex="006F"/>
  <note>
8
</note>
  <anchor x="391.40000000000003" y="0.0" name="bottom"/>
  <anchor x="419.44" y="275.0" name="center"/>
  <anchor x="502.2" y="0.0" name="ogonek"/>
  <anchor x="444.74" y="538.6" name="top"/>
  <anchor x="623.38" y="534.3000000000001" name="topright"/>
  <outline>
    <contour>
      <point x="411.74" y="-10.0" type="curve" smooth="yes"/>
      <point x="654.62" y="-10.0"/>
      <point x="787.22" y="98.58000000000003"/>
      <point x="785.5" y="292.7" type="curve" smooth="yes"/>
      <point x="783.78" y="455.41999999999996"/>
      <point x="657.46" y="550.32"/>
      <point x="424.0" y="550.32" type="curve" smooth="yes"/>
      <point x="181.12" y="550.32"/>
      <point x="48.52" y="441.74"/>
      <point x="50.24" y="247.62" type="curve" smooth="yes"/>
      <point x="51.96" y="84.9"/>
      <point x="178.28" y="-10.0"/>
    </contour>
    <contour>
      <point x="412.6" y="74.36" type="curve" smooth="yes"/>
      <point x="263.65999999999997" y="74.36"/>
      <point x="183.62" y="132.44"/>
      <point x="183.62" y="258.8" type="curve" smooth="yes"/>
      <point x="183.62" y="391.18"/>
      <point x="263.36" y="465.96"/>
      <point x="423.14" y="465.96" type="curve" smooth="yes"/>
      <point x="572.0799999999999" y="465.96"/>
      <point x="652.12" y="408.74"/>
      <point x="652.12" y="282.38000000000005" type="curve" smooth="yes"/>
      <point x="652.12" y="149.99999999999997"/>
      <point x="572.38" y="74.36"/>
    </contour>
  </outline>
</glyph>
<glyph name="p" format="2">
  <advance width="828.42"/>
  <unicode hex="0070"/>
  <note>
14 point
</note>
  <outline>
    <contour>
      <point x="19.62" y="-210.0" type="line"/>
      <point x="151.70999999999998" y="-210.0" type="line"/>
      <point x="187.27999999999997" y="9.55" type="line"/>
      <point x="231.39" y="0.1299999999999999"/>
      <point x="291.35999999999996" y="-10.0"/>
      <point x="360.73" y="-10.0" type="curve" smooth="yes"/>
      <point x="628.38" y="-10.0"/>
      <point x="784.75" y="114.25999999999999"/>
      <point x="784.75" y="329.45" type="curve" smooth="yes"/>
      <point x="784.75" y="463.72"/>
      <point x="704.63" y="548.6"/>
      <point x="554.62" y="548.6" type="curve" smooth="yes"/>
      <point x="437.65" y="548.6"/>
      <point x="347.25" y="507.93"/>
      <point x="243.69" y="443.96000000000004" type="curve"/>
      <point x="259.11" y="538.5999999999999" type="line"/>
      <point x="137.34" y="538.5999999999999" type="line"/>
    </contour>
    <contour>
      <point x="365.17" y="75.65" type="curve" smooth="yes"/>
      <point x="298.1" y="75.65"/>
      <point x="242.85999999999999" y="87.91999999999999"/>
      <point x="201.02999999999997" y="98.06" type="curve"/>
      <point x="242.26999999999998" y="361.2" type="line"/>
      <point x="328.87" y="417.52"/>
      <point x="409.37" y="449.61999999999995"/>
      <point x="489.14000000000004" y="449.61999999999995" type="curve" smooth="yes"/>
      <point x="590.2900000000001" y="449.61999999999995"/>
      <point x="650.94" y="400.55"/>
      <point x="650.94" y="302.23" type="curve" smooth="yes"/>
      <point x="650.94" y="162.95999999999998"/>
      <point x="526.37" y="75.65"/>
    </contour>
  </outline>
</glyph>
<glyph name="q" format="2">
  <advance width="828.85"/>
  <unicode hex="0071"/>
  <note>
12
</note>
  <outline>
    <contour>
      <point x="770.66" y="512.87" type="line"/>
      <point x="689.1899999999999" y="532.31"/>
      <point x="575.5000000000001" y="548.6"/>
      <point x="461.42" y="548.6" type="curve" smooth="yes"/>
      <point x="191.07000000000002" y="548.6"/>
      <point x="42.39" y="427.04999999999995"/>
      <point x="42.39" y="214.32000000000002" type="curve" smooth="yes"/>
      <point x="42.39" y="84.86"/>
      <point x="133.95" y="-10.0"/>
      <point x="296.13" y="-10.0" type="curve" smooth="yes"/>
      <point x="391.92999999999995" y="-10.0"/>
      <point x="474.87" y="21.69"/>
      <point x="570.41" y="87.22" type="curve"/>
      <point x="522.85" y="-210.0" type="line"/>
      <point x="655.37" y="-210.0" type="line"/>
    </contour>
    <contour>
      <point x="625.8199999999999" y="437.96" type="curve"/>
      <point x="582.44" y="165.55" type="line"/>
      <point x="496.41999999999996" y="108.8"/>
      <point x="421.77" y="85.11"/>
      <point x="345.00000000000006" y="85.11" type="curve" smooth="yes"/>
      <point x="247.55" y="85.11"/>
      <point x="175.91000000000003" y="140.04000000000002"/>
      <point x="175.91000000000003" y="234.37" type="curve" smooth="yes"/>
      <point x="175.91000000000003" y="374.20000000000005"/>
      <point x="287.49" y="459.08"/>
      <point x="459.71000000000004" y="459.08" type="curve" smooth="yes"/>
      <point x="524.63" y="459.08"/>
      <point x="584.28" y="448.1"/>
    </contour>
  </outline>
</glyph>
<glyph name="r" format="2">
  <advance width="596.49"/>
  <unicode hex="0072"/>
  <anchor x="115.8" y="0.0" name="bottom"/>
  <anchor x="369.15" y="538.6" name="top"/>
  <outline>
    <contour>
      <point x="256.39" y="538.6" type="line"/>
      <point x="138.20000000000002" y="538.6" type="line"/>
      <point x="52.19" y="0.0" type="line"/>
      <point x="185.0" y="0.0" type="line"/>
      <point x="240.70000000000002" y="348.04" type="line"/>
      <point x="332.60999999999996" y="416.21"/>
      <point x="408.52" y="441.02000000000004"/>
      <point x="475.16" y="441.02000000000004" type="curve" smooth="yes"/>
      <point x="512.44" y="441.02000000000004"/>
      <point x="552.13" y="434.45"/>
      <point x="588.14" y="424.88" type="curve"/>
      <point x="623.38" y="532.75" type="line"/>
      <point x="594.8" y="541.3199999999999"/>
      <point x="553.25" y="548.6"/>
      <point x="510.71000000000004" y="548.6" type="curve" smooth="yes"/>
      <point x="426.15999999999997" y="548.6"/>
      <point x="352.65000000000003" y="517.9000000000001"/>
      <point x="239.97" y="432.51" type="curve"/>
    </contour>
  </outline>
</glyph>
<glyph name="s" format="2">
  <advance width="691.06"/>
  <unicode hex="0073"/>
  <anchor x="327.86" y="0.0" name="bottom"/>
  <anchor x="389.82" y="538.6" name="top"/>
  <outline>
    <contour>
      <point x="1.3800000000000008" y="36.84" type="line"/>
      <point x="84.56" y="11.700000000000001"/>
      <point x="187.68" y="-10.0"/>
      <point x="307.94" y="-10.0" type="curve" smooth="yes"/>
      <point x="486.0" y="-10.0"/>
      <point x="633.56" y="30.659999999999997"/>
      <point x="633.56" y="167.38" type="curve" smooth="yes"/>
      <point x="633.56" y="363.21999999999997"/>
      <point x="199.56" y="273.74"/>
      <point x="199.56" y="388.40000000000003" type="curve" smooth="yes"/>
      <point x="199.56" y="433.15999999999997"/>
      <point x="260.88" y="465.1"/>
      <point x="379.65999999999997" y="465.1" type="curve" smooth="yes"/>
      <point x="460.04" y="465.1"/>
      <point x="550.4999999999999" y="451.82"/>
      <point x="615.92" y="430.68" type="curve"/>
      <point x="642.7" y="513.3199999999999" type="line"/>
      <point x="573.26" y="534.46"/>
      <point x="488.16" y="548.6"/>
      <point x="396.84" y="548.6" type="curve" smooth="yes"/>
      <point x="201.58" y="548.6"/>
      <point x="73.92" y="496.76"/>
      <point x="73.92" y="373.21999999999997" type="curve" smooth="yes"/>
      <point x="73.92" y="172.18"/>
      <point x="507.91999999999996" y="270.28"/>
      <point x="507.91999999999996" y="148.18" type="curve" smooth="yes"/>
      <point x="507.91999999999996" y="98.11999999999999"/>
      <point x="435.16" y="74.36"/>
      <point x="321.1" y="74.36" type="curve" smooth="yes"/>
      <point x="216.04000000000002" y="74.36"/>
      <point x="99.88000000000001" y="97.78"/>
      <point x="30.16" y="123.06" type="curve"/>
    </contour>
  </outline>
</glyph>
<glyph name="t" format="2">
  <advance width="575.7800000000001"/>
  <unicode hex="0074"/>
  <anchor x="292.97999999999996" y="0.0" name="bottom"/>
  <anchor x="284.18" y="275.0" name="center"/>
  <anchor x="271.13" y="665.0" name="top"/>
  <anchor x="506.31000000000006" y="792.85" name="topright"/>
  <outline>
    <contour>
      <point x="513.7900000000001" y="123.39000000000001" type="line"/>
      <point x="453.94" y="105.98"/>
      <point x="401.28" y="93.28"/>
      <point x="351.62" y="93.28" type="curve" smooth="yes"/>
      <point x="278.58" y="93.28"/>
      <point x="252.89" y="125.50999999999999"/>
      <point x="252.89" y="176.16" type="curve" smooth="yes"/>
      <point x="252.89" y="186.85999999999999"/>
      <point x="253.46" y="198.13"/>
      <point x="255.6" y="209.82999999999998" type="curve" smooth="yes"/>
      <point x="294.40999999999997" y="451.94" type="line"/>
      <point x="556.89" y="451.94" type="line"/>
      <point x="571.93" y="538.6" type="line"/>
      <point x="308.15999999999997" y="538.6" type="line"/>
      <point x="328.87" y="665.0" type="line"/>
      <point x="214.67" y="665.0" type="line"/>
      <point x="177.36" y="538.6" type="line"/>
      <point x="39.15" y="526.58" type="line"/>
      <point x="25.4" y="451.94" type="line"/>
      <point x="161.03" y="451.94" type="line"/>
      <point x="122.65" y="205.95999999999998" type="line" smooth="yes"/>
      <point x="118.78999999999999" y="182.79999999999998"/>
      <point x="116.78999999999999" y="159.08"/>
      <point x="116.78999999999999" y="142.49" type="curve" smooth="yes"/>
      <point x="116.78999999999999" y="29.72"/>
      <point x="184.68" y="-10.0"/>
      <point x="291.3" y="-10.0" type="curve" smooth="yes"/>
      <point x="359.06" y="-10.0"/>
      <point x="431.76" y="1.86"/>
      <point x="514.2" y="27.130000000000003" type="curve"/>
    </contour>
  </outline>
</glyph>
<glyph name="u" format="2">
  <advance width="827.22"/>
  <unicode hex="0075"/>
  <note>
15
</note>
  <anchor x="363.91" y="0.0" name="bottom"/>
  <anchor x="775.68" y="11.18" name="ogonek"/>
  <anchor x="441.47999999999996" y="538.6" name="top"/>
  <anchor x="760.46" y="538.6" name="topright"/>
  <outline>
    <contour>
      <point x="270.24999999999994" y="-10.0" type="curve" smooth="yes"/>
      <point x="373.89" y="-10.0"/>
      <point x="468.32" y="22.56"/>
      <point x="571.54" y="79.97" type="curve"/>
      <point x="582.2900000000001" y="20.869999999999997"/>
      <point x="622.19" y="-10.0"/>
      <point x="682.5099999999999" y="-10.0" type="curve" smooth="yes"/>
      <point x="711.1500000000001" y="-10.0"/>
      <point x="748.35" y="-1.4100000000000001"/>
      <point x="775.68" y="15.91" type="curve"/>
      <point x="773.11" y="91.82000000000001" type="line"/>
      <point x="759.54" y="87.25"/>
      <point x="747.2700000000001" y="85.53999999999999"/>
      <point x="741.99" y="85.53999999999999" type="curve" smooth="yes"/>
      <point x="716.03" y="85.53999999999999"/>
      <point x="699.7599999999999" y="98.95"/>
      <point x="699.7599999999999" y="139.32" type="curve" smooth="yes"/>
      <point x="699.7599999999999" y="149.01999999999998"/>
      <point x="700.76" y="169.56"/>
      <point x="760.46" y="538.6" type="curve"/>
      <point x="626.51" y="538.6" type="line"/>
      <point x="568.24" y="153.58" type="line"/>
      <point x="485.81" y="112.51"/>
      <point x="414.29999999999995" y="86.4"/>
      <point x="329.72" y="86.4" type="curve" smooth="yes"/>
      <point x="252.68" y="86.4"/>
      <point x="214.01" y="120.63"/>
      <point x="214.01" y="182.57" type="curve" smooth="yes"/>
      <point x="214.01" y="202.59"/>
      <point x="217.15999999999997" y="227.58000000000004"/>
      <point x="268.28999999999996" y="538.6" type="curve"/>
      <point x="134.91" y="538.6" type="line"/>
      <point x="77.75999999999999" y="176.88"/>
      <point x="76.76" y="161.32"/>
      <point x="76.76" y="145.02" type="curve" smooth="yes"/>
      <point x="76.76" y="50.0"/>
      <point x="141.79" y="-10.0"/>
    </contour>
  </outline>
</glyph>
<glyph name="v" format="2">
  <advance width="711.73"/>
  <unicode hex="0076"/>
  <outline>
    <contour>
      <point x="366.21999999999997" y="-2.220446049250313e-16" type="line"/>
      <point x="630.87" y="316.49"/>
      <point x="715.5600000000001" y="404.28999999999996"/>
      <point x="733.7499999999999" y="538.6" type="curve"/>
      <point x="593.6300000000001" y="538.6" type="line"/>
      <point x="584.48" y="444.15"/>
      <point x="526.4699999999999" y="371.40000000000003"/>
      <point x="318.79999999999995" y="99.84" type="curve"/>
      <point x="172.95" y="544.3000000000001" type="line"/>
      <point x="33.83" y="540.3100000000001" type="line"/>
      <point x="221.8" y="-2.220446049250313e-16" type="line"/>
    </contour>
  </outline>
</glyph>
<glyph name="w" format="2">
  <advance width="1007.1600000000001"/>
  <unicode hex="0077"/>
  <note>
15
</note>
  <anchor x="464.23999999999995" y="0.0" name="bottom"/>
  <anchor x="525.86" y="538.6" name="top"/>
  <outline>
    <contour>
      <point x="763.14" y="0.0" type="line"/>
      <point x="948.1799999999998" y="302.8"/>
      <point x="1020.7199999999999" y="441.86"/>
      <point x="1020.7199999999999" y="538.6" type="curve"/>
      <point x="903.82" y="538.6" type="line"/>
      <point x="902.1" y="465.91999999999996"/>
      <point x="870.52" y="379.54"/>
      <point x="703.68" y="87.94" type="curve"/>
      <point x="609.38" y="538.6" type="line"/>
      <point x="464.82000000000005" y="538.6" type="line"/>
      <point x="396.59999999999997" y="371.32"/>
      <point x="329.09999999999997" y="239.16"/>
      <point x="255.72000000000003" y="89.93999999999998" type="curve"/>
      <point x="160.89999999999998" y="544.3000000000001" type="line"/>
      <point x="41.419999999999995" y="540.74" type="line"/>
      <point x="160.58" y="0.0" type="line"/>
      <point x="313.74" y="0.0" type="line"/>
      <point x="382.82" y="130.3"/>
      <point x="459.64" y="284.68"/>
      <point x="518.4" y="406.38" type="curve"/>
      <point x="622.0200000000001" y="0.0" type="line"/>
    </contour>
  </outline>
</glyph>
<glyph name="x" format="2">
  <advance width="727.0000000000001"/>
  <unicode hex="0078"/>
  <outline>
    <contour>
      <point x="605.08" y="538.6" type="line"/>
      <point x="563.6999999999999" y="461.76"/>
      <point x="544.22" y="430.50000000000006"/>
      <point x="397.48" y="336.28000000000003" type="curve"/>
      <point x="217.68" y="550.46" type="line"/>
      <point x="73.82000000000001" y="537.46" type="line"/>
      <point x="282.16" y="293.16" type="line"/>
      <point x="98.77999999999999" y="170.04000000000002"/>
      <point x="40.620000000000005" y="95.6"/>
      <point x="-2.2600000000000016" y="0.0" type="curve"/>
      <point x="140.57999999999998" y="0.0" type="line"/>
      <point x="172.27999999999997" y="66.14"/>
      <point x="196.3" y="124.56"/>
      <point x="340.87999999999994" y="219.82" type="curve"/>
      <point x="531.3" y="-4.840000000000001" type="line"/>
      <point x="672.3000000000001" y="3.8600000000000003" type="line"/>
      <point x="452.75999999999993" y="262.93999999999994" type="line"/>
      <point x="624.5200000000001" y="372.18"/>
      <point x="698.74" y="448.1"/>
      <point x="744.2" y="538.6" type="curve"/>
    </contour>
  </outline>
</glyph>
<glyph name="y" format="2">
  <advance width="716.84"/>
  <unicode hex="0079"/>
  <anchor x="320.32000000000005" y="-180.6" name="bottom"/>
  <anchor x="391.34000000000003" y="538.6" name="top"/>
  <outline>
    <contour>
      <point x="601.62" y="538.5999999999999" type="line"/>
      <point x="590.56" y="446.91999999999996"/>
      <point x="468.48" y="229.08"/>
      <point x="339.34000000000003" y="57.900000000000006" type="curve"/>
      <point x="170.8" y="544.3" type="line"/>
      <point x="35.120000000000005" y="540.74" type="line"/>
      <point x="231.74" y="-5.7" type="line"/>
      <point x="283.62" y="-5.7" type="line"/>
      <point x="218.22" y="-84.68"/>
      <point x="148.94" y="-155.82"/>
      <point x="87.48" y="-207.72" type="curve"/>
      <point x="231.06" y="-216.7" type="line"/>
      <point x="425.8" y="-42.86"/>
      <point x="731.92" y="403.12"/>
      <point x="734.86" y="538.6" type="curve"/>
    </contour>
  </outline>
</glyph>
<glyph name="z" format="2">
  <advance width="753.8000000000001"/>
  <unicode hex="007A"/>
  <anchor x="347.16999999999996" y="0.0" name="bottom"/>
  <anchor x="377.49" y="275.0" name="center"/>
  <anchor x="414.08" y="538.6" name="top"/>
  <outline>
    <contour>
      <point x="19.4" y="0.0" type="line"/>
      <point x="673.08" y="0.0" type="line"/>
      <point x="687.69" y="88.66" type="line"/>
      <point x="222.67" y="88.66" type="line"/>
      <point x="716.5" y="459.11" type="line"/>
      <point x="729.39" y="538.6" type="line"/>
      <point x="117.29" y="538.6" type="line"/>
      <point x="102.25" y="449.94" type="line"/>
      <point x="529.9899999999999" y="449.94" type="line"/>
      <point x="30.859999999999996" y="76.91000000000001" type="line"/>
    </contour>
  </outline>
</glyph>
<glyph name="braceleft" format="2">
  <advance width="477.20000000000005"/>
  <unicode hex="007B"/>
  <outline>
    <contour>
      <point x="101.02" y="-85.81" type="curve" smooth="yes"/>
      <point x="101.02" y="-164.16000000000003"/>
      <point x="156.24" y="-210.0"/>
      <point x="266.23" y="-210.0" type="curve" smooth="yes"/>
      <point x="362.06" y="-210.0" type="line"/>
      <point x="374.52" y="-130.66" type="line"/>
      <point x="310.93999999999994" y="-130.66" type="line" smooth="yes"/>
      <point x="240.75" y="-130.66"/>
      <point x="217.77" y="-99.99000000000001"/>
      <point x="217.77" y="-60.739999999999995" type="curve" smooth="yes"/>
      <point x="217.77" y="18.22"/>
      <point x="286.33" y="85.44999999999999"/>
      <point x="286.33" y="180.54" type="curve" smooth="yes"/>
      <point x="286.33" y="215.4"/>
      <point x="270.9" y="245.12"/>
      <point x="227.0" y="264.43" type="curve"/>
      <point x="294.87" y="284.32"/>
      <point x="324.19000000000005" y="343.13"/>
      <point x="324.19000000000005" y="424.53" type="curve" smooth="yes"/>
      <point x="324.19000000000005" y="464.67"/>
      <point x="313.73999999999995" y="495.2099999999999"/>
      <point x="313.73999999999995" y="536.1" type="curve" smooth="yes"/>
      <point x="313.73999999999995" y="592.2"/>
      <point x="335.17999999999995" y="660.6600000000001"/>
      <point x="437.02" y="660.6600000000001" type="curve" smooth="yes"/>
      <point x="500.59999999999997" y="660.6600000000001" type="line"/>
      <point x="513.0600000000001" y="740.0" type="line"/>
      <point x="417.23" y="740.0" type="line" smooth="yes"/>
      <point x="261.26" y="740.0"/>
      <point x="201.14999999999998" y="643.62"/>
      <point x="201.14999999999998" y="537.39" type="curve" smooth="yes"/>
      <point x="201.14999999999998" y="497.64"/>
      <point x="211.17000000000002" y="456.37"/>
      <point x="211.17000000000002" y="416.82" type="curve" smooth="yes"/>
      <point x="211.17000000000002" y="349.46000000000004"/>
      <point x="190.45" y="303.67"/>
      <point x="134.22000000000003" y="303.67" type="curve" smooth="yes"/>
      <point x="117.08000000000001" y="303.67" type="line"/>
      <point x="104.62" y="225.76" type="line"/>
      <point x="122.33" y="225.76" type="line" smooth="yes"/>
      <point x="159.46" y="225.76"/>
      <point x="174.45000000000002" y="204.5"/>
      <point x="174.45000000000002" y="175.66" type="curve" smooth="yes"/>
      <point x="174.45000000000002" y="86.18"/>
      <point x="101.02" y="11.76"/>
    </contour>
  </outline>
</glyph>
<glyph name="bar" format="2">
  <advance width="320.06"/>
  <unicode hex="007C"/>
  <outline>
    <contour>
      <point x="293.16999999999996" y="790.0" type="line"/>
      <point x="192.18" y="790.0" type="line"/>
      <point x="31.890000000000004" y="-210.0" type="line"/>
      <point x="132.45" y="-210.0" type="line"/>
    </contour>
  </outline>
</glyph>
<glyph name="braceright" format="2">
  <advance width="477.20000000000005"/>
  <unicode hex="007D"/>
  <outline>
    <contour>
      <point x="372.60999999999996" y="615.81" type="curve" smooth="yes"/>
      <point x="372.60999999999996" y="694.16"/>
      <point x="317.39" y="740.0"/>
      <point x="207.39999999999998" y="740.0" type="curve" smooth="yes"/>
      <point x="111.57" y="740.0" type="line"/>
      <point x="99.11" y="660.66" type="line"/>
      <point x="162.69" y="660.66" type="line" smooth="yes"/>
      <point x="232.88" y="660.66"/>
      <point x="255.86" y="629.99"/>
      <point x="255.86" y="590.74" type="curve" smooth="yes"/>
      <point x="255.86" y="511.78000000000003"/>
      <point x="187.3" y="444.55"/>
      <point x="187.3" y="349.46" type="curve" smooth="yes"/>
      <point x="187.3" y="314.59999999999997"/>
      <point x="202.73000000000002" y="284.88"/>
      <point x="246.63" y="265.57" type="curve"/>
      <point x="178.76" y="245.68"/>
      <point x="149.44" y="186.87"/>
      <point x="149.44" y="105.47" type="curve" smooth="yes"/>
      <point x="149.44" y="65.33"/>
      <point x="159.89" y="34.79"/>
      <point x="159.89" y="-6.1" type="curve" smooth="yes"/>
      <point x="159.89" y="-62.19999999999999"/>
      <point x="138.45" y="-130.66"/>
      <point x="36.61" y="-130.66" type="curve" smooth="yes"/>
      <point x="-26.97" y="-130.66" type="line"/>
      <point x="-39.43" y="-210.0" type="line"/>
      <point x="56.4" y="-210.0" type="line" smooth="yes"/>
      <point x="212.37" y="-210.0"/>
      <point x="272.48" y="-113.62"/>
      <point x="272.48" y="-7.390000000000001" type="curve" smooth="yes"/>
      <point x="272.48" y="32.36"/>
      <point x="262.46" y="73.63"/>
      <point x="262.46" y="113.18" type="curve" smooth="yes"/>
      <point x="262.46" y="180.54"/>
      <point x="283.18" y="226.33"/>
      <point x="339.41" y="226.33" type="curve" smooth="yes"/>
      <point x="356.55" y="226.33" type="line"/>
      <point x="369.01" y="304.23999999999995" type="line"/>
      <point x="351.29999999999995" y="304.23999999999995" type="line" smooth="yes"/>
      <point x="314.17" y="304.23999999999995"/>
      <point x="299.18" y="325.5"/>
      <point x="299.18" y="354.34" type="curve" smooth="yes"/>
      <point x="299.18" y="443.82000000000005"/>
      <point x="372.60999999999996" y="518.24"/>
    </contour>
  </outline>
</glyph>
<glyph name="asciitilde" format="2">
  <advance width="614.33"/>
  <unicode hex="007E"/>
  <outline>
    <contour>
      <point x="541.34" y="247.35000000000002" type="curve"/>
      <point x="556.52" y="349.61" type="line"/>
      <point x="526.22" y="325.74"/>
      <point x="489.90999999999997" y="305.61999999999995"/>
      <point x="444.16999999999996" y="305.61999999999995" type="curve" smooth="yes"/>
      <point x="334.62" y="305.61999999999995"/>
      <point x="276.22999999999996" y="399.02"/>
      <point x="188.78" y="399.02" type="curve" smooth="yes"/>
      <point x="139.43" y="399.02"/>
      <point x="103.28" y="374.01"/>
      <point x="83.44000000000001" y="360.16999999999996" type="curve"/>
      <point x="66.11" y="257.34" type="line"/>
      <point x="97.28" y="276.91999999999996"/>
      <point x="125.69999999999999" y="297.32"/>
      <point x="173.16" y="297.32" type="curve" smooth="yes"/>
      <point x="274.68" y="297.32"/>
      <point x="329.91999999999996" y="203.92000000000002"/>
      <point x="436.29" y="203.92000000000002" type="curve" smooth="yes"/>
      <point x="474.86" y="203.92000000000002"/>
      <point x="515.19" y="225.20000000000002"/>
    </contour>
  </outline>
</glyph>
<glyph name="cent" format="2">
  <advance width="1040.8799999999999"/>
  <unicode hex="00A2"/>
  <outline>
    <contour>
      <point x="439.41" y="-104.57000000000001" type="line"/>
      <point x="530.0799999999999" y="-104.57000000000001" type="line"/>
      <point x="545.51" y="-9.0" type="line"/>
      <point x="657.87" y="-5.29"/>
      <point x="752.41" y="10.83"/>
      <point x="814.18" y="26.700000000000003" type="curve"/>
      <point x="811.33" y="114.92999999999999" type="line"/>
      <point x="733.24" y="99.78"/>
      <point x="639.5" y="83.39"/>
      <point x="560.7099999999999" y="83.39" type="curve" smooth="yes"/>
      <point x="408.84" y="83.39"/>
      <point x="328.2" y="136.60000000000002"/>
      <point x="328.2" y="241.31" type="curve" smooth="yes"/>
      <point x="328.2" y="376.06"/>
      <point x="443.28000000000003" y="453.05999999999995"/>
      <point x="616.3100000000001" y="453.05999999999995" type="curve" smooth="yes"/>
      <point x="706.5300000000001" y="453.05999999999995"/>
      <point x="771.1800000000001" y="439.08000000000004"/>
      <point x="850.68" y="419.35999999999996" type="curve"/>
      <point x="880.76" y="513.32" type="line"/>
      <point x="805.04" y="533.6"/>
      <point x="733.79" y="547.74"/>
      <point x="634.6600000000001" y="548.6" type="curve"/>
      <point x="650.5200000000001" y="643.5999999999999" type="line"/>
      <point x="559.85" y="643.5999999999999" type="line"/>
      <point x="542.7" y="539.86" type="line"/>
      <point x="320.81" y="518.1"/>
      <point x="192.24" y="399.55"/>
      <point x="192.24" y="220.95" type="curve" smooth="yes"/>
      <point x="192.24" y="74.17999999999999"/>
      <point x="293.59000000000003" y="4.76"/>
      <point x="455.13000000000005" y="-5.13" type="curve"/>
    </contour>
  </outline>
</glyph>
<glyph name="sterling" format="2">
  <advance width="1040.8799999999999"/>
  <unicode hex="00A3"/>
  <outline>
    <contour>
      <point x="116.14" y="0.0" type="line"/>
      <point x="870.66" y="0.0" type="line"/>
      <point x="885.7" y="93.1" type="line"/>
      <point x="288.6" y="93.1" type="line"/>
      <point x="381.02" y="153.14000000000001"/>
      <point x="422.56" y="200.10000000000002"/>
      <point x="422.56" y="269.76" type="curve" smooth="yes"/>
      <point x="422.56" y="325.41999999999996"/>
      <point x="373.02000000000004" y="389.86"/>
      <point x="373.02000000000004" y="452.26" type="curve" smooth="yes"/>
      <point x="373.02000000000004" y="558.6800000000001"/>
      <point x="485.3" y="614.5999999999999"/>
      <point x="640.5799999999999" y="614.5999999999999" type="curve" smooth="yes"/>
      <point x="735.4399999999999" y="614.5999999999999"/>
      <point x="822.24" y="604.6"/>
      <point x="920.48" y="575.3199999999999" type="curve"/>
      <point x="952.28" y="666.28" type="line"/>
      <point x="846.44" y="698.56"/>
      <point x="749.0999999999999" y="710.0"/>
      <point x="643.3" y="710.0" type="curve" smooth="yes"/>
      <point x="453.38" y="710.0"/>
      <point x="246.51999999999998" y="646.5"/>
      <point x="246.51999999999998" y="469.76" type="curve" smooth="yes"/>
      <point x="246.51999999999998" y="393.04"/>
      <point x="298.64" y="333.74"/>
      <point x="298.64" y="269.47999999999996" type="curve" smooth="yes"/>
      <point x="298.64" y="193.95999999999998"/>
      <point x="234.42" y="144.86"/>
      <point x="128.6" y="79.34" type="curve"/>
    </contour>
    <contour>
      <point x="138.02" y="316.84" type="line"/>
      <point x="786.26" y="317.98" type="line"/>
      <point x="800.44" y="402.92" type="line"/>
      <point x="151.34" y="402.92" type="line"/>
    </contour>
  </outline>
</glyph>
<glyph name="currency" format="2">
  <advance width="486.95"/>
  <unicode hex="00A4"/>
  <outline>
    <contour>
      <point x="84.58" y="98.38" type="line"/>
      <point x="166.01999999999998" y="175.1" type="line"/>
      <point x="181.01" y="162.84"/>
      <point x="200.28" y="156.14"/>
      <point x="222.97" y="156.14" type="curve" smooth="yes"/>
      <point x="245.95" y="156.14"/>
      <point x="268.5" y="163.41"/>
      <point x="288.2" y="175.53" type="curve"/>
      <point x="346.78" y="98.38" type="line"/>
      <point x="408.51" y="156.24" type="line"/>
      <point x="356.09000000000003" y="226.51" type="line"/>
      <point x="376.93" y="255.08"/>
      <point x="390.63" y="290.64"/>
      <point x="390.63" y="330.77" type="curve" smooth="yes"/>
      <point x="390.63" y="347.75"/>
      <point x="386.78000000000003" y="364.16"/>
      <point x="380.08" y="377.28999999999996" type="curve"/>
      <point x="454.35" y="447.56" type="line"/>
      <point x="411.67" y="505.42" type="line"/>
      <point x="328.8" y="428.27" type="line"/>
      <point x="313.52" y="440.96000000000004"/>
      <point x="292.68" y="448.23"/>
      <point x="269.27" y="448.23" type="curve" smooth="yes"/>
      <point x="246.57999999999998" y="448.23"/>
      <point x="225.03" y="440.96000000000004"/>
      <point x="206.19" y="428.70000000000005" type="curve"/>
      <point x="149.04000000000002" y="505.42" type="line"/>
      <point x="87.31" y="447.56" type="line"/>
      <point x="137.01" y="379.44" type="line"/>
      <point x="114.74000000000001" y="351.44"/>
      <point x="101.61" y="315.02000000000004"/>
      <point x="101.61" y="275.46000000000004" type="curve" smooth="yes"/>
      <point x="101.61000000000001" y="256.05"/>
      <point x="105.46000000000001" y="238.35"/>
      <point x="112.59" y="223.79" type="curve"/>
      <point x="41.04" y="156.24" type="line"/>
    </contour>
    <contour>
      <point x="233.85" y="223.44" type="curve" smooth="yes"/>
      <point x="198.46999999999997" y="223.44"/>
      <point x="174.36" y="250.96999999999997"/>
      <point x="174.36" y="288.63" type="curve" smooth="yes"/>
      <point x="174.35999999999999" y="338.99"/>
      <point x="215.73" y="380.93"/>
      <point x="258.53000000000003" y="380.93" type="curve" smooth="yes"/>
      <point x="294.34" y="380.93"/>
      <point x="318.45" y="353.10999999999996"/>
      <point x="318.45" y="316.45" type="curve" smooth="yes"/>
      <point x="318.45" y="264.8"/>
      <point x="276.93" y="223.44"/>
    </contour>
  </outline>
</glyph>
<glyph name="yen" format="2">
  <advance width="1040.8799999999999"/>
  <unicode hex="00A5"/>
  <outline>
    <contour>
      <point x="184.96" y="323.0" type="line"/>
      <point x="457.47999999999996" y="323.0" type="line"/>
      <point x="445.24" y="246.74" type="line"/>
      <point x="172.72" y="246.74" type="line"/>
      <point x="161.84" y="177.72" type="line"/>
      <point x="434.36" y="177.72" type="line"/>
      <point x="406.5" y="0.0" type="line"/>
      <point x="550.92" y="0.0" type="line"/>
      <point x="578.78" y="177.72" type="line"/>
      <point x="856.6" y="177.72" type="line"/>
      <point x="867.48" y="246.74" type="line"/>
      <point x="589.66" y="246.74" type="line"/>
      <point x="601.9000000000001" y="323.0" type="line"/>
      <point x="879.72" y="323.0" type="line"/>
      <point x="890.6" y="392.02" type="line"/>
      <point x="612.78" y="392.02" type="line"/>
      <point x="974.1800000000001" y="695.44" type="line"/>
      <point x="836.3199999999999" y="704.56" type="line"/>
      <point x="554.1800000000001" y="469.36" type="line"/>
      <point x="341.7" y="704.56" type="line"/>
      <point x="199.56" y="695.44" type="line"/>
      <point x="468.35999999999996" y="392.02" type="line"/>
      <point x="196.70000000000002" y="392.02" type="line"/>
    </contour>
  </outline>
</glyph>
<glyph name="brokenbar" format="2">
  <advance width="320.06"/>
  <unicode hex="00A6"/>
  <outline>
    <contour>
      <point x="228.74" y="391.0" type="line"/>
      <point x="293.17" y="790.0" type="line"/>
      <point x="192.18" y="790.0" type="line"/>
      <point x="127.75" y="391.0" type="line"/>
    </contour>
    <contour>
      <point x="96.32000000000001" y="190.0" type="line"/>
      <point x="31.890000000000004" y="-210.0" type="line"/>
      <point x="132.45" y="-210.0" type="line"/>
      <point x="196.88" y="190.0" type="line"/>
    </contour>
  </outline>
</glyph>
<glyph name="section" format="2">
  <advance width="677.9499999999999"/>
  <unicode hex="00A7"/>
  <outline>
    <contour>
      <point x="23.9" y="-55.68000000000001" type="curve"/>
      <point x="-19.77" y="-154.67" type="line"/>
      <point x="50.11" y="-196.03"/>
      <point x="120.7" y="-220.0"/>
      <point x="208.38" y="-220.0" type="curve" smooth="yes"/>
      <point x="413.09" y="-220.0"/>
      <point x="603.45" y="-113.92"/>
      <point x="603.45" y="119.13999999999999" type="curve" smooth="yes"/>
      <point x="603.45" y="299.84"/>
      <point x="454.21000000000004" y="420.40999999999997"/>
      <point x="454.21000000000004" y="539.97" type="curve" smooth="yes"/>
      <point x="454.21000000000004" y="601.36"/>
      <point x="490.63" y="637.5699999999999"/>
      <point x="556.6800000000001" y="637.5699999999999" type="curve" smooth="yes"/>
      <point x="589.2" y="637.5699999999999"/>
      <point x="614.5999999999999" y="628.3"/>
      <point x="639.29" y="619.88" type="curve"/>
      <point x="670.94" y="727.17" type="line"/>
      <point x="615.36" y="741.58"/>
      <point x="551.65" y="750.0"/>
      <point x="487.23" y="750.0" type="curve" smooth="yes"/>
      <point x="273.8" y="750.0"/>
      <point x="87.76" y="627.81"/>
      <point x="87.76" y="401.7" type="curve" smooth="yes"/>
      <point x="87.76" y="211.54"/>
      <point x="236.45000000000002" y="91.53"/>
      <point x="236.45000000000002" y="-14.280000000000001" type="curve" smooth="yes"/>
      <point x="236.45000000000002" y="-72.2"/>
      <point x="194.1" y="-105.45"/>
      <point x="145.56" y="-105.45" type="curve" smooth="yes"/>
      <point x="102.88999999999999" y="-105.45"/>
      <point x="61.339999999999996" y="-81.07"/>
    </contour>
    <contour>
      <point x="453.35" y="677.9499999999999" type="curve"/>
      <point x="380.63" y="652.64"/>
      <point x="352.79" y="594.0699999999999"/>
      <point x="352.79" y="526.65" type="curve" smooth="yes"/>
      <point x="352.79" y="389.31"/>
      <point x="496.01" y="231.37000000000003"/>
      <point x="496.01" y="88.19000000000001" type="curve" smooth="yes"/>
      <point x="496.01" y="-75.24000000000001"/>
      <point x="351.18" y="-166.23000000000002"/>
      <point x="203.68" y="-153.98999999999998" type="curve"/>
      <point x="284.28000000000003" y="-137.4"/>
      <point x="338.86999999999995" y="-72.67"/>
      <point x="338.86999999999995" y="2.209999999999993" type="curve" smooth="yes"/>
      <point x="338.86999999999995" y="126.72"/>
      <point x="200.77999999999997" y="260.15"/>
      <point x="200.77999999999997" y="416.03" type="curve" smooth="yes"/>
      <point x="200.77999999999997" y="568.3000000000001"/>
      <point x="294.5" y="667.36"/>
    </contour>
  </outline>
</glyph>
<glyph name="copyright" format="2">
  <advance width="956.4199999999998"/>
  <unicode hex="00A9"/>
  <outline>
    <contour>
      <point x="462.36000000000007" y="-9.86" type="curve" smooth="yes"/>
      <point x="728.0400000000001" y="-11.58"/>
      <point x="904.8800000000001" y="131.18"/>
      <point x="904.8800000000001" y="390.11999999999995" type="curve" smooth="yes"/>
      <point x="904.8800000000001" y="601.6200000000001"/>
      <point x="737.4200000000001" y="708.14"/>
      <point x="514.0799999999999" y="709.86" type="curve" smooth="yes"/>
      <point x="256.56" y="711.58"/>
      <point x="75.53999999999999" y="574.42"/>
      <point x="75.53999999999999" y="309.74" type="curve" smooth="yes"/>
      <point x="75.53999999999999" y="99.81999999999998"/>
      <point x="239.28000000000003" y="-8.14"/>
    </contour>
    <contour>
      <point x="479.63999999999993" y="173.1" type="curve" smooth="yes"/>
      <point x="556.38" y="173.1"/>
      <point x="620.8599999999999" y="187.54"/>
      <point x="672.4599999999999" y="205.84" type="curve"/>
      <point x="662.4399999999999" y="272.86" type="line"/>
      <point x="609.84" y="259.0"/>
      <point x="557.24" y="248.86"/>
      <point x="500.14000000000004" y="248.86" type="curve" smooth="yes"/>
      <point x="414.48" y="248.86"/>
      <point x="362.70000000000005" y="281.8"/>
      <point x="362.70000000000005" y="338.62" type="curve" smooth="yes"/>
      <point x="362.70000000000005" y="415.36"/>
      <point x="423.6" y="454.0"/>
      <point x="527.9399999999999" y="454.0" type="curve" smooth="yes"/>
      <point x="582.38" y="454.0"/>
      <point x="627.8" y="447.72"/>
      <point x="680.24" y="436.15999999999997" type="curve"/>
      <point x="699.28" y="507.62" type="line"/>
      <point x="650.14" y="520.9"/>
      <point x="593.26" y="529.76"/>
      <point x="531.66" y="529.76" type="curve" smooth="yes"/>
      <point x="372.0400000000001" y="529.76"/>
      <point x="267.15999999999997" y="465.48"/>
      <point x="267.15999999999997" y="332.88000000000005" type="curve" smooth="yes"/>
      <point x="267.15999999999997" y="232.4"/>
      <point x="349.18" y="173.1"/>
    </contour>
    <contour>
      <point x="470.52000000000004" y="49.559999999999995" type="curve" smooth="yes"/>
      <point x="276.66" y="49.559999999999995"/>
      <point x="142.7" y="133.16"/>
      <point x="142.7" y="318.04" type="curve" smooth="yes"/>
      <point x="142.7" y="534.62"/>
      <point x="281.18" y="651.3000000000001"/>
      <point x="506.91999999999996" y="651.3000000000001" type="curve" smooth="yes"/>
      <point x="697.18" y="651.3000000000001"/>
      <point x="837.7200000000001" y="566.84"/>
      <point x="837.7200000000001" y="380.68" type="curve" smooth="yes"/>
      <point x="837.7200000000001" y="163.82000000000002"/>
      <point x="696.54" y="49.559999999999995"/>
    </contour>
  </outline>
</glyph>
<glyph name="ordfeminine" format="2">
  <advance width="562.52"/>
  <unicode hex="00AA"/>
  <outline>
    <contour>
      <point x="44.95" y="229.85" type="line"/>
      <point x="486.55" y="229.85" type="line"/>
      <point x="497.29" y="298.16" type="line"/>
      <point x="55.690000000000005" y="298.16" type="line"/>
    </contour>
    <component base="a.superior" xOffset="13.700000000000001"/>
  </outline>
</glyph>
<glyph name="logicalnot" format="2">
  <advance width="611.04"/>
  <unicode hex="00AC"/>
  <outline>
    <contour>
      <point x="71.83" y="339.71000000000004" type="line"/>
      <point x="465.2" y="339.71000000000004" type="line"/>
      <point x="438.36" y="166.25" type="line"/>
      <point x="531.61" y="166.25" type="line"/>
      <point x="574.78" y="438.12" type="line"/>
      <point x="88.16000000000001" y="438.12" type="line"/>
    </contour>
  </outline>
</glyph>
<glyph name="registered" format="2">
  <advance width="906.6"/>
  <unicode hex="00AE"/>
  <outline>
    <contour>
      <point x="472.53999999999996" y="210.28" type="curve" smooth="yes"/>
      <point x="732.6400000000001" y="210.28"/>
      <point x="885.92" y="352.74"/>
      <point x="885.92" y="580.7199999999999" type="curve" smooth="yes"/>
      <point x="885.92" y="774.5400000000001"/>
      <point x="755.5200000000001" y="891.7199999999999"/>
      <point x="521.06" y="891.7199999999999" type="curve" smooth="yes"/>
      <point x="260.96" y="891.7199999999999"/>
      <point x="108.54" y="749.26"/>
      <point x="108.54" y="521.28" type="curve" smooth="yes"/>
      <point x="108.54" y="328.32"/>
      <point x="237.22" y="210.28"/>
    </contour>
    <contour>
      <point x="479.41999999999996" y="268.7" type="curve" smooth="yes"/>
      <point x="275.74000000000007" y="268.7"/>
      <point x="169.68" y="365.12"/>
      <point x="169.68" y="522.14" type="curve" smooth="yes"/>
      <point x="169.68" y="725.4999999999999"/>
      <point x="297.61999999999995" y="834.1600000000001"/>
      <point x="515.04" y="834.1600000000001" type="curve" smooth="yes"/>
      <point x="718.7200000000001" y="834.1600000000001"/>
      <point x="824.78" y="736.88"/>
      <point x="824.78" y="579.86" type="curve" smooth="yes"/>
      <point x="824.78" y="376.49999999999994"/>
      <point x="695.98" y="268.7"/>
    </contour>
    <contour>
      <point x="295.52" y="400.86" type="line"/>
      <point x="374.3" y="400.86" type="line"/>
      <point x="393.0" y="513.1999999999999" type="line"/>
      <point x="421.2" y="513.0600000000001"/>
      <point x="449.4600000000001" y="512.06"/>
      <point x="489.06" y="513.0600000000001" type="curve"/>
      <point x="564.86" y="533.7" type="line"/>
      <point x="641.48" y="534.12"/>
      <point x="693.96" y="554.82"/>
      <point x="693.96" y="632.86" type="curve" smooth="yes"/>
      <point x="693.96" y="690.4200000000001"/>
      <point x="644.4000000000001" y="713.8599999999999"/>
      <point x="510.78000000000003" y="713.8599999999999" type="curve" smooth="yes"/>
      <point x="474.26" y="713.8599999999999"/>
      <point x="423.04" y="713.86"/>
      <point x="344.52000000000004" y="710.0" type="curve"/>
    </contour>
    <contour>
      <point x="483.28" y="563.7400000000001" type="curve" smooth="yes"/>
      <point x="459.0599999999999" y="563.7400000000001"/>
      <point x="439.4" y="564.74"/>
      <point x="401.16" y="564.88" type="curve"/>
      <point x="414.42" y="653.02" type="line"/>
      <point x="460.11999999999995" y="655.3"/>
      <point x="467.82000000000005" y="655.3"/>
      <point x="506.92" y="655.3" type="curve" smooth="yes"/>
      <point x="584.52" y="655.3"/>
      <point x="610.6" y="646.4599999999999"/>
      <point x="610.6" y="616.1" type="curve" smooth="yes"/>
      <point x="610.6" y="574.58"/>
      <point x="590.2200000000001" y="563.7400000000001"/>
    </contour>
    <contour>
      <point x="680.5400000000001" y="398.14000000000004" type="curve" smooth="yes"/>
      <point x="682.54" y="398.14000000000004"/>
      <point x="685.54" y="398.14"/>
      <point x="688.3999999999999" y="398.14" type="curve"/>
      <point x="699.0" y="468.74" type="line"/>
      <point x="696.28" y="468.74000000000007"/>
      <point x="694.28" y="468.74000000000007"/>
      <point x="692.42" y="468.74000000000007" type="curve" smooth="yes"/>
      <point x="666.76" y="468.74000000000007"/>
      <point x="608.66" y="500.38"/>
      <point x="565.5600000000001" y="540.5600000000001" type="curve"/>
      <point x="466.88" y="518.92" type="line"/>
      <point x="535.3399999999999" y="460.56"/>
      <point x="610.1800000000001" y="398.14000000000004"/>
    </contour>
  </outline>
</glyph>
<glyph name="degree" format="2">
  <advance width="346.62"/>
  <unicode hex="00B0"/>
  <outline>
    <contour>
      <point x="201.56" y="429.7" type="curve" smooth="yes"/>
      <point x="288.66" y="429.7"/>
      <point x="359.71999999999997" y="498.34"/>
      <point x="359.71999999999997" y="599.5799999999999" type="curve" smooth="yes"/>
      <point x="359.71999999999997" y="663.1999999999999"/>
      <point x="321.7" y="719.4"/>
      <point x="239.58" y="719.4" type="curve" smooth="yes"/>
      <point x="153.48" y="719.4"/>
      <point x="82.28" y="648.3399999999999"/>
      <point x="82.28" y="548.2399999999999" type="curve" smooth="yes"/>
      <point x="82.28" y="485.62"/>
      <point x="119.44" y="429.7"/>
    </contour>
    <contour>
      <point x="211.44" y="509.9000000000001" type="curve" smooth="yes"/>
      <point x="181.32" y="509.9000000000001"/>
      <point x="163.20000000000002" y="532.16"/>
      <point x="163.20000000000002" y="561.6999999999999" type="curve" smooth="yes"/>
      <point x="163.20000000000002" y="606.8"/>
      <point x="194.16" y="639.2"/>
      <point x="230.55999999999997" y="639.2" type="curve" smooth="yes"/>
      <point x="261.96000000000004" y="639.2"/>
      <point x="278.94" y="616.8"/>
      <point x="278.94" y="586.26" type="curve" smooth="yes"/>
      <point x="278.94" y="543.3000000000001"/>
      <point x="246.98" y="509.9000000000001"/>
    </contour>
  </outline>
</glyph>
<glyph name="plusminus" format="2">
  <advance width="611.9"/>
  <unicode hex="00B1"/>
  <outline>
    <contour>
      <point x="511.74" y="41.75" type="line"/>
      <point x="528.07" y="140.16" type="line"/>
      <point x="338.90999999999997" y="140.16" type="line"/>
      <point x="364.46000000000004" y="303.3" type="line"/>
      <point x="553.62" y="303.3" type="line"/>
      <point x="569.95" y="401.71" type="line"/>
      <point x="380.78999999999996" y="401.71" type="line"/>
      <point x="408.20000000000005" y="575.3100000000001" type="line"/>
      <point x="299.47" y="575.3100000000001" type="line"/>
      <point x="271.2" y="401.71" type="line"/>
      <point x="83.33" y="401.71" type="line"/>
      <point x="67.0" y="303.3" type="line"/>
      <point x="255.73000000000002" y="303.3" type="line"/>
      <point x="229.32" y="140.16" type="line"/>
      <point x="41.45" y="140.16" type="line"/>
      <point x="25.119999999999997" y="41.75" type="line"/>
    </contour>
  </outline>
</glyph>
<glyph name="uni00B2" format="2">
  <advance width="620.29"/>
  <unicode hex="00B2"/>
  <outline>
    <contour>
      <point x="86.66" y="370.0" type="line"/>
      <point x="567.21" y="370.0" type="line"/>
      <point x="576.24" y="428.57" type="line"/>
      <point x="263.68" y="428.57" type="line"/>
      <point x="405.25" y="494.9"/>
      <point x="535.11" y="548.9"/>
      <point x="535.11" y="657.54" type="curve" smooth="yes"/>
      <point x="535.11" y="737.5799999999999"/>
      <point x="456.73" y="771.29"/>
      <point x="362.00000000000006" y="771.29" type="curve" smooth="yes"/>
      <point x="296.55" y="771.29"/>
      <point x="208.91" y="752.14"/>
      <point x="154.32" y="727.84" type="curve"/>
      <point x="172.65" y="668.7" type="line"/>
      <point x="223.09" y="692.42"/>
      <point x="281.21000000000004" y="706.7"/>
      <point x="330.46999999999997" y="706.7" type="curve" smooth="yes"/>
      <point x="390.69" y="706.7"/>
      <point x="428.24" y="683.87"/>
      <point x="428.24" y="640.49" type="curve" smooth="yes"/>
      <point x="428.24" y="552.84"/>
      <point x="309.06" y="503.3"/>
      <point x="92.25" y="416.67999999999995" type="curve"/>
    </contour>
  </outline>
</glyph>
<glyph name="uni00B3" format="2">
  <advance width="582.5"/>
  <unicode hex="00B3"/>
  <outline>
    <contour>
      <point x="48.29" y="407.96" type="line"/>
      <point x="114.01" y="375.41"/>
      <point x="198.76" y="363.14"/>
      <point x="301.71" y="363.14" type="curve" smooth="yes"/>
      <point x="460.12" y="363.14"/>
      <point x="573.67" y="397.13"/>
      <point x="573.67" y="494.6" type="curve" smooth="yes"/>
      <point x="573.67" y="537.0"/>
      <point x="538.27" y="570.2800000000001"/>
      <point x="472.16" y="582.0" type="curve"/>
      <point x="532.0" y="594.28"/>
      <point x="574.0" y="627.99"/>
      <point x="574.0" y="674.57" type="curve" smooth="yes"/>
      <point x="574.0" y="736.29"/>
      <point x="492.96000000000004" y="771.29"/>
      <point x="344.89" y="771.29" type="curve" smooth="yes"/>
      <point x="276.69" y="771.29"/>
      <point x="185.79999999999998" y="760.4300000000001"/>
      <point x="132.26" y="746.86" type="curve"/>
      <point x="135.10999999999999" y="688.29" type="line"/>
      <point x="197.97" y="701.43"/>
      <point x="275.54" y="709.2800000000001"/>
      <point x="328.70000000000005" y="709.2800000000001" type="curve" smooth="yes"/>
      <point x="422.92" y="709.2800000000001"/>
      <point x="480.46000000000004" y="691.46"/>
      <point x="480.46000000000004" y="658.8" type="curve" smooth="yes"/>
      <point x="480.46000000000004" y="621.71"/>
      <point x="424.96000000000004" y="599.9"/>
      <point x="340.51000000000005" y="599.9" type="curve" smooth="yes"/>
      <point x="206.28" y="599.9" type="line"/>
      <point x="197.4" y="546.92" type="line"/>
      <point x="318.18" y="546.92" type="line" smooth="yes"/>
      <point x="437.19" y="546.92"/>
      <point x="480.42" y="525.9499999999999"/>
      <point x="480.42" y="488.59000000000003" type="curve" smooth="yes"/>
      <point x="480.42" y="442.09999999999997"/>
      <point x="417.59999999999997" y="422.14"/>
      <point x="298.13" y="422.14" type="curve" smooth="yes"/>
      <point x="203.47" y="422.14"/>
      <point x="128.6" y="436.98999999999995"/>
      <point x="74.33999999999999" y="463.38" type="curve"/>
    </contour>
  </outline>
</glyph>
<glyph name="uni00B5" format="2">
  <advance width="829.65"/>
  <unicode hex="00B5"/>
  <outline>
    <contour>
      <point x="20.19" y="-210.0" type="line"/>
      <point x="152.70999999999998" y="-210.0" type="line"/>
      <point x="193.69" y="49.57" type="line"/>
      <point x="207.68" y="12.660000000000002"/>
      <point x="243.76" y="-10.0"/>
      <point x="303.21000000000004" y="-10.0" type="curve" smooth="yes"/>
      <point x="397.39" y="-10.0"/>
      <point x="480.21000000000004" y="22.56"/>
      <point x="573.97" y="79.97" type="curve"/>
      <point x="584.72" y="20.87"/>
      <point x="624.62" y="-10.0"/>
      <point x="684.94" y="-10.0" type="curve" smooth="yes"/>
      <point x="713.5799999999999" y="-10.0"/>
      <point x="750.78" y="-1.4100000000000001"/>
      <point x="778.1100000000001" y="15.91" type="curve"/>
      <point x="775.54" y="91.82000000000001" type="line"/>
      <point x="761.97" y="87.25"/>
      <point x="749.7" y="85.53999999999999"/>
      <point x="744.42" y="85.53999999999999" type="curve" smooth="yes"/>
      <point x="718.4599999999999" y="85.53999999999999"/>
      <point x="702.19" y="98.95"/>
      <point x="702.19" y="139.32" type="curve" smooth="yes"/>
      <point x="702.19" y="149.01999999999998"/>
      <point x="703.19" y="169.56"/>
      <point x="762.89" y="538.6" type="curve"/>
      <point x="628.9399999999999" y="538.6" type="line"/>
      <point x="570.67" y="153.58" type="line"/>
      <point x="488.24" y="112.51"/>
      <point x="416.72999999999996" y="86.4"/>
      <point x="332.15000000000003" y="86.4" type="curve" smooth="yes"/>
      <point x="255.11" y="86.4"/>
      <point x="216.44" y="120.63"/>
      <point x="216.44" y="182.57000000000002" type="curve" smooth="yes"/>
      <point x="216.44" y="202.59"/>
      <point x="219.59" y="227.58"/>
      <point x="270.72" y="538.6" type="curve"/>
      <point x="137.34" y="538.6" type="line"/>
    </contour>
  </outline>
</glyph>
<glyph name="paragraph" format="2">
  <advance width="779.32"/>
  <unicode hex="00B6"/>
  <outline>
    <contour>
      <point x="498.41999999999996" y="-210.0" type="line"/>
      <point x="597.69" y="-210.0" type="line"/>
      <point x="748.12" y="740.0" type="line"/>
      <point x="648.8499999999999" y="740.0" type="line"/>
    </contour>
    <contour>
      <point x="313.02" y="261.19" type="line"/>
      <point x="241.29999999999998" y="269.9"/>
      <point x="189.41" y="321.53000000000003"/>
      <point x="189.41" y="401.12" type="curve" smooth="yes"/>
      <point x="189.41" y="529.65"/>
      <point x="263.11" y="641.5899999999999"/>
      <point x="431.57" y="643.3000000000001" type="curve"/>
      <point x="297.03999999999996" y="-210.0" type="line"/>
      <point x="396.31" y="-210.0" type="line"/>
      <point x="546.74" y="740.0" type="line"/>
      <point x="474.68" y="740.0" type="line" smooth="yes"/>
      <point x="221.97" y="740.0"/>
      <point x="82.97999999999999" y="625.6"/>
      <point x="82.97999999999999" y="400.28000000000003" type="curve" smooth="yes"/>
      <point x="82.97999999999999" y="275.71000000000004"/>
      <point x="162.23000000000002" y="200.73"/>
      <point x="291.68" y="190.3" type="curve"/>
    </contour>
  </outline>
</glyph>
<glyph name="periodcentered" format="2">
  <advance width="288.1"/>
  <unicode hex="00B7"/>
  <outline>
    <contour>
      <point x="72.22" y="287.74" type="curve" smooth="yes"/>
      <point x="71.22" y="256.38"/>
      <point x="92.42" y="240.76"/>
      <point x="136.82" y="240.76" type="curve" smooth="yes"/>
      <point x="190.93999999999997" y="240.76"/>
      <point x="221.18" y="258.96000000000004"/>
      <point x="222.46" y="311.2" type="curve" smooth="yes"/>
      <point x="223.45999999999998" y="343.41999999999996"/>
      <point x="202.26" y="359.04"/>
      <point x="157.85999999999999" y="359.04" type="curve" smooth="yes"/>
      <point x="104.6" y="359.04"/>
      <point x="73.5" y="338.26"/>
    </contour>
  </outline>
</glyph>
<glyph name="uni00B9" format="2">
  <advance width="529.21"/>
  <unicode hex="00B9"/>
  <outline>
    <contour>
      <point x="55.339999999999996" y="370.0" type="line"/>
      <point x="523.04" y="370.0" type="line"/>
      <point x="532.78" y="428.57" type="line"/>
      <point x="365.76" y="428.57" type="line"/>
      <point x="420.02" y="766.28" type="line"/>
      <point x="363.58" y="766.28" type="line"/>
      <point x="89.6" y="659.89" type="line"/>
      <point x="100.2" y="595.3" type="line"/>
      <point x="305.56" y="676.2" type="line"/>
      <point x="264.04999999999995" y="428.57" type="line"/>
      <point x="64.51" y="428.57" type="line"/>
    </contour>
  </outline>
</glyph>
<glyph name="ordmasculine" format="2">
  <advance width="529.55"/>
  <unicode hex="00BA"/>
  <outline>
    <contour>
      <point x="38.97" y="229.85" type="line"/>
      <point x="472.4" y="229.85" type="line"/>
      <point x="483.14" y="298.16" type="line"/>
      <point x="49.71" y="298.16" type="line"/>
    </contour>
    <component base="o.superior" xOffset="7.999999999999999"/>
  </outline>
</glyph>
<glyph name="AE" format="2">
  <advance width="1456.42"/>
  <unicode hex="00C6"/>
  <anchor x="682.9821599999999" y="0.0" name="bottom"/>
  <anchor x="792.52" y="700.0" name="top"/>
  <outline>
    <contour>
      <point x="613.1400000000001" y="0.0" type="line"/>
      <point x="1361.16" y="0.0" type="line"/>
      <point x="1379.6399999999999" y="110.16" type="line"/>
      <point x="767.5799999999999" y="110.16" type="line"/>
      <point x="798.94" y="309.15999999999997" type="line"/>
      <point x="1349.36" y="309.15999999999997" type="line"/>
      <point x="1366.98" y="415.88" type="line"/>
      <point x="815.6999999999999" y="415.88" type="line"/>
      <point x="843.3399999999999" y="589.8400000000001" type="line"/>
      <point x="1428.3999999999999" y="589.8400000000001" type="line"/>
      <point x="1446.88" y="700.0" type="line"/>
      <point x="649.7800000000001" y="700.0" type="line"/>
      <point x="-41.58" y="0.0" type="line"/>
      <point x="111.83999999999999" y="0.0" type="line"/>
      <point x="371.46" y="259.28" type="line"/>
      <point x="654.38" y="259.28" type="line"/>
    </contour>
    <contour>
      <point x="451.66" y="351.38" type="line"/>
      <point x="709.96" y="613.0600000000001" type="line"/>
      <point x="668.56" y="351.38" type="line"/>
    </contour>
  </outline>
</glyph>
<glyph name="multiply" format="2">
  <advance width="562.88"/>
  <unicode hex="00D7"/>
  <outline>
    <contour>
      <point x="92.13000000000001" y="72.69999999999999" type="line"/>
      <point x="276.92" y="236.87999999999997" type="line"/>
      <point x="411.90999999999997" y="69.24" type="line"/>
      <point x="480.81" y="145.58999999999997" type="line"/>
      <point x="356.57" y="300.76000000000005" type="line"/>
      <point x="534.76" y="458.92" type="line"/>
      <point x="481.19" y="531.11" type="line"/>
      <point x="294.83" y="366.07" type="line"/>
      <point x="156.56" y="536.27" type="line"/>
      <point x="88.94999999999999" y="463.78999999999996" type="line"/>
      <point x="216.9" y="302.62" type="line"/>
      <point x="38.13" y="142.73999999999998" type="line"/>
    </contour>
  </outline>
</glyph>
<glyph name="Oslash" format="2">
  <advance width="1118.78"/>
  <unicode hex="00D8"/>
  <anchor x="601.52" y="700.0" name="top"/>
  <outline>
    <contour>
      <point x="1144.36" y="710.0" type="line"/>
      <point x="995.26" y="710.0" type="line"/>
      <point x="857.62" y="613.1600000000001" type="line"/>
      <point x="859.3399999999999" y="611.44" type="line"/>
      <point x="193.17999999999998" y="148.0" type="line"/>
      <point x="194.04" y="146.28000000000003" type="line"/>
      <point x="-20.5" y="-5.7" type="line"/>
      <point x="127.74" y="-5.7" type="line"/>
      <point x="261.36" y="87.84" type="line"/>
      <point x="259.64" y="89.56" type="line"/>
      <point x="944.72" y="565.9" type="line"/>
      <point x="943.86" y="567.62" type="line"/>
    </contour>
    <contour>
      <point x="545.3399999999999" y="-10.0" type="curve" smooth="yes"/>
      <point x="871.2199999999999" y="-10.0"/>
      <point x="1057.6599999999999" y="132.12"/>
      <point x="1057.6599999999999" y="386.82" type="curve" smooth="yes"/>
      <point x="1057.6599999999999" y="596.12"/>
      <point x="906.24" y="710.86"/>
      <point x="577.66" y="710.86" type="curve" smooth="yes"/>
      <point x="251.77999999999997" y="710.86"/>
      <point x="65.34" y="568.7399999999999"/>
      <point x="65.34" y="314.04" type="curve" smooth="yes"/>
      <point x="65.34" y="104.74"/>
      <point x="216.76" y="-10.0"/>
    </contour>
    <contour>
      <point x="551.36" y="85.54" type="curve" smooth="yes"/>
      <point x="313.76000000000005" y="85.54"/>
      <point x="206.45999999999998" y="168.20000000000002"/>
      <point x="206.45999999999998" y="321.2" type="curve" smooth="yes"/>
      <point x="206.45999999999998" y="512.3"/>
      <point x="338.90000000000003" y="615.32"/>
      <point x="571.64" y="615.32" type="curve" smooth="yes"/>
      <point x="809.2400000000001" y="615.32"/>
      <point x="916.5400000000001" y="532.6600000000001"/>
      <point x="916.5400000000001" y="379.65999999999997" type="curve" smooth="yes"/>
      <point x="916.5400000000001" y="188.56000000000003"/>
      <point x="784.1" y="85.54"/>
    </contour>
  </outline>
</glyph>
<glyph name="Thorn" format="2">
  <advance width="1010.1400000000001"/>
  <unicode hex="00DE"/>
  <outline>
    <contour>
      <point x="65.62" y="0.0" type="line"/>
      <point x="205.45000000000002" y="0.0" type="line"/>
      <point x="227.72" y="137.32" type="line"/>
      <point x="347.94" y="133.32"/>
      <point x="405.3" y="132.32"/>
      <point x="498.0199999999999" y="132.32" type="curve" smooth="yes"/>
      <point x="848.4599999999999" y="132.32"/>
      <point x="982.48" y="211.02999999999997"/>
      <point x="982.48" y="414.49" type="curve" smooth="yes"/>
      <point x="982.48" y="568.9799999999999"/>
      <point x="872.1999999999999" y="633.01"/>
      <point x="560.52" y="633.01" type="curve" smooth="yes"/>
      <point x="515.1300000000001" y="633.01"/>
      <point x="447.16" y="631.44"/>
      <point x="305.89000000000004" y="626.45" type="curve"/>
      <point x="318.46" y="700.0" type="line"/>
      <point x="178.63" y="700.0" type="line"/>
    </contour>
    <contour>
      <point x="491.43000000000006" y="232.45" type="curve" smooth="yes"/>
      <point x="399.86999999999995" y="232.45"/>
      <point x="349.52000000000004" y="233.45000000000002"/>
      <point x="244.48" y="238.01999999999998" type="curve"/>
      <point x="290.13" y="526.61" type="line"/>
      <point x="443.58000000000004" y="532.89"/>
      <point x="488.78" y="534.03"/>
      <point x="554.94" y="534.03" type="curve" smooth="yes"/>
      <point x="765.72" y="534.03"/>
      <point x="837.0600000000001" y="499.21000000000004"/>
      <point x="837.0600000000001" y="409.20000000000005" type="curve" smooth="yes"/>
      <point x="837.0600000000001" y="281.8"/>
      <point x="755.9" y="232.45"/>
    </contour>
  </outline>
</glyph>
<glyph name="germandbls" format="2">
  <advance width="929.0799999999999"/>
  <unicode hex="00DF"/>
  <outline>
    <contour>
      <point x="91.4" y="-20.420000000000005" type="line" smooth="yes"/>
      <point x="81.7" y="-85.2"/>
      <point x="57.86" y="-122.16000000000001"/>
      <point x="11.480000000000004" y="-122.16000000000001" type="curve" smooth="yes"/>
      <point x="-1.7999999999999923" y="-122.16000000000001"/>
      <point x="-21.22" y="-120.16"/>
      <point x="-40.339999999999996" y="-112.6" type="curve"/>
      <point x="-61.68000000000001" y="-200.98000000000002" type="line"/>
      <point x="-30.64" y="-215.28"/>
      <point x="12.659999999999997" y="-220.0"/>
      <point x="47.739999999999995" y="-220.0" type="curve" smooth="yes"/>
      <point x="143.68" y="-220.0"/>
      <point x="199.32" y="-153.10000000000002"/>
      <point x="216.9" y="-40.9" type="curve" smooth="yes"/>
      <point x="299.02" y="475.4" type="line" smooth="yes"/>
      <point x="321.13999999999993" y="612.9799999999999"/>
      <point x="396.53999999999996" y="663.48"/>
      <point x="561.14" y="663.48" type="curve" smooth="yes"/>
      <point x="671.9" y="663.48"/>
      <point x="733.02" y="640.94"/>
      <point x="733.02" y="600.02" type="curve" smooth="yes"/>
      <point x="733.02" y="563.08"/>
      <point x="713.6799999999998" y="544.8399999999999"/>
      <point x="578.28" y="527.5600000000001" type="curve" smooth="yes"/>
      <point x="438.94" y="509.86"/>
      <point x="375.5" y="463.84"/>
      <point x="375.5" y="368.35999999999996" type="curve" smooth="yes"/>
      <point x="375.5" y="278.48"/>
      <point x="441.36" y="239.88000000000002"/>
      <point x="606.5000000000001" y="219.6" type="curve" smooth="yes"/>
      <point x="736.52" y="203.32"/>
      <point x="788.9199999999998" y="187.79999999999998"/>
      <point x="788.9199999999998" y="144.02" type="curve" smooth="yes"/>
      <point x="788.9199999999998" y="89.7"/>
      <point x="720.48" y="75.21999999999998"/>
      <point x="604.12" y="75.21999999999998" type="curve" smooth="yes"/>
      <point x="523.28" y="75.21999999999998"/>
      <point x="407.42" y="94.49999999999999"/>
      <point x="328.29999999999995" y="121.33999999999999" type="curve"/>
      <point x="302.96" y="35.980000000000004" type="line"/>
      <point x="390.96" y="7.42"/>
      <point x="497.64" y="-11.0"/>
      <point x="587.3599999999999" y="-11.0" type="curve" smooth="yes"/>
      <point x="799.26" y="-11.0"/>
      <point x="906.8199999999999" y="37.58"/>
      <point x="906.8199999999999" y="156.48" type="curve" smooth="yes"/>
      <point x="906.8199999999999" y="237.07999999999998"/>
      <point x="834.66" y="288.26"/>
      <point x="685.0799999999999" y="305.68000000000006" type="curve" smooth="yes"/>
      <point x="534.78" y="323.1"/>
      <point x="488.24" y="333.62000000000006"/>
      <point x="488.24" y="379.82000000000005" type="curve" smooth="yes"/>
      <point x="488.24" y="422.88"/>
      <point x="536.8" y="436.24"/>
      <point x="660.7" y="452.94" type="curve" smooth="yes"/>
      <point x="793.8799999999999" y="470.63999999999993"/>
      <point x="838.88" y="521.9799999999999"/>
      <point x="838.88" y="605.74" type="curve" smooth="yes"/>
      <point x="838.88" y="699.38"/>
      <point x="751.12" y="750.0"/>
      <point x="559.4399999999999" y="750.0" type="curve" smooth="yes"/>
      <point x="325.18" y="750.0"/>
      <point x="205.66000000000003" y="679.3"/>
      <point x="175.38000000000002" y="496.44000000000005" type="curve" smooth="yes"/>
      <point x="173.52" y="484.0" type="line"/>
      <point x="43.74" y="470.70000000000005" type="line"/>
      <point x="30.419999999999998" y="396.06" type="line"/>
      <point x="157.34" y="396.06" type="line"/>
    </contour>
  </outline>
</glyph>
<glyph name="ae" format="2">
  <advance width="1309.3"/>
  <unicode hex="00E6"/>
  <anchor x="608.8" y="0.0" name="bottom"/>
  <anchor x="686.4000000000001" y="538.6" name="top"/>
  <outline>
    <contour>
      <point x="293.34" y="-10.0" type="curve" smooth="yes"/>
      <point x="387.14000000000004" y="-10.0"/>
      <point x="483.2199999999999" y="25.26"/>
      <point x="554.22" y="67.96" type="curve"/>
      <point x="543.8" y="0.0" type="line"/>
      <point x="661.6999999999999" y="0.0" type="line"/>
      <point x="675.38" y="87.92000000000002" type="line"/>
      <point x="714.72" y="31.24"/>
      <point x="799.26" y="-10.0"/>
      <point x="929.8799999999999" y="-10.0" type="curve" smooth="yes"/>
      <point x="1025.42" y="-10.0"/>
      <point x="1137.48" y="9.979999999999999"/>
      <point x="1222.8799999999999" y="39.24" type="curve"/>
      <point x="1210.86" y="126.89999999999998" type="line"/>
      <point x="1115.02" y="94.92"/>
      <point x="1004.8" y="77.8"/>
      <point x="936.9" y="77.8" type="curve" smooth="yes"/>
      <point x="797.0" y="77.8"/>
      <point x="698.7" y="138.48000000000002"/>
      <point x="698.7" y="230.22" type="curve" smooth="yes"/>
      <point x="698.7" y="366.78"/>
      <point x="813.4200000000001" y="464.24"/>
      <point x="983.9000000000001" y="464.24" type="curve" smooth="yes"/>
      <point x="1083.6" y="464.24"/>
      <point x="1136.08" y="436.0"/>
      <point x="1136.08" y="383.8" type="curve" smooth="yes"/>
      <point x="1136.08" y="321.18"/>
      <point x="1040.76" y="287.38"/>
      <point x="870.38" y="286.52" type="curve" smooth="yes"/>
      <point x="800.3199999999999" y="285.66"/>
      <point x="733.14" y="291.36"/>
      <point x="680.5000000000001" y="302.47999999999996" type="curve"/>
      <point x="685.96" y="235.18" type="line"/>
      <point x="745.2" y="221.62"/>
      <point x="825.56" y="213.34"/>
      <point x="912.54" y="214.20000000000002" type="curve" smooth="yes"/>
      <point x="1149.64" y="215.05999999999997"/>
      <point x="1274.62" y="285.82"/>
      <point x="1274.62" y="393.82" type="curve" smooth="yes"/>
      <point x="1274.62" y="491.72"/>
      <point x="1182.04" y="548.6"/>
      <point x="1028.76" y="548.6" type="curve" smooth="yes"/>
      <point x="895.04" y="548.6"/>
      <point x="788.86" y="503.9599999999999"/>
      <point x="734.04" y="447.44" type="curve"/>
      <point x="747.42" y="538.6" type="line"/>
      <point x="628.66" y="538.6" type="line"/>
      <point x="621.38" y="492.76000000000005" type="line"/>
      <point x="569.42" y="530.04"/>
      <point x="503.47999999999996" y="548.6"/>
      <point x="427.64" y="548.6" type="curve" smooth="yes"/>
      <point x="204.32" y="548.6"/>
      <point x="42.1" y="418.96000000000004"/>
      <point x="42.1" y="217.3" type="curve" smooth="yes"/>
      <point x="42.1" y="67.69999999999999"/>
      <point x="137.52" y="-10.0"/>
    </contour>
    <contour>
      <point x="355.96000000000004" y="85.53999999999999" type="curve" smooth="yes"/>
      <point x="247.98000000000002" y="85.53999999999999"/>
      <point x="174.76" y="136.6"/>
      <point x="174.76" y="233.64" type="curve" smooth="yes"/>
      <point x="174.76" y="401.32"/>
      <point x="323.03999999999996" y="465.24"/>
      <point x="454.74" y="465.24" type="curve" smooth="yes"/>
      <point x="515.66" y="465.24"/>
      <point x="563.28" y="455.56"/>
      <point x="610.78" y="425.46000000000004" type="curve"/>
      <point x="566.82" y="147.71999999999997" type="line"/>
      <point x="505.31999999999994" y="110.64"/>
      <point x="426.43999999999994" y="85.53999999999999"/>
    </contour>
  </outline>
</glyph>
<glyph name="eth" format="2">
  <advance width="880.22"/>
  <unicode hex="00F0"/>
  <outline>
    <contour>
      <point x="729.08" y="367.78000000000003" type="curve"/>
      <point x="742.4" y="445.25999999999993" type="line"/>
      <point x="667.84" y="499.88000000000005"/>
      <point x="544.92" y="528.12"/>
      <point x="418.46" y="528.12" type="curve" smooth="yes"/>
      <point x="197.92" y="528.12"/>
      <point x="46.080000000000005" y="434.54"/>
      <point x="46.080000000000005" y="245.70000000000002" type="curve" smooth="yes"/>
      <point x="46.080000000000005" y="51.3"/>
      <point x="194.78" y="-9.14"/>
      <point x="395.08000000000004" y="-9.14" type="curve" smooth="yes"/>
      <point x="643.84" y="-9.14"/>
      <point x="800.98" y="96.44"/>
      <point x="838.56" y="321.44" type="curve" smooth="yes"/>
      <point x="843.4200000000001" y="347.02000000000004"/>
      <point x="844.42" y="372.46000000000004"/>
      <point x="844.42" y="396.18" type="curve" smooth="yes"/>
      <point x="844.42" y="641.74"/>
      <point x="641.0200000000001" y="734.9399999999999"/>
      <point x="326.8" y="734.9399999999999" type="curve" smooth="yes"/>
      <point x="248.97999999999996" y="734.9399999999999"/>
      <point x="190.98000000000002" y="727.52"/>
      <point x="126.72000000000001" y="716.24" type="curve"/>
      <point x="118.53999999999999" y="642.2" type="line"/>
      <point x="175.94" y="650.62"/>
      <point x="217.6" y="658.32"/>
      <point x="314.62" y="658.32" type="curve" smooth="yes"/>
      <point x="585.44" y="658.32"/>
      <point x="712.6200000000001" y="580.86"/>
      <point x="712.6200000000001" y="415.82" type="curve" smooth="yes"/>
      <point x="712.6200000000001" y="391.38"/>
      <point x="711.62" y="365.22"/>
      <point x="705.9000000000001" y="334.47999999999996" type="curve" smooth="yes"/>
      <point x="677.0600000000001" y="157.01999999999998"/>
      <point x="577.48" y="77.8"/>
      <point x="410.26" y="77.8" type="curve" smooth="yes"/>
      <point x="273.28000000000003" y="77.8"/>
      <point x="176.88" y="121.2"/>
      <point x="176.88" y="253.72" type="curve" smooth="yes"/>
      <point x="176.88" y="382.14"/>
      <point x="288.32" y="447.20000000000005"/>
      <point x="441.54" y="447.20000000000005" type="curve" smooth="yes"/>
      <point x="564.4200000000001" y="447.20000000000005"/>
      <point x="660.5600000000001" y="417.96000000000004"/>
    </contour>
    <contour>
      <point x="291.84000000000003" y="542.26" type="line"/>
      <point x="607.1600000000001" y="650.8399999999999" type="line"/>
      <point x="595.7" y="653.5600000000001" type="line"/>
      <point x="870.7" y="749.24" type="line"/>
      <point x="718.6999999999999" y="749.24" type="line"/>
      <point x="522.5400000000001" y="680.9" type="line"/>
      <point x="537.72" y="679.9" type="line"/>
      <point x="138.98" y="542.26" type="line"/>
    </contour>
  </outline>
</glyph>
<glyph name="divide" format="2">
  <advance width="611.9"/>
  <unicode hex="00F7"/>
  <outline>
    <contour>
      <point x="219.32" y="97.33999999999999" type="curve" smooth="yes"/>
      <point x="218.32" y="72.86"/>
      <point x="235.22" y="62.39999999999999"/>
      <point x="271.88" y="62.39999999999999" type="curve" smooth="yes"/>
      <point x="314.82" y="62.39999999999999"/>
      <point x="339.9" y="74.58"/>
      <point x="342.03999999999996" y="122.52000000000001" type="curve" smooth="yes"/>
      <point x="343.03999999999996" y="147.0"/>
      <point x="327.0" y="157.45999999999998"/>
      <point x="289.48" y="157.45999999999998" type="curve" smooth="yes"/>
      <point x="248.26" y="157.45999999999998"/>
      <point x="221.46" y="144.42000000000002"/>
    </contour>
    <contour>
      <point x="281.74" y="482.14" type="curve" smooth="yes"/>
      <point x="280.74" y="458.52"/>
      <point x="296.78" y="447.20000000000005"/>
      <point x="334.3" y="447.20000000000005" type="curve" smooth="yes"/>
      <point x="377.24" y="447.20000000000005"/>
      <point x="401.46" y="461.1"/>
      <point x="403.59999999999997" y="508.18" type="curve" smooth="yes"/>
      <point x="404.59999999999997" y="532.66"/>
      <point x="388.56" y="542.26"/>
      <point x="351.03999999999996" y="542.26" type="curve" smooth="yes"/>
      <point x="308.96000000000004" y="542.26"/>
      <point x="283.88" y="529.22"/>
    </contour>
    <contour>
      <point x="58.84" y="252.33999999999997" type="line"/>
      <point x="545.46" y="252.33999999999997" type="line"/>
      <point x="562.36" y="351.46" type="line"/>
      <point x="75.74000000000001" y="351.46" type="line"/>
    </contour>
  </outline>
</glyph>
<glyph name="oslash" format="2">
  <advance width="837.88"/>
  <unicode hex="00F8"/>
  <anchor x="444.74" y="538.6" name="top"/>
  <outline>
    <contour>
      <point x="729.16" y="550.32" type="line"/>
      <point x="627.5600000000001" y="467.56" type="line"/>
      <point x="627.56" y="467.56" type="line"/>
      <point x="184.57999999999998" y="108.12" type="line"/>
      <point x="184.57999999999998" y="108.12" type="line"/>
      <point x="40.18" y="-10.0" type="line"/>
      <point x="134.82" y="-10.0" type="line"/>
      <point x="228.96" y="67.02000000000001" type="line"/>
      <point x="228.96" y="67.02" type="line"/>
      <point x="682.12" y="434.06000000000006" type="line"/>
      <point x="682.12" y="434.06" type="line"/>
      <point x="823.8" y="550.32" type="line"/>
    </contour>
    <contour>
      <point x="411.74" y="-10.0" type="curve" smooth="yes"/>
      <point x="654.62" y="-10.0"/>
      <point x="787.22" y="98.58000000000003"/>
      <point x="785.5" y="292.7" type="curve" smooth="yes"/>
      <point x="783.78" y="455.41999999999996"/>
      <point x="657.46" y="550.32"/>
      <point x="423.99999999999994" y="550.32" type="curve" smooth="yes"/>
      <point x="181.11999999999998" y="550.32"/>
      <point x="48.52" y="441.74"/>
      <point x="50.24" y="247.62" type="curve" smooth="yes"/>
      <point x="51.96" y="84.9"/>
      <point x="178.27999999999997" y="-10.0"/>
    </contour>
    <contour>
      <point x="412.59999999999997" y="74.36" type="curve" smooth="yes"/>
      <point x="263.66" y="74.36"/>
      <point x="183.62" y="132.44"/>
      <point x="183.62" y="258.8" type="curve" smooth="yes"/>
      <point x="183.62" y="391.18"/>
      <point x="263.35999999999996" y="465.96000000000004"/>
      <point x="423.14" y="465.96000000000004" type="curve" smooth="yes"/>
      <point x="572.08" y="465.96000000000004"/>
      <point x="652.12" y="408.74"/>
      <point x="652.12" y="282.38" type="curve" smooth="yes"/>
      <point x="652.12" y="150.0"/>
      <point x="572.38" y="74.36"/>
    </contour>
  </outline>
</glyph>
<glyph name="thorn" format="2">
  <advance width="827.13"/>
  <unicode hex="00FE"/>
  <outline>
    <contour>
      <point x="19.19" y="-210.0" type="line"/>
      <point x="151.27999999999997" y="-210.0" type="line"/>
      <point x="186.85" y="9.55" type="line"/>
      <point x="230.96" y="0.1299999999999999"/>
      <point x="290.93" y="-10.0"/>
      <point x="360.3" y="-10.0" type="curve" smooth="yes"/>
      <point x="627.95" y="-10.0"/>
      <point x="784.32" y="118.56"/>
      <point x="784.32" y="333.75" type="curve" smooth="yes"/>
      <point x="784.32" y="468.02"/>
      <point x="703.77" y="548.6"/>
      <point x="553.76" y="548.6" type="curve" smooth="yes"/>
      <point x="439.8" y="548.6"/>
      <point x="352.84" y="507.07000000000005"/>
      <point x="254.01" y="443.96000000000004" type="curve"/>
      <point x="300.84999999999997" y="740.0" type="line"/>
      <point x="169.62" y="740.0" type="line"/>
    </contour>
    <contour>
      <point x="366.03" y="78.66" type="curve" smooth="yes"/>
      <point x="299.39" y="78.66"/>
      <point x="243.72" y="90.92999999999999"/>
      <point x="201.02999999999997" y="101.07" type="curve"/>
      <point x="241.83999999999997" y="358.62" type="line"/>
      <point x="328.01" y="414.94"/>
      <point x="409.37" y="446.60999999999996"/>
      <point x="489.14000000000004" y="446.60999999999996" type="curve" smooth="yes"/>
      <point x="589.86" y="446.60999999999996"/>
      <point x="650.9399999999999" y="399.69"/>
      <point x="650.9399999999999" y="303.95000000000005" type="curve" smooth="yes"/>
      <point x="650.9399999999999" y="166.82999999999998"/>
      <point x="528.9499999999999" y="78.66"/>
    </contour>
  </outline>
</glyph>
<glyph name="Dcroat" format="2">
  <advance width="1081.6000000000001"/>
  <unicode hex="0110"/>
  <outline>
    <contour>
      <point x="23.279999999999998" y="314.15999999999997" type="line"/>
      <point x="466.58" y="314.15999999999997" type="line"/>
      <point x="482.4800000000001" y="403.54" type="line"/>
      <point x="38.599999999999994" y="403.54" type="line"/>
    </contour>
    <component base="D" xOffset="4.300000000000001"/>
  </outline>
</glyph>
<glyph name="dcroat" format="2">
  <advance width="844.76"/>
  <unicode hex="0111"/>
  <outline>
    <contour>
      <point x="439.06" y="606.82" type="line"/>
      <point x="890.68" y="606.82" type="line"/>
      <point x="903.14" y="671.2600000000001" type="line"/>
      <point x="451.52000000000004" y="671.2600000000001" type="line"/>
    </contour>
    <component base="d"/>
  </outline>
</glyph>
<glyph name="Hbar" format="2">
  <advance width="1095.96"/>
  <unicode hex="0126"/>
  <outline>
    <contour>
      <point x="69.7" y="494.41" type="line"/>
      <point x="1097.8300000000002" y="494.41" type="line"/>
      <point x="1111.1499999999999" y="579.34" type="line"/>
      <point x="83.02000000000001" y="579.34" type="line"/>
    </contour>
    <component base="H" xOffset="0.9999999999999998"/>
  </outline>
</glyph>
<glyph name="hbar" format="2">
  <advance width="836.8799999999999"/>
  <unicode hex="0127"/>
  <outline>
    <contour>
      <point x="39.82" y="606.82" type="line"/>
      <point x="500.67999999999995" y="606.82" type="line"/>
      <point x="513.1399999999999" y="671.2600000000001" type="line"/>
      <point x="52.279999999999994" y="671.2600000000001" type="line"/>
    </contour>
    <component base="h" xOffset="-2.5799999999999996"/>
  </outline>
</glyph>
<glyph name="Idotaccent" format="2">
  <advance width="359.65"/>
  <unicode hex="0130"/>
  <outline>
    <contour>
      <point x="279.40999999999997" y="900.6700000000001" type="curve" smooth="yes"/>
      <point x="217.39" y="900.6700000000001"/>
      <point x="187.88000000000002" y="883.04"/>
      <point x="187.31" y="831.24" type="curve" smooth="yes"/>
      <point x="187.31" y="802.3100000000001"/>
      <point x="210.07999999999998" y="786.6899999999999"/>
      <point x="258.94" y="786.6899999999999" type="curve" smooth="yes"/>
      <point x="311.77000000000004" y="786.6899999999999"/>
      <point x="350.61" y="798.3"/>
      <point x="351.75" y="857.12" type="curve" smooth="yes"/>
      <point x="351.75" y="885.0500000000001"/>
      <point x="330.69" y="900.6700000000001"/>
    </contour>
    <component base="I"/>
  </outline>
</glyph>
<glyph name="dotlessi" format="2">
  <advance width="325.05"/>
  <unicode hex="0131"/>
  <anchor x="118.43091999999999" y="0.0" name="bottom"/>
  <anchor x="185.43" y="0.0" name="ogonek"/>
  <anchor x="204.33908" y="538.6" name="top"/>
  <outline>
    <contour>
      <point x="185.43" y="0.0" type="line"/>
      <point x="270.29" y="538.6" type="line"/>
      <point x="137.77" y="538.6" type="line"/>
      <point x="52.05000000000001" y="0.43" type="line"/>
    </contour>
  </outline>
</glyph>
<glyph name="kgreenlandic" format="2">
  <advance width="766.02"/>
  <unicode hex="0138"/>
  <anchor x="350.48" y="0.0" name="bottom"/>
  <anchor x="435.68" y="538.6" name="top"/>
  <outline>
    <contour>
      <point x="52.61999999999999" y="0.0" type="line"/>
      <point x="185.28" y="0.0" type="line"/>
      <point x="270.86" y="538.6" type="line"/>
      <point x="137.34" y="538.6" type="line"/>
    </contour>
    <contour>
      <point x="680.22" y="-10.0" type="curve" smooth="yes"/>
      <point x="691.8" y="-10.0"/>
      <point x="704.66" y="-7.86"/>
      <point x="714.1" y="-4.720000000000001" type="curve"/>
      <point x="730.46" y="112.47999999999999" type="line"/>
      <point x="722.74" y="110.34"/>
      <point x="713.74" y="110.19999999999999"/>
      <point x="705.16" y="110.19999999999999" type="curve" smooth="yes"/>
      <point x="657.12" y="110.2"/>
      <point x="596.52" y="138.74"/>
      <point x="459.16" y="241.78" type="curve" smooth="yes"/>
      <point x="231.98" y="411.90000000000003" type="line"/>
      <point x="212.64" y="284.84" type="line"/>
      <point x="422.76000000000005" y="124.9" type="line" smooth="yes"/>
      <point x="548.24" y="29.44"/>
      <point x="614.88" y="-10.0"/>
    </contour>
    <contour>
      <point x="397.5" y="267.44" type="line"/>
      <point x="564.42" y="340.74"/>
      <point x="700.3799999999999" y="444.2"/>
      <point x="764.6199999999999" y="537.46" type="curve"/>
      <point x="603.7" y="548.6" type="line"/>
      <point x="528.06" y="451.08000000000004"/>
      <point x="446.38" y="389.36"/>
      <point x="274.0" y="306.96" type="curve"/>
    </contour>
  </outline>
</glyph>
<glyph name="Ldot" format="2">
  <advance width="844.7299999999999"/>
  <unicode hex="013F"/>
  <outline>
    <contour>
      <point x="553.85" y="395.97" type="curve" smooth="yes"/>
      <point x="553.28" y="364.61"/>
      <point x="574.0500000000001" y="348.99"/>
      <point x="618.88" y="348.99" type="curve" smooth="yes"/>
      <point x="672.5699999999999" y="348.99"/>
      <point x="702.81" y="367.19"/>
      <point x="704.52" y="419.0" type="curve" smooth="yes"/>
      <point x="705.09" y="451.22"/>
      <point x="684.3199999999999" y="466.84"/>
      <point x="639.9200000000001" y="466.84" type="curve" smooth="yes"/>
      <point x="586.66" y="466.84"/>
      <point x="555.56" y="446.06"/>
    </contour>
    <component base="L"/>
  </outline>
</glyph>
<glyph name="ldot" format="2">
  <advance width="432.46000000000004"/>
  <unicode hex="0140"/>
  <outline>
    <contour>
      <point x="350.98743" y="377.82272" type="curve" smooth="yes"/>
      <point x="350.41743" y="354.93888000000004"/>
      <point x="363.28059" y="344.18218"/>
      <point x="391.37757" y="344.18218" type="curve" smooth="yes"/>
      <point x="426.49544" y="344.18218"/>
      <point x="444.04786" y="356.68511"/>
      <point x="445.75786" y="395.98942000000005" type="curve" smooth="yes"/>
      <point x="446.32786000000004" y="419.45590999999996"/>
      <point x="433.4647" y="430.21261"/>
      <point x="405.61411000000004" y="430.21261" type="curve" smooth="yes"/>
      <point x="370.74219999999997" y="430.21261"/>
      <point x="352.69743000000005" y="415.96302000000003"/>
    </contour>
    <component base="l"/>
  </outline>
</glyph>
<glyph name="Lslash" format="2">
  <advance width="838.28"/>
  <unicode hex="0141"/>
  <outline>
    <contour>
      <point x="58.6" y="0.0" type="line"/>
      <point x="769.11" y="0.0" type="line"/>
      <point x="788.02" y="107.58" type="line"/>
      <point x="216.48" y="107.58" type="line"/>
      <point x="242.02" y="270.52" type="line"/>
      <point x="582.98" y="444.22999999999996" type="line"/>
      <point x="601.17" y="554.81" type="line"/>
      <point x="260.21" y="381.09999999999997" type="line"/>
      <point x="311.15000000000003" y="700.0" type="line"/>
      <point x="171.32" y="700.0" type="line"/>
      <point x="109.35" y="314.49" type="line"/>
      <point x="25.96" y="272.38000000000005" type="line"/>
      <point x="8.629999999999999" y="163.95" type="line"/>
      <point x="91.16" y="205.63" type="line"/>
    </contour>
  </outline>
</glyph>
<glyph name="lslash" format="2">
  <advance width="410.96000000000004"/>
  <unicode hex="0142"/>
  <outline>
    <contour>
      <point x="7.66" y="162.47" type="line"/>
      <point x="374.51000000000005" y="406.63" type="line"/>
      <point x="389.69" y="502.57000000000005" type="line"/>
      <point x="22.410000000000004" y="258.41" type="line"/>
    </contour>
    <component base="l"/>
  </outline>
</glyph>
<glyph name="Eng" format="2">
  <advance width="1064.28"/>
  <unicode hex="014A"/>
  <outline>
    <contour>
      <point x="65.05" y="0.0" type="line"/>
      <point x="192.98000000000002" y="0.0" type="line"/>
      <point x="278.19" y="533.93" type="line"/>
      <point x="783.6" y="0.4499999999999993" type="line"/>
      <point x="758.6600000000001" y="-100.66"/>
      <point x="675.3599999999999" y="-127.9"/>
      <point x="584.75" y="-127.9" type="curve" smooth="yes"/>
      <point x="537.5" y="-127.9"/>
      <point x="491.97999999999996" y="-119.75999999999999"/>
      <point x="450.87" y="-108.04" type="curve"/>
      <point x="430.96" y="-200.71" type="line"/>
      <point x="486.26" y="-214.58"/>
      <point x="555.29" y="-220.0"/>
      <point x="598.09" y="-220.0" type="curve" smooth="yes"/>
      <point x="769.25" y="-220.0"/>
      <point x="882.5" y="-161.92000000000002"/>
      <point x="911.5" y="16.65" type="curve" smooth="yes"/>
      <point x="1022.23" y="700.0" type="line"/>
      <point x="894.3" y="700.0" type="line"/>
      <point x="807.37" y="155.9" type="line"/>
      <point x="299.25" y="705.7" type="line"/>
      <point x="179.34" y="705.7" type="line"/>
    </contour>
  </outline>
</glyph>
<glyph name="eng" format="2">
  <advance width="833.02"/>
  <unicode hex="014B"/>
  <outline>
    <contour>
      <point x="690.58" y="-11.639999999999997" type="curve" smooth="yes"/>
      <point x="692.7299999999999" y="1.259999999999991"/>
      <point x="754.98" y="371.08000000000004"/>
      <point x="754.98" y="394.33000000000004" type="curve" smooth="yes"/>
      <point x="754.98" y="487.15999999999997"/>
      <point x="687.96" y="548.6"/>
      <point x="557.66" y="548.6" type="curve" smooth="yes"/>
      <point x="444.16" y="548.6"/>
      <point x="362.93000000000006" y="512.63"/>
      <point x="243.68" y="455.7900000000001" type="curve"/>
      <point x="256.53000000000003" y="538.6" type="line"/>
      <point x="137.34" y="538.6" type="line"/>
      <point x="52.620000000000005" y="0.0" type="line"/>
      <point x="182.99" y="0.0" type="line"/>
      <point x="244.12" y="379.61" type="line"/>
      <point x="338.40999999999997" y="422.25"/>
      <point x="405.9" y="451.77"/>
      <point x="494.89" y="451.77" type="curve" smooth="yes"/>
      <point x="579.63" y="451.77"/>
      <point x="619.17" y="412.96999999999997"/>
      <point x="615.73" y="342.46" type="curve" smooth="yes"/>
      <point x="610.5699999999999" y="289.84"/>
      <point x="565.51" y="25.17999999999998"/>
      <point x="560.35" y="-5.780000000000001" type="curve" smooth="yes"/>
      <point x="547.21" y="-86.9"/>
      <point x="516.49" y="-123.00000000000001"/>
      <point x="455.49" y="-123.00000000000001" type="curve" smooth="yes"/>
      <point x="444.78999999999996" y="-123.00000000000001"/>
      <point x="430.09999999999997" y="-121.85999999999999"/>
      <point x="413.12999999999994" y="-115.59" type="curve"/>
      <point x="391.78999999999996" y="-213.86" type="line"/>
      <point x="414.65999999999997" y="-220.42"/>
      <point x="462.69" y="-223.42"/>
      <point x="489.16999999999996" y="-223.42" type="curve" smooth="yes"/>
      <point x="612.63" y="-223.42"/>
      <point x="668.7" y="-148.35000000000002"/>
    </contour>
  </outline>
</glyph>
<glyph name="OE" format="2">
  <advance width="1637.4599999999998"/>
  <unicode hex="0152"/>
  <outline>
    <contour>
      <point x="1542.2" y="0.0" type="line"/>
      <point x="1560.68" y="110.16" type="line"/>
      <point x="932.4200000000001" y="110.16" type="line"/>
      <point x="965.2" y="312.94" type="line"/>
      <point x="1536.6" y="312.94" type="line"/>
      <point x="1554.22" y="419.65999999999997" type="line"/>
      <point x="981.1" y="419.65999999999997" type="line"/>
      <point x="1007.3199999999999" y="589.84" type="line"/>
      <point x="1610.3000000000002" y="589.84" type="line"/>
      <point x="1627.92" y="700.0" type="line"/>
      <point x="1029.24" y="700.0" type="line"/>
      <point x="896.94" y="704.42"/>
      <point x="771.0" y="710.0"/>
      <point x="612.76" y="710.0" type="curve" smooth="yes"/>
      <point x="305.3" y="710.0"/>
      <point x="73.8" y="579.22"/>
      <point x="73.8" y="306.99999999999994" type="curve" smooth="yes"/>
      <point x="73.8" y="100.74"/>
      <point x="214.48000000000002" y="-10.0"/>
      <point x="543.8199999999999" y="-10.0" type="curve" smooth="yes"/>
      <point x="682.7799999999999" y="-10.0"/>
      <point x="788.9399999999999" y="-4.419999999999999"/>
      <point x="916.52" y="0.0" type="curve"/>
    </contour>
    <contour>
      <point x="794.74" y="92.24000000000001" type="line"/>
      <point x="715.42" y="86.96"/>
      <point x="644.0400000000001" y="83.82"/>
      <point x="553.24" y="83.82" type="curve" smooth="yes"/>
      <point x="330.1" y="83.82"/>
      <point x="211.62" y="165.20000000000002"/>
      <point x="211.62" y="316.88000000000005" type="curve" smooth="yes"/>
      <point x="211.62" y="512.04"/>
      <point x="377.48" y="616.1800000000001"/>
      <point x="609.1600000000001" y="616.1800000000001" type="curve" smooth="yes"/>
      <point x="670.5" y="616.1800000000001"/>
      <point x="815.9399999999999" y="612.18"/>
      <point x="877.38" y="608.9" type="curve"/>
    </contour>
  </outline>
</glyph>
<glyph name="oe" format="2">
  <advance width="1387.5200000000002"/>
  <unicode hex="0153"/>
  <outline>
    <contour>
      <point x="404.86" y="-10.0" type="curve" smooth="yes"/>
      <point x="542.58" y="-10.0"/>
      <point x="645.54" y="19.180000000000003"/>
      <point x="701.5799999999999" y="95.62" type="curve"/>
      <point x="747.8199999999999" y="22.62"/>
      <point x="843.0999999999999" y="-10.0"/>
      <point x="977.9999999999999" y="-10.0" type="curve" smooth="yes"/>
      <point x="1083.86" y="-10.0"/>
      <point x="1205.38" y="9.979999999999999"/>
      <point x="1301.1" y="39.24" type="curve"/>
      <point x="1289.08" y="126.89999999999999" type="line"/>
      <point x="1186.3600000000001" y="94.92"/>
      <point x="1070.12" y="77.8"/>
      <point x="997.0600000000002" y="77.8" type="curve" smooth="yes"/>
      <point x="842.54" y="77.8"/>
      <point x="776.92" y="127.3"/>
      <point x="776.92" y="230.22" type="curve" smooth="yes"/>
      <point x="776.92" y="366.78"/>
      <point x="890.78" y="464.24"/>
      <point x="1061.2600000000002" y="464.24" type="curve" smooth="yes"/>
      <point x="1160.96" y="464.24"/>
      <point x="1213.44" y="436.0"/>
      <point x="1213.44" y="383.8" type="curve" smooth="yes"/>
      <point x="1213.44" y="321.18"/>
      <point x="1118.12" y="302.86"/>
      <point x="948.5999999999999" y="301.14" type="curve" smooth="yes"/>
      <point x="880.8199999999999" y="300.28000000000003"/>
      <point x="809.36" y="305.98"/>
      <point x="756.72" y="315.96" type="curve"/>
      <point x="762.18" y="242.64" type="line"/>
      <point x="822.28" y="230.22"/>
      <point x="905.2" y="221.94"/>
      <point x="989.9000000000001" y="222.79999999999998" type="curve" smooth="yes"/>
      <point x="1227.86" y="224.52000000000004"/>
      <point x="1352.84" y="285.82"/>
      <point x="1352.84" y="393.82" type="curve" smooth="yes"/>
      <point x="1352.84" y="491.72"/>
      <point x="1246.5" y="548.6"/>
      <point x="1072.58" y="548.6" type="curve" smooth="yes"/>
      <point x="909.56" y="548.6"/>
      <point x="789.9200000000001" y="499.85999999999996"/>
      <point x="729.32" y="421.46" type="curve"/>
      <point x="689.22" y="504.56"/>
      <point x="587.7" y="549.46"/>
      <point x="423.14" y="549.46" type="curve" smooth="yes"/>
      <point x="203.48" y="549.46"/>
      <point x="53.68" y="459.8"/>
      <point x="50.24" y="254.5" type="curve" smooth="yes"/>
      <point x="47.660000000000004" y="84.9"/>
      <point x="180.85999999999999" y="-10.0"/>
    </contour>
    <contour>
      <point x="410.02000000000004" y="74.36" type="curve" smooth="yes"/>
      <point x="261.94" y="74.36"/>
      <point x="184.48000000000002" y="139.32"/>
      <point x="184.48000000000002" y="254.50000000000003" type="curve" smooth="yes"/>
      <point x="184.48000000000002" y="393.76"/>
      <point x="265.94" y="465.96"/>
      <point x="426.58" y="465.96" type="curve" smooth="yes"/>
      <point x="576.8" y="465.96"/>
      <point x="652.98" y="402.72"/>
      <point x="652.98" y="284.96000000000004" type="curve" smooth="yes"/>
      <point x="652.98" y="139.67999999999998"/>
      <point x="563.78" y="74.36"/>
    </contour>
  </outline>
</glyph>
<glyph name="uni0162" format="2">
  <advance width="864.3"/>
  <unicode hex="0162"/>
  <anchor x="388.15" y="0.0" name="_bottom"/>
  <anchor x="320.34000000000003" y="-220.0" name="bottom"/>
  <outline>
    <contour>
      <point x="200.52" y="-192.04" type="line"/>
      <point x="242.23" y="-211.44"/>
      <point x="278.65000000000003" y="-220.0"/>
      <point x="325.47" y="-220.0" type="curve" smooth="yes"/>
      <point x="420.51" y="-220.0"/>
      <point x="494.88" y="-170.85"/>
      <point x="494.88" y="-79.49000000000001" type="curve" smooth="yes"/>
      <point x="494.88" y="-38.97"/>
      <point x="470.92999999999995" y="-8.709999999999997"/>
      <point x="435.29" y="7.1499999999999995" type="curve"/>
      <point x="331.41999999999996" y="4.3" type="line"/>
      <point x="370.20000000000005" y="-12.110000000000001"/>
      <point x="388.45000000000005" y="-32.510000000000005"/>
      <point x="388.45000000000005" y="-67.72999999999999" type="curve" smooth="yes"/>
      <point x="388.45000000000005" y="-116.97999999999999"/>
      <point x="352.76" y="-140.08"/>
      <point x="300.10999999999996" y="-140.08" type="curve" smooth="yes"/>
      <point x="270.89" y="-140.08"/>
      <point x="243.78" y="-131.67"/>
      <point x="218.55" y="-116.99000000000001" type="curve"/>
    </contour>
    <component base="T"/>
  </outline>
</glyph>
<glyph name="Tbar" format="2">
  <advance width="872.8999999999999"/>
  <unicode hex="0166"/>
  <outline>
    <contour>
      <point x="906.54" y="598.8699999999999" type="line"/>
      <point x="925.02" y="700.0" type="line"/>
      <point x="84.89" y="700.0" type="line"/>
      <point x="65.98" y="598.8699999999999" type="line"/>
      <point x="417.05999999999995" y="598.8699999999999" type="line"/>
      <point x="382.24" y="380.11" type="line"/>
      <point x="153.17" y="380.11" type="line"/>
      <point x="138.56" y="289.87" type="line"/>
      <point x="368.06" y="289.87" type="line"/>
      <point x="322.39" y="0.0" type="line"/>
      <point x="462.21999999999997" y="0.0" type="line"/>
      <point x="507.89" y="289.87" type="line"/>
      <point x="741.52" y="289.87" type="line"/>
      <point x="756.13" y="380.11" type="line"/>
      <point x="522.07" y="380.11" type="line"/>
      <point x="556.46" y="598.8699999999999" type="line"/>
    </contour>
  </outline>
</glyph>
<glyph name="tbar" format="2">
  <advance width="575.7800000000001"/>
  <unicode hex="0167"/>
  <outline>
    <contour>
      <point x="32.22" y="282.18" type="line"/>
      <point x="494.41999999999996" y="282.18" type="line"/>
      <point x="507.74" y="350.06" type="line"/>
      <point x="45.54" y="350.06" type="line"/>
    </contour>
    <contour>
      <point x="513.3600000000001" y="123.82000000000002" type="line"/>
      <point x="453.94" y="105.98"/>
      <point x="401.28" y="93.28"/>
      <point x="351.62" y="93.28" type="curve" smooth="yes"/>
      <point x="278.58" y="93.28"/>
      <point x="252.45999999999998" y="125.94"/>
      <point x="252.45999999999998" y="176.16" type="curve" smooth="yes"/>
      <point x="252.45999999999998" y="186.85999999999999"/>
      <point x="253.46" y="198.56"/>
      <point x="255.6" y="210.26" type="curve" smooth="yes"/>
      <point x="293.97999999999996" y="451.94" type="line"/>
      <point x="556.4599999999999" y="451.94" type="line"/>
      <point x="571.5" y="538.6" type="line"/>
      <point x="308.15999999999997" y="538.6" type="line"/>
      <point x="328.44" y="665.0" type="line"/>
      <point x="214.23999999999998" y="665.0" type="line"/>
      <point x="177.36" y="538.6" type="line"/>
      <point x="38.72" y="526.58" type="line"/>
      <point x="24.539999999999996" y="451.94" type="line"/>
      <point x="160.6" y="451.94" type="line"/>
      <point x="122.22" y="205.95999999999998" type="line" smooth="yes"/>
      <point x="118.35999999999999" y="182.79999999999998"/>
      <point x="116.35999999999999" y="159.08"/>
      <point x="116.35999999999999" y="142.92000000000002" type="curve" smooth="yes"/>
      <point x="116.35999999999999" y="29.72"/>
      <point x="184.68" y="-10.0"/>
      <point x="291.3" y="-10.0" type="curve" smooth="yes"/>
      <point x="359.06" y="-10.0"/>
      <point x="431.76" y="1.86"/>
      <point x="514.2" y="27.560000000000002" type="curve"/>
    </contour>
  </outline>
</glyph>
<glyph name="uogonek" format="2">
  <advance width="818.6700000000001"/>
  <unicode hex="0173"/>
  <outline>
    <contour>
      <point x="680.1899999999999" y="-208.82000000000002" type="curve" smooth="yes"/>
      <point x="706.63" y="-208.82000000000002"/>
      <point x="733.6500000000001" y="-205.39000000000001"/>
      <point x="757.67" y="-199.1" type="curve"/>
      <point x="764.13" y="-130.50000000000003" type="line"/>
      <point x="749.8599999999999" y="-133.78"/>
      <point x="737.73" y="-135.35"/>
      <point x="720.46" y="-135.35" type="curve" smooth="yes"/>
      <point x="683.77" y="-135.35"/>
      <point x="657.22" y="-120.65"/>
      <point x="657.22" y="-85.84" type="curve" smooth="yes"/>
      <point x="657.22" y="-47.32000000000001"/>
      <point x="689.7399999999999" y="-12.219999999999999"/>
      <point x="771.6899999999999" y="15.91" type="curve"/>
      <point x="769.12" y="91.82000000000001" type="line"/>
      <point x="755.55" y="87.25"/>
      <point x="743.2800000000001" y="85.53999999999999"/>
      <point x="738.0" y="85.53999999999999" type="curve" smooth="yes"/>
      <point x="712.04" y="85.53999999999999"/>
      <point x="695.77" y="98.95"/>
      <point x="695.77" y="139.32" type="curve" smooth="yes"/>
      <point x="695.77" y="149.01999999999998"/>
      <point x="696.77" y="169.56"/>
      <point x="756.4699999999999" y="538.6" type="curve"/>
      <point x="622.52" y="538.6" type="line"/>
      <point x="564.25" y="153.58" type="line"/>
      <point x="481.82" y="112.51"/>
      <point x="410.31" y="86.4"/>
      <point x="325.73" y="86.4" type="curve" smooth="yes"/>
      <point x="248.69" y="86.4"/>
      <point x="210.01999999999998" y="120.63"/>
      <point x="210.02" y="182.57000000000002" type="curve" smooth="yes"/>
      <point x="210.02" y="202.59"/>
      <point x="213.17" y="227.58000000000004"/>
      <point x="264.3" y="538.6" type="curve"/>
      <point x="130.92000000000002" y="538.6" type="line"/>
      <point x="73.77" y="176.88"/>
      <point x="72.77" y="161.32"/>
      <point x="72.77" y="145.02" type="curve" smooth="yes"/>
      <point x="72.77" y="50.0"/>
      <point x="137.8" y="-10.0"/>
      <point x="266.26" y="-10.0" type="curve" smooth="yes"/>
      <point x="369.90000000000003" y="-10.0"/>
      <point x="464.33000000000004" y="22.56"/>
      <point x="567.55" y="79.97" type="curve"/>
      <point x="577.87" y="24.86"/>
      <point x="614.06" y="-9.14"/>
      <point x="676.38" y="-9.14" type="curve" smooth="yes"/>
      <point x="695.99" y="-9.14"/>
      <point x="718.47" y="16.78"/>
      <point x="672.46" y="20.77" type="curve"/>
      <point x="603.3499999999999" y="-2.4999999999999982"/>
      <point x="555.66" y="-46.06000000000001"/>
      <point x="555.66" y="-105.62" type="curve" smooth="yes"/>
      <point x="555.66" y="-166.89000000000001"/>
      <point x="601.23" y="-208.82000000000002"/>
    </contour>
  </outline>
</glyph>
